<?xml version="1.0" encoding="UTF-8" standalone="no"?>
<!-- Created with Inkscape (http://www.inkscape.org/) -->

<svg
   width="297mm"
   height="210mm"
   viewBox="0 0 1122.5197 793.70081"
   version="1.1"
   id="svg1"
   xml:space="preserve"
   xmlns="http://www.w3.org/2000/svg"
   xmlns:svg="http://www.w3.org/2000/svg"><defs
     id="defs1"><linearGradient
       id="swatch7"><stop
         style="stop-color:#000000;stop-opacity:1;"
         offset="0"
         id="stop7" /></linearGradient></defs><g
     id="layer1"><ellipse
       style="opacity:1;fill:none;fill-opacity:1;stroke:#000000;stroke-width:4.89577;stroke-linecap:round;stroke-linejoin:round;stroke-dasharray:none;stroke-opacity:1;paint-order:normal"
       id="path7"
       cx="449.14243"
       cy="246.76202"
       rx="2.4252102"
       ry="2.2983065" /><path
       style="fill:none;stroke:#000000;stroke-width:6;stroke-linecap:round;stroke-linejoin:round;stroke-dasharray:none;stroke-opacity:1;paint-order:normal"
       d="m 448.61095,258.92652 c 0,0 -12.65874,31.23747 16.92163,9.8202"
       id="path3" /><path
       style="fill:none;stroke:#000000;stroke-width:6;stroke-linecap:round;stroke-linejoin:round;stroke-dasharray:none;stroke-opacity:1"
       d="m 465.26556,253.82862 c 0,0 -3.17116,27.84037 1.37366,20.51926 4.57035,-7.36222 6.07829,-19.92259 10.18503,-15.9198 4.06092,3.95812 -4.00219,19.685 3.46415,12.09723 7.11983,-7.23563 6.84096,-8.61761 6.84096,-8.61761"
       id="path4" /><path
       style="fill:none;stroke:#000000;stroke-width:6;stroke-linecap:round;stroke-linejoin:round;stroke-dasharray:none;stroke-opacity:1"
       d="m 496.98509,283.31027 c 0,0 10.33092,-55.23758 22.58882,-48.47715 4.41255,2.43359 0.59581,14.38195 0.12541,23.64907 -0.6148,12.11168 3.02791,20.53114 3.6817,20.25955"
       id="path8" /><path
       style="fill:none;stroke:#000000;stroke-width:6.00000014;stroke-linecap:butt;stroke-linejoin:miter;stroke-dasharray:none;stroke-opacity:1"
       d="m 501.29981,259.96002 18.27411,0.76142"
       id="path9" /><path
       style="fill:none;stroke:#000000;stroke-width:6;stroke-linecap:round;stroke-linejoin:round;stroke-dasharray:none;stroke-opacity:1"
       d="m 533.27951,254.12245 c 0,0 -6.09138,23.09645 4.06091,19.28934 10.15228,-3.8071 12.94416,-15.73603 12.94416,-15.73603 0,0 -7.61422,26.39594 1.01522,21.82741 8.62944,-4.56853 15.48224,-21.31981 15.48224,-21.31981"
       id="path10" /><path
       style="fill:none;stroke:#000000;stroke-width:6;stroke-linecap:round;stroke-linejoin:round;stroke-dasharray:none;stroke-opacity:1"
       d="m 565.00539,254.63006 c 0,0 26.39594,31.97971 8.37563,29.44164 -18.0203,-2.53808 -3.29949,-15.73605 2.28426,-21.066 5.58376,-5.32995 13.19797,0.76143 13.19797,0.76143"
       id="path11" /><path
       style="fill:none;stroke:#000000;stroke-width:6.00000014;stroke-linecap:round;stroke-linejoin:round;stroke-dasharray:none;stroke-opacity:1"
       d="m 576.67343,246.50331 11.66371,-0.27179 14.74639,-1.495"
       id="path12" /><path
       style="fill:none;stroke:#000000;stroke-width:6;stroke-linecap:round;stroke-linejoin:round;stroke-dasharray:none;stroke-opacity:1"
       d="m 591.90893,233.56408 c 0,0 -8.37562,50.2538 2.79189,44.92386 11.16752,-5.32995 18.27411,-25.1269 18.27411,-25.1269"
       id="path13" /><path
       style="fill:none;stroke:#000000;stroke-width:6;stroke-linecap:round;stroke-linejoin:round;stroke-dasharray:none;stroke-opacity:1"
       d="m 612.46732,252.85342 c 0,0 -15.28467,28.84408 11.42132,7.86802 9.06147,-7.11728 -11.92894,35.533 1.77664,22.58883 13.7056,-12.94416 12.11103,-12.8545 12.11103,-12.8545"
       id="path14" /><path
       style="fill:none;stroke:#000000;stroke-width:6;stroke-linecap:round;stroke-linejoin:round;stroke-dasharray:none;stroke-opacity:1"
       d="m 654.3455,258.18337 c 0,0 -16.49746,-2.53807 -17.7665,6.85279 -1.26903,9.39086 17.00509,10.6599 17.00508,-0.25381 0,-7.00158 2.53808,-10.40609 2.53808,-10.40609 0,0 -7.22809,34.09486 3.04568,22.84264 10.6599,-11.67513 13.50557,-15.67949 13.50557,-15.67949"
       id="path15" /><path
       style="fill:none;stroke:#000000;stroke-width:6;stroke-linecap:round;stroke-linejoin:round;stroke-dasharray:none;stroke-opacity:1"
       d="m 670.84296,265.03616 c 0,0 9.64467,-10.6599 10.15229,-19.54315 0.50761,-8.88325 -8.37563,-13.45178 -8.37563,-13.45178 0,0 -10.15229,51.77665 4.31471,43.65482 14.46701,-8.12182 16.49747,-17.00507 16.49747,-17.00507"
       id="path16" /><ellipse
       style="opacity:1;fill:none;fill-opacity:1;stroke:#000000;stroke-width:4.98847;stroke-linecap:round;stroke-linejoin:round;stroke-dasharray:none;stroke-opacity:1;paint-order:normal"
       id="path17"
       cx="693.93939"
       cy="246.76205"
       rx="2.5362236"
       ry="2.2824168" /><path
       style="fill:none;stroke:#000000;stroke-width:6;stroke-linecap:round;stroke-linejoin:round;stroke-dasharray:none;stroke-opacity:1"
       d="m 693.93941,258.69098 c 0,0 -9.13705,21.3198 2.53807,16.24365 11.67513,-5.07614 11.92893,-6.85278 11.92893,-6.85278"
       id="path18" /><path
       style="fill:none;stroke:#000000;stroke-width:6;stroke-linecap:round;stroke-linejoin:round;stroke-dasharray:none;stroke-opacity:1"
       d="m 724.70387,255.35562 c 0,0 -14.01319,-2.24839 -15.78984,12.72623 -0.91246,7.69075 8.9026,8.95879 13.1154,3.61437 3.98992,-5.06168 3.72553,-16.55854 3.72553,-16.55854 0,0 -5.47617,33.99222 7.468,20.03283 12.94416,-13.95939 11.14958,-14.12353 11.14958,-14.12353"
       id="path19" /><path
       style="fill:none;stroke:#000000;stroke-width:3.32884;stroke-linecap:round;stroke-linejoin:round;stroke-dasharray:none;stroke-opacity:1"
       d="m 746.95851,271.80162 c 0,0 7.2622,0.92805 6.26207,5.44843 -1.00011,4.52038 -6.26207,-5.44843 -6.26207,-5.44843 z"
       id="path20" /></g></svg>
