<svg width="818" height="1194" viewBox="0 0 818 1194" fill="none" xmlns="http://www.w3.org/2000/svg">
<rect x="461" y="740" width="229" height="282" fill="#FDEA6B"/>
<path fill-rule="evenodd" clip-rule="evenodd" d="M394.207 464.173C418.892 445.376 480.865 436.923 507.211 455.022C533.233 473.197 536.07 502.588 548.196 529.626C559.637 524.231 578.53 531.958 581.847 542.574C585.961 547.581 586.146 561.648 588.983 568.379C712.425 588.028 731.166 684.267 746.024 793.525C765.68 904.394 810.301 1015.02 790.93 1129.11C793.454 1132.76 795.444 1136.31 797.284 1140.52C801.693 1148.03 796.014 1158.65 787.121 1158.23C775.61 1157.22 764.213 1155.84 752.648 1155.41C720.588 1154.3 688.499 1154.43 656.427 1154.84L652.054 1154.9C490.421 1156.91 328.797 1160.87 167.157 1161.93C161.293 1161.93 158.422 1156.67 159.205 1151.49C160.782 1141.04 162.245 1130.59 163.772 1120.14C125.54 1130.24 84.8961 1132.78 46.7721 1121.2C44.1051 1118.49 52.9861 1119.96 54.3951 1119.55C19.3091 1095.57 29.7871 1045.06 32.8951 1008.69C52.2211 884.036 59.0341 746.118 133.703 639.751C166.006 596.343 213.365 561.975 267.784 554.242L269.294 554.035C285.206 551.913 302.94 551.23 316.852 542.574C332.499 530.082 339.167 507.002 355.629 506.786C361.064 506.714 368.459 513.591 376.416 518.26C377.01 507.989 382.545 499.322 383.767 491.358L383.866 490.677C385.141 481.393 383.395 473.04 394.207 464.173ZM659.495 796.818C624.805 772.719 535.192 784.828 533.14 786.177C528.623 789.148 526.678 789.411 524.235 793.269C521.823 793.589 519.413 793.921 517.005 794.263C512.174 795.841 515.754 801.783 521.334 799.663C517.978 814.137 527.855 824.431 531.787 838.74C533.064 843.386 531.833 851.743 531.787 856.49C532.168 862.543 538.861 869.692 537.745 875.765C533.78 897.354 512.262 918.414 521.334 939.351C527.344 951.176 545.42 957.206 557.438 961.226C582.337 970.782 625.721 960.866 640.188 939.351C647.905 927.875 656.845 898.928 661.446 889.949L662.465 875.705C664.98 840.298 667.217 802.183 659.495 796.818Z" fill="#AE5D29"/>
<path fill-rule="evenodd" clip-rule="evenodd" d="M354.345 506.85L364.273 512.942L421.931 541.444C433.109 544.574 438.698 548.325 438.698 552.697V597.216C438.698 603.174 449.188 616.676 470.167 637.723L489.548 618.401L489.115 615.871C487.271 604.971 486.348 597.68 486.348 593.997C486.348 590.036 505.31 575.001 543.234 548.89L559.825 533.271L558.056 527.891C568.285 528.374 579.379 534.674 581.847 542.574C585.961 547.581 586.146 561.648 588.983 568.379C712.425 588.028 731.166 684.267 746.024 793.525C765.68 904.394 810.301 1015.02 790.93 1129.11C793.454 1132.76 795.444 1136.31 797.284 1140.52C801.693 1148.03 796.014 1158.65 787.121 1158.23C775.61 1157.22 764.213 1155.84 752.648 1155.41C720.588 1154.3 688.499 1154.43 656.427 1154.84L652.054 1154.9C490.421 1156.91 328.797 1160.87 167.157 1161.93C161.293 1161.93 158.422 1156.67 159.205 1151.49C160.782 1141.04 162.245 1130.59 163.772 1120.14C125.54 1130.24 84.8961 1132.78 46.7721 1121.2C44.1051 1118.49 52.9861 1119.96 54.3951 1119.55C19.3091 1095.57 29.7871 1045.06 32.8951 1008.69C52.2211 884.036 59.0341 746.118 133.703 639.751C166.006 596.343 213.365 561.975 267.784 554.242L269.294 554.035L270.815 553.837C286.328 551.862 303.381 550.955 316.852 542.574C332.086 530.412 338.809 508.213 354.345 506.85ZM492.502 768.156C486.847 768.156 475.265 776.938 457.757 794.502L456.214 795.215C435.05 805.046 421.028 813.574 414.151 820.799L413.905 821.059C406.958 828.513 393.199 848.332 372.63 880.519L342.844 898.134H331.573L323.549 956.337L342.844 997.897L386.547 983.175L457.757 964.406L498.619 922.951L521.669 915.212C518.872 923.292 517.859 931.331 521.334 939.351C527.344 951.176 545.42 957.206 557.438 961.226C582.337 970.782 625.721 960.866 640.188 939.351C647.905 927.875 656.845 898.928 661.446 889.949L662.765 871.445C665.143 837.301 666.909 801.968 659.495 796.818C624.805 772.719 535.192 784.828 533.14 786.177C528.623 789.148 526.678 789.411 524.235 793.269L522.97 793.438L530.082 783.793L527.564 782.449C509.596 772.92 497.909 768.156 492.502 768.156ZM521.334 799.663C518.121 813.52 527.037 823.545 531.253 836.931L520.48 816.307L520.479 799.93C520.758 799.862 521.043 799.773 521.334 799.663Z" fill="#9DDADB"/>
<path fill-rule="evenodd" clip-rule="evenodd" d="M349.585 504.698C351.98 502.577 355.524 505.242 354.002 508.107C350.582 514.546 347.074 520.647 342.484 526.339C339.701 529.79 336.72 533.054 333.699 536.282C341.452 542.989 348.101 551.316 354.38 559.12C362.409 569.101 370 579.505 379.013 588.638C387.901 597.645 397.73 603.941 409.614 608.14L412.014 608.974C423.952 613.165 436.711 618.825 443.441 630.128C444.768 632.357 442.096 635.111 439.85 633.72C428.157 626.48 414.418 625.024 401.69 620.24C389.395 615.619 378.677 608.507 369.207 599.43C359.753 590.368 351.815 580.058 343.535 569.966C335.347 559.987 326.531 551.464 316.846 543.021C301.9 553.075 284.84 557.45 267.493 561.747L265.6 562.216C248.232 566.516 230.957 571.51 214.663 578.998C200.297 585.599 186.167 593.482 174.465 604.224C162.043 615.624 152.375 630.184 143.526 644.423C123.732 676.279 109.816 711.179 97.5645 746.503C84.8225 783.245 74.1645 820.723 65.5605 858.646C61.1845 877.936 57.6305 897.363 54.7095 916.926C53.3035 926.348 52.0545 935.79 50.9575 945.253C49.7865 955.358 49.5175 965.754 46.4175 975.47C45.0885 979.634 41.9505 981.362 38.8095 981.215L38.1715 989.194C37.3256 999.832 36.5369 1010.47 36.2705 1021.18C35.8286 1038.97 36.029 1056.72 37.3092 1074.48L37.4905 1076.9C38.4965 1089.87 40.7445 1104.43 50.4915 1113.92C60.5855 1123.75 76.1085 1126.84 89.7135 1127.02C121.401 1127.43 151.903 1112.46 179.943 1099.32C208.821 1085.8 236.91 1070.78 264.326 1054.5C278.288 1046.21 292.099 1037.64 305.734 1028.82C312.425 1024.49 319.069 1020.09 325.663 1015.61C329.44 1013.05 333.019 1010.24 336.864 1007.97C334.98 1006.22 334.139 1003.46 335.717 1001.05C324.602 991.402 319.976 974.185 319.435 960.254C318.998 949.009 320.653 937.796 321.959 926.657C322.618 921.04 323.432 915.433 324.277 909.841C324.611 907.632 324.866 905.269 325.256 902.937C295.243 919.43 264.389 934.118 232.718 947.167C216.484 953.856 200.042 959.87 183.373 965.381L179.994 966.492C164.2 971.662 148.028 976.546 131.701 979.502C130.828 979.66 130.119 978.371 131.051 977.96C146.963 970.939 163.426 965.017 179.577 958.551L182.231 957.47V957.47C181.926 957.453 181.61 957.411 181.28 957.332C171.808 955.046 162.41 951.523 153.12 948.557C144.498 945.804 134.811 944.075 126.752 939.919C126.132 939.599 126.479 938.737 127.083 938.696C136.141 938.068 145.974 940.708 154.855 942.261L158.191 942.845C163.78 943.831 169.493 944.89 175.055 946.272C175.256 944.409 176.297 942.538 177.778 941.441C194.075 929.372 192.42 904.996 194.163 887.021L195.455 873.676C197.728 850.321 200.134 826.968 203.788 803.788C203.983 802.55 205.898 802.905 205.906 804.074C206.094 832.808 203.925 861.411 202.838 890.101L202.669 894.807C202.068 912.51 201.597 930.892 190.448 944.514C192.007 943.603 194.115 943.603 195.378 945.105C196.93 946.952 197.826 949.026 197.798 951.061C207.873 946.837 217.904 942.503 227.886 938.081C259.979 923.863 291.399 907.952 321.988 890.736C325.28 888.883 328.409 890.339 330.037 892.782L330.271 892.748C330.311 892.743 330.351 892.739 330.392 892.738L330.625 892.728C330.634 892.728 330.643 892.729 330.651 892.729C334.957 890.363 340.823 892.048 344.518 895.499C344.627 895.603 344.72 895.715 344.817 895.825C349.495 893.725 353.863 890.89 357.827 887.297C365.939 879.945 372.81 870.854 378.8 861.738C389.831 844.948 399.201 826.277 414.102 812.456C426.209 801.227 441.219 794.236 456.966 789.847C456.9 789.387 457.076 788.897 457.394 788.571C458.203 787.742 458.78 787.455 459.825 787.958C459.908 787.999 459.958 788.055 459.992 788.115L461.528 785.489C462.367 784.065 463.228 782.63 463.527 782.253C465.315 780.002 467.155 777.768 469.023 775.581C472.19 771.878 475.799 768.224 479.978 765.656C489.128 760.035 498.747 763.216 508.154 766.288C513.838 768.145 519.503 770.062 525.177 771.947L525.762 772.138C529.993 773.497 534.944 774.686 536.836 779.169C537.585 780.943 537.701 782.784 537.352 784.57C577.535 774.351 622.167 779.046 661.38 791.042C662.885 791.502 664.389 792.74 664.706 794.366C669.199 817.407 671.2 841.036 669.167 864.47C667.413 884.698 662.93 904.521 654.484 923.04L654.004 924.085C646.067 941.248 633.486 962.405 614.273 967.784C602.672 971.032 589.842 969.117 578.01 968.522C566.511 967.943 554.757 967.859 543.367 966.051C533.223 964.441 524.335 959.894 518.066 951.646C512.658 944.53 509.81 935.93 507.477 927.375C506.409 927.715 505.348 928.076 504.304 928.485C499.897 930.206 496.163 932.984 492.787 936.253C485.658 943.157 480.128 951.542 472.669 958.13C465.917 964.094 458.223 968.732 449.97 972.298C432.868 979.687 414.522 982.64 396.433 986.556L395.172 986.831C381.554 989.819 367.654 993.488 355.634 1000.58C355.399 1002.66 354.448 1004.63 352.924 1005.91C355.044 1007.91 355.942 1011.06 354.079 1014.02C348.875 1022.28 339.911 1026.97 331.864 1032.26L331.341 1032.6C323.425 1037.85 315.44 1042.99 307.39 1048.03C291.025 1058.28 274.318 1067.96 257.375 1077.22C230.124 1092.1 202.288 1106.15 173.948 1118.88C175.649 1127.25 175.027 1135.88 176.305 1144.31L176.502 1145.51C177.048 1148.63 176.31 1151.25 174.156 1153.29L173.929 1153.5L173.933 1153.47L173.731 1153.66L173.663 1153.72L173.686 1153.7C173.437 1153.93 173.181 1154.14 172.92 1154.32L172.588 1154.53V1154.53C170.513 1155.79 167.843 1155.78 165.719 1154.67L165.477 1154.53L165.069 1154.3C162.263 1152.68 160.328 1148.68 161.492 1145.51C164.353 1137.7 165.434 1129.37 168.076 1121.51L165.98 1122.44V1122.44L163.217 1123.65C133.339 1136.57 100.151 1147.45 67.5965 1138.64C53.2125 1134.75 39.7685 1126.51 32.5715 1113.09C25.4895 1099.89 24.4885 1084.55 24.1125 1069.86C23.6485 1051.73 24.6205 1033.32 27.0115 1015.35C28.6165 1003.28 30.5575 990.988 33.5515 979.047C32.0115 977.688 30.8795 975.739 30.5805 973.325C29.1675 961.92 31.6405 950.063 33.1545 938.717C34.6335 927.639 36.2675 916.583 38.1155 905.561C41.8465 883.302 46.1815 861.09 51.2285 839.092C60.2105 799.941 72.0715 761.486 86.3515 723.95L87.6021 720.68C100.798 686.371 116.076 652.794 137.351 622.654C147.528 608.234 158.286 595.16 172.666 584.769C186.138 575.033 201.334 568.023 217.016 562.665C232.715 557.303 248.851 553.71 265.272 551.475C281.949 549.205 299.552 547.813 315.109 540.973C313.141 537.445 314.83 532.682 318.142 530.494C329.288 523.13 339.595 513.55 349.585 504.698ZM706.39 824.919C706.857 824.21 707.966 824.658 707.761 825.497C702.34 847.706 697.251 869.96 693.928 892.593C687.93 933.443 689.033 974.826 689.523 1015.98L689.548 1018.11C689.8 1040.27 690.15 1062.44 690.883 1084.6C691.253 1095.8 691.985 1107.1 691.587 1118.31C691.37 1124.39 689.75 1130.13 689.176 1136.14C688.673 1141.39 689.121 1146.72 689.372 1151.98C689.54 1155.48 684.38 1155.33 684.029 1151.98L683.58 1147.65C682.997 1142.17 682.277 1136.73 680.481 1131.48C678.322 1125.18 677.286 1118.98 676.537 1112.36C675.39 1102.21 674.88 1091.96 674.437 1081.75L674.134 1074.68C672.285 1031.97 672.35 989.068 675.343 946.409L675.562 943.362C678.526 903.038 683.669 859.469 706.39 824.919ZM590.835 570.772C589.419 570.19 589.915 568.049 591.483 568.422L594.335 569.103C615.229 574.107 635.745 579.53 655.247 588.842C674.762 598.16 691.284 612.071 704.412 629.177C729.932 662.428 740.537 702.838 748.909 743.21C758.213 788.071 766.684 833.096 776.069 877.943L777.812 886.297C786.496 928.067 794.695 969.86 800.736 1012.12L801.17 1015.19C807.263 1058.65 810.927 1103.62 804.279 1147.19C802.964 1155.81 788.618 1153.67 789.179 1145.15C790.799 1120.53 791.959 1096.03 790.838 1071.35C789.716 1046.67 787.401 1022.1 783.95 997.629C781.046 977.039 776.717 956.705 772.886 936.279L772.285 933.052C769.077 915.679 765.77 898.323 762.47 880.965L757.539 854.977C750.148 816.064 742.612 777.117 734.097 738.448L733.592 736.173C725.259 698.971 712.974 660.002 687.979 630.459C662.614 600.478 626.303 585.379 590.835 570.772ZM498.668 965.37C499.278 964.011 501.412 964.16 502.068 965.37C504.639 970.113 504.924 976.166 505.41 981.52L505.461 982.071C506.079 988.604 506.626 995.159 506.961 1001.71C507.596 1014.15 507.9 1026.58 507.861 1039.03C507.821 1051.79 507.564 1064.54 506.876 1077.29L506.69 1080.7C506.062 1091.78 505.008 1104.13 499.745 1113.82C497.832 1117.34 492.629 1116.3 491.521 1112.74C487.891 1101.09 489.755 1087.27 490.686 1075.33L491.409 1066.01C492.125 1056.7 492.808 1047.38 493.349 1038.05C494.091 1025.29 494.703 1012.52 495.292 999.749C495.484 995.602 495.691 991.454 495.909 987.308L496.245 981.089C496.532 975.887 496.508 970.179 498.668 965.37ZM90.5205 981.89L92.1275 980.337C97.0605 975.51 103.294 968.075 110.587 968.536C113.495 968.72 115.348 971.134 114.745 973.995C113.457 980.111 107.218 983.285 102.727 987.019C97.8068 991.108 93.1698 995.479 88.5418 999.892C84.436 1003.8 80.4875 1007.83 76.6337 1011.98L75.1928 1013.54C73.8114 1015.05 63.9743 1023.95 65.0379 1026.25L65.0958 1026.36C65.3918 1026.8 64.8988 1027.41 64.4078 1027.25C60.1598 1025.91 60.4248 1022.27 62.0308 1018.58C65.1168 1011.49 70.5208 1004.94 75.2398 998.883C79.9461 992.845 85.0399 987.222 90.5205 981.89V981.89ZM514.062 804.137C510.777 796.373 498.676 796.536 491.806 797C474.506 798.169 455.788 802.546 440.395 810.632C424.436 819.015 413.686 832.447 404.068 847.3L403.618 847.997C394.243 862.57 385.214 879.821 370.534 889.841C363.057 894.946 354.326 899.607 345.254 901.626C344.631 902.721 343.622 903.588 342.299 903.903L341.684 904.044C339.1 904.614 335.086 905.245 331.619 904.868C331.642 906.564 331.624 908.247 331.667 909.854C331.789 914.459 331.841 919.084 331.841 923.692C331.843 933.347 331.324 943.021 331.727 952.675C332.084 961.214 333.29 970.136 337.39 977.769C340.397 983.369 344.366 987.075 349.157 990.613C360.943 983.43 374.27 979.052 387.796 975.76C404.154 971.779 420.903 969.122 436.889 963.724C444.583 961.125 451.98 957.724 458.682 953.105C465.795 948.2 471.228 941.564 476.818 935.073L477.691 934.064C483.396 927.522 489.621 921.261 497.684 917.714C504.627 914.658 513.778 914.114 519.849 909.386C523.023 906.912 523.289 903.322 523.623 899.646C519.735 900.202 515.619 899.311 511.744 898.857L509.736 898.621C506.072 898.186 502.492 897.707 498.885 896.775C498.215 896.602 498.215 895.592 498.885 895.419C503.148 894.318 507.373 893.849 511.744 893.337L512.77 893.209C516.724 892.69 520.881 891.908 524.76 892.778C525.456 890.13 526.461 887.602 527.871 885.07C529.85 881.513 533.595 877.48 534.101 873.325C534.252 872.084 533.963 870.621 533.378 869.524L533.176 869.15C532.93 868.708 532.639 868.264 532.213 867.989C532.166 868.044 532.066 868.107 531.849 868.175C528.864 869.115 526.26 867.654 524.878 865.402C519.011 866.13 512.608 865.885 507.106 866.128L501.543 866.397C495.598 866.669 489.384 866.789 483.799 865.588C483.019 865.421 482.783 864.123 483.564 863.789C490.431 860.852 498.761 859.915 506.113 858.787C510.219 858.156 514.355 857.676 518.473 857.121C521.215 856.751 524.125 856.14 526.966 855.993C534.089 847.126 530.251 833.138 520.338 829.32C516.727 830.907 513.48 829.984 509.535 829.645C505.597 829.307 501.649 829.078 497.695 829.095C489.772 829.13 481.376 831.214 473.53 830.317C472.254 830.17 471.068 828.472 472.337 827.436C478.342 822.535 486.95 820.937 494.573 819.892L496.154 819.681C498.71 819.346 501.818 818.857 505.042 818.566C505.771 817.144 507.079 816.069 509.044 815.802C509.628 815.722 510.215 815.675 510.801 815.625L510.792 815.567V815.567C515.584 815.337 515.376 807.243 514.062 804.137ZM185.993 955.562C185.908 955.693 185.815 955.817 185.717 955.937L185.565 956.113L186.353 955.793L185.993 955.562V955.562ZM597.684 786.788C577.514 784.621 557.315 785.078 537.085 785.66C535.467 790.952 529.835 795.462 524.378 795.632C528.652 802.137 529.093 810.941 526.096 817.84C532.459 820.373 537.941 824.923 541.269 831.403C545.884 840.386 545.28 850.382 540.719 858.684C544.612 862.208 546.909 867.931 546.679 873.325C546.422 879.34 542.837 884.478 539.858 889.458C536.639 894.844 536.531 899.586 535.542 905.618C534.095 914.446 528.141 919.8 520.48 923.144L520.887 924.746C522.862 932.434 525.319 940.546 530.965 946.168C538.226 953.4 549.492 953.333 559.087 953.791L559.55 953.814C568.335 954.253 577.117 954.768 585.899 955.265L592.487 955.634C602.599 956.19 612.31 956.257 620.565 949.572C634.042 938.66 643.281 920.601 649.129 904.614C661.403 871.058 661.55 834.233 655.916 799.285C637.021 793.195 617.416 788.908 597.684 786.788ZM429.945 842.46L430.093 842.47C434.246 842.944 437.099 846.307 438.115 850.296C439.591 856.094 438.867 861.336 442.418 866.57C446.071 871.952 448.317 876.261 448.848 882.91C449.066 885.646 448.966 888.375 449.575 891.053L450.017 892.929C450.486 894.93 450.869 896.857 450.636 899.005C450.423 900.964 449.469 902.49 447.504 903.118C441.101 905.166 436.157 900.448 434.503 894.481C433.074 889.327 434.982 883.185 432.966 878.345C431.849 875.662 429.789 873.418 428.625 870.717C427.472 868.04 426.893 865.243 426.708 862.333C426.357 856.829 431.225 850.216 428.509 845.229C427.931 844.165 428.586 842.427 429.945 842.46ZM344.892 785.661C349.228 784.78 354.147 782.761 358.423 784.439C360.621 785.303 361.707 787.983 359.85 789.846C356.626 793.078 351.94 793.258 347.597 794.02L347.215 794.089C342.08 795.039 336.936 795.94 331.785 796.794C322.094 798.399 312.38 799.818 302.632 801.024C292.62 802.263 282.58 803.366 272.526 804.196L268.634 804.515C260.141 805.195 251.304 805.707 242.971 804.406C241.76 804.217 241.955 802.454 242.971 802.145C252.1 799.382 262.114 798.641 271.552 797.472C281.586 796.227 291.603 794.912 301.594 793.352C311.569 791.794 321.531 790.122 331.456 788.274C335.942 787.44 340.421 786.569 344.892 785.661ZM501.347 776.79C497.542 775.443 493.356 773.447 489.233 774.115C482.123 775.267 475.795 782.194 470.167 786.756L472.992 786.207C487.452 783.428 506.6 780.434 518.738 789.627C518.769 789.574 518.793 789.521 518.828 789.468C519.808 787.98 520.943 786.819 522.182 785.546C522.3 785.434 522.414 785.319 522.527 785.202L523.196 784.49L521.667 783.96C518.392 782.803 514.512 781.308 513.899 781.09L513.857 781.075C509.682 779.661 505.502 778.263 501.347 776.79ZM382.545 473.716C381.95 466.063 393.861 466.126 394.451 473.716C395.738 490.286 392.009 506.699 383.983 521.226C383.924 521.332 383.859 521.426 383.797 521.526C388.817 524.138 393.894 526.644 399.084 528.884C405.723 531.75 412.487 534.36 419.372 536.574C425.6 538.578 433.273 539.369 438.509 543.539C449.55 552.331 445.402 570.577 443.278 582.404L442.946 584.271C441.889 590.357 441.124 596.601 443.69 602.442C446.43 608.681 451.971 613.309 456.914 617.773L457.912 618.678C462.291 622.667 467.295 627.515 470.507 632.923C473.439 626.861 477.436 621.907 481.662 616.33C484.677 612.35 482.531 611.038 480.365 607.15C478.28 603.408 477.262 599.419 477.914 595.15C479.117 587.266 485.418 581.571 491.69 577.292C499.097 572.241 507.364 568.499 515.021 563.8C530.755 554.146 546.078 543.108 559.883 530.849C560.264 530.51 560.924 530.954 560.619 531.417C549.714 548.004 536.927 562.337 521.212 574.503C514.84 579.436 508.146 583.528 501.407 587.829L499.47 589.072C496.764 590.825 493.389 593.168 492.166 596.152C490.935 599.153 493.56 601.419 494.973 603.905C499.46 611.799 497.295 619.165 491.976 625.86L491.728 626.169C486.442 632.683 482.436 638.741 480.52 647.063C476.403 664.939 482.137 683.56 488.14 700.343L488.377 701.005C491.624 710.051 495.075 719.031 497.896 728.222L498.672 730.762C501.228 739.219 503.321 747.56 500.454 756.254C499.479 759.211 495.446 759.91 493.771 757.127C487.862 747.313 486.389 735.503 482.685 724.713C479.075 714.197 474.93 703.871 471.443 693.312C466.953 679.717 463.948 665.083 465.579 650.823C465.531 650.74 465.478 650.662 465.438 650.574L464.295 648.073C461.178 641.304 458.168 635.391 452.5 629.996C446.588 624.367 440.171 619.384 435.519 612.57C425.414 597.768 431.663 581.303 432.884 565.12L433.024 563.135C433.245 559.775 433.367 555.208 431.172 552.883C428.703 550.265 422.913 549.597 419.637 548.438C411.171 545.442 402.828 541.951 394.882 537.759C387.318 533.769 379.991 529.361 373.169 524.197L369.711 521.595C364.255 517.479 358.598 512.984 354.942 507.381C354.52 506.736 355.237 505.695 356.001 506.004C362.105 508.481 367.682 512.421 373.393 515.849C373.482 515.64 373.585 515.429 373.702 515.217C380.768 502.429 383.674 488.261 382.545 473.716ZM577.528 561.331C579.96 554.662 591.044 555.177 590.602 563.101C590.263 569.188 587.679 574.683 585.315 580.21L585.063 580.803C582.623 586.562 579.805 591.969 576.433 597.247C569.99 607.337 562.443 616.701 554.382 625.538C547.074 633.55 537.482 638.449 526.429 637.635C521.772 637.292 517.071 636.107 512.99 633.781C508.143 631.017 502.879 622.718 496.695 624.728C496.097 624.922 495.539 624.046 496.056 623.631C503.195 617.882 511.298 626.796 518.133 628.944C528.432 632.179 539.001 628.602 545.63 620.276C552.551 611.583 558.921 601.85 564.738 592.385C567.692 587.579 570.387 582.591 572.715 577.45C575.064 572.261 575.598 566.622 577.528 561.331ZM560.927 520.288C560.627 519.367 561.771 518.491 562.58 519.017C567.271 522.071 571.336 526.106 575.663 529.643C580.464 533.567 585.3 537.411 590.211 541.196C597.37 546.715 589.067 556.875 582.765 550.846C574.141 542.599 564.696 531.815 560.927 520.288ZM535.172 488.009C537.078 480.66 548.349 483.691 546.707 490.953L546.653 491.175C543.542 503.172 547.973 515.385 557.432 523.162L557.78 523.445C563.764 528.234 555.286 536.606 549.361 531.863C536.426 521.511 531.045 503.926 535.172 488.009Z" fill="black"/>
<path fill-rule="evenodd" clip-rule="evenodd" d="M618.143 255.549C618.657 230.456 616.329 204.74 604.135 182.312C593.547 161.262 577.838 143.015 561.712 126.03C554.984 118.943 545.999 111.802 546.84 101.059C547.723 89.7857 554.504 65.3657 555.55 53.9907C557.608 31.6247 541.6 25.4697 522.886 14.8417C500.316 2.02267 473.345 3.50567 448.881 9.26067C403.26 20.1467 349.049 38.2137 331.809 86.5577C327.665 98.4807 328.699 111.03 327.874 123.398C327.101 134.975 322.466 146.001 318.024 156.579C294.54 208.863 294.752 266.591 299.016 322.71C286.476 325.61 274.351 335.407 271.587 348.407C266.955 371.169 290.827 381.691 304.927 393.994C322.123 408.997 334.641 428.416 350.273 444.9C451.707 556.742 675.531 505.267 629 331.062C622.687 306.307 617.202 281.265 618.143 255.549Z" fill="#AE5D29"/>
<path fill-rule="evenodd" clip-rule="evenodd" d="M448.881 9.26067C473.1 3.56322 499.777 2.05275 522.207 14.4614L524.562 15.7867C542.544 25.8536 557.546 32.2956 555.55 53.9907C554.504 65.3657 547.723 89.7857 546.84 101.059C546.812 101.415 546.795 101.767 546.788 102.115L536.377 148.764H479.788C452.541 119.58 428.184 104.988 406.717 104.988C385.533 104.988 363.092 111.511 339.395 124.556L338.446 125.081L327.669 125.701C327.754 124.936 327.822 124.168 327.874 123.398C328.699 111.03 327.665 98.4807 331.809 86.5577C349.049 38.2137 403.26 20.1467 448.881 9.26067Z" fill="#EC7495"/>
<path fill-rule="evenodd" clip-rule="evenodd" d="M417.498 11.673C442.69 1.88097 469.919 -2.25903 496.853 1.21097C511.345 3.07797 525.395 6.97597 538.648 13.162C545.04 16.146 551.172 19.684 556.923 23.771L557.448 24.1464C562 27.4293 566.643 31.4896 566.111 36.939C566.463 38.08 566.525 39.334 566.246 40.585C561.756 60.735 557.045 80.821 552.396 100.932C551.418 105.16 550.472 109.395 549.534 113.633C581.173 137.457 610.915 170.027 622.178 208.73C633.203 246.618 628.376 286.522 632.273 325.298C633.197 334.485 634.757 343.598 637.207 352.508C639.839 362.074 644.236 371.116 646.459 380.789C650.933 400.25 644.444 419.355 634.175 435.856C615.138 466.446 586.377 492.259 552.935 505.965C535.823 512.977 516.987 516.789 498.476 516.492C480.322 516.201 459.655 512.472 444.457 501.996C434.184 494.916 442.963 480.971 454.015 485.644L457.018 486.909C464.682 490.117 472.29 493.092 480.507 494.798C489.692 496.704 499.13 497.111 508.481 496.525C526.615 495.389 543.809 489.353 559.461 480.289C573.586 472.108 586.17 461.544 597.407 449.741L598.658 448.42C609.298 437.134 620.008 424.271 625.991 409.912C629.071 402.523 630.739 394.399 629.405 386.429C627.867 377.241 623.776 368.587 621.389 359.608C616.855 342.551 615.326 324.766 614.806 307.169L614.768 305.816C613.805 269.702 616.542 233.129 603.751 198.61C592.168 167.348 568.29 143.433 548.761 117.125C547.802 121.478 546.847 125.833 545.877 130.183C544.719 135.381 543.663 140.612 542.401 145.784L542.306 146.161V146.161C542.686 147.276 542.554 148.544 541.538 149.342C541.426 149.43 541.313 149.506 541.2 149.588C540.165 151.98 538.558 153.815 535.487 154.577C532.546 155.306 530.218 154.063 528.912 151.915L513.561 151.993V151.993C503.814 152.043 493.118 153.163 483.532 151.179C482.058 150.873 482.244 148.779 483.532 148.376C492.59 145.546 503.169 145.614 512.573 144.737L527.394 143.354V143.354C528.049 143.293 528.708 143.215 529.37 143.133L530.363 143.008L535.515 120.083V120.083C537.559 110.987 539.699 101.906 541.567 92.773C544.934 76.306 548.626 59.914 552.316 43.518C540.73 40.677 528.903 39.405 516.915 39.911L515.533 39.9721C510.889 40.1936 505.909 40.6585 502.026 43.354C497.209 46.696 496.861 53.59 495.794 58.906C492.866 73.485 490.77 88.203 488.933 102.958C488.045 110.093 487.374 117.247 486.587 124.391C486.229 127.633 486.01 130.929 485.527 134.151C485.067 137.218 483.967 140.203 483.346 143.234C484.416 147.86 478.006 152.255 474.428 148.145C470.005 143.064 466.13 137.76 461.188 133.114C456.23 128.452 450.813 124.371 444.974 120.874C433.108 113.766 420.779 109.394 407.527 105.699C407.087 105.577 406.838 105.304 406.717 104.988C393.494 108.74 380.56 113.824 368.559 120.359C340.737 135.51 318.835 161.669 310.536 192.391C305.384 211.468 304.247 231.619 304.177 251.302C304.145 260.439 304.339 269.681 305.784 278.722C307.397 288.809 311.057 297.827 314.006 307.505C314.776 310.032 314.587 312.288 313.767 314.172L314.519 314.285C320.541 315.227 332.34 317.883 333.415 324.45C333.716 326.291 332.686 327.731 330.793 327.891C327.428 328.176 325.312 325.732 322.625 324.063C322.142 323.764 321.645 323.489 321.15 323.211C321.022 323.299 320.85 323.321 320.673 323.22C304.784 314.171 285.365 328.011 281.829 344.068C278.527 359.061 284.146 376.423 298.635 382.977C305.92 386.273 313.667 388.342 320.372 392.85C326.015 396.644 331.001 401.282 335.35 406.496C344.305 417.228 351.06 429.465 358.993 440.919C362.475 445.946 366.341 450.696 370.936 454.758C375.969 459.206 382.972 460.961 385.104 467.924C385.935 470.639 384.553 473.9 382.109 475.282C373.165 480.342 363.033 471.541 356.776 465.574C350.353 459.449 345.113 452.032 340.304 444.61C332.25 432.18 325.372 417.999 313.557 408.577C306.465 402.922 297.63 400.783 289.648 396.783C280.489 392.195 273.984 384.676 270.097 375.275C262.942 357.968 264.826 335.903 278.382 322.132C282.784 317.658 288.355 314.797 294.188 313.646C288.165 303.109 285.928 289.826 284.417 278.035C282.898 266.189 282.739 254.266 283.364 242.352L283.49 240.037C284.687 218.793 287.098 196.975 294.787 177.028C301.26 160.239 311.083 144.837 324.135 132.392C325.482 131.108 326.865 129.85 328.27 128.613C327.893 128.324 327.531 128.014 327.208 127.663C323.551 123.683 324.334 118.31 324.821 113.363C325.362 107.864 326.238 102.381 327.554 97.013C336.734 59.559 364.966 29.001 401.295 16.361C406.541 14.535 411.97 12.964 417.498 11.673ZM295.101 343.108C300.981 339.393 309.955 340.817 316.085 343.252C323.296 346.115 330.976 351.457 333.816 358.921C336.446 365.831 326.632 368.28 322.972 363.492C320.71 360.533 319.036 357.683 316.89 355.104C316.617 355.371 316.356 355.65 316.125 355.954L315.958 356.186C315.048 357.524 313.389 358.915 311.615 358.676L311.136 358.613V358.613C309.345 358.373 307.374 357.505 306.88 355.557L306.831 355.336L306.765 354.984C306.356 352.82 307.002 350.436 309.077 349.304C309.216 349.228 309.358 349.163 309.498 349.091C304.928 346.697 300.215 345.948 295.246 344.222C294.752 344.05 294.641 343.399 295.101 343.108ZM458.577 20.849C427.936 20.08 394.32 29.502 371.67 50.728C360.947 60.779 353.683 72.471 347.169 85.503C344.093 91.656 342.113 98.473 340.647 105.176C339.845 108.843 339.244 112.542 338.924 116.284C338.862 117.005 338.874 117.766 338.762 118.48C338.667 119.088 338.552 119.246 338.446 119.206C338.498 119.376 338.751 119.723 338.995 120.054C361.937 103.553 390.333 93.949 418.415 100.206C419.309 100.405 419.309 101.815 418.415 102.014C416.979 102.334 415.547 102.692 414.114 103.043C426.402 103.314 439.029 107.164 449.642 112.889C460.247 118.61 471.401 126.698 479.089 136.536C478.869 135.1 478.695 133.658 478.662 132.199C478.577 128.302 478.667 124.385 478.812 120.491C479.126 112.046 479.701 103.602 480.395 95.181L480.701 91.5107C481.945 76.7922 483.475 61.6561 486.45 47.258C488.185 38.861 492.829 33.746 499.071 30.747C487.483 23.265 471.757 21.181 458.577 20.849ZM515.398 15.95C501.59 11.812 487.216 9.98897 472.831 10.238C478.06 11.559 483.122 13.479 487.886 16.13C494.016 19.542 498.332 24.062 502.197 29.448C505.834 28.182 509.879 27.483 514.135 27.181C523.963 26.484 533.899 27.008 543.662 28.556C541.84 27.434 539.991 26.357 538.112 25.334C530.888 21.405 523.271 18.309 515.398 15.95Z" fill="black"/>
<path fill-rule="evenodd" clip-rule="evenodd" d="M450 361.999C476.51 361.999 498 343.195 498 319.999C498 296.803 476.51 277.999 450 277.999C423.49 277.999 394.801 296.041 394.801 319.237C394.801 329.079 402.555 346.278 409.035 353.438C417.826 363.152 434.739 361.999 450 361.999Z" fill="white"/>
<path fill-rule="evenodd" clip-rule="evenodd" d="M564.256 353.961C584.549 353.961 601 336.956 601 315.98C601 295.004 584.549 277.999 564.256 277.999C543.962 277.999 522 294.314 522 315.29C522 324.191 527.936 339.744 532.896 346.219C539.626 355.003 552.573 353.961 564.256 353.961Z" fill="white"/>
<path fill-rule="evenodd" clip-rule="evenodd" d="M449.33 388.09C449.54 387.896 449.872 387.828 450.125 387.987C454.452 390.723 454.964 399.924 455.013 405.238C456.803 405.704 458.571 406.234 460.243 406.604C463.793 407.39 467.363 408.075 470.926 408.797L473.597 409.348C482.523 411.229 491.616 412.621 500.712 413.318C509.54 413.994 518.624 414.241 527.427 413.104C531.207 412.615 534.965 411.799 538.618 410.71C542.936 409.422 546.375 407.287 550.391 405.417C560.445 400.734 568.871 414.457 559.195 420.479C550.889 425.646 539.557 427.509 529.969 428.309C520.169 429.126 510.407 428.229 500.725 426.679C490.258 425.002 480.006 422.427 470.079 418.693C465.881 417.115 461.819 415.201 457.853 413.108L456.774 412.533C456.115 412.179 455.428 411.82 454.737 411.456C453.994 418.083 451.853 424.484 449.266 430.637L449.205 430.529C447.79 435.383 442.678 438.386 437.592 436.242C431.622 433.727 431.169 427.125 434.642 422.439L434.808 422.221C438.892 416.967 441.451 410.449 443.675 404.236C444.816 401.051 445.872 397.789 446.788 394.531C447.451 392.174 447.475 389.803 449.33 388.09ZM603.162 335.318C599.623 346.011 591.906 354.246 581.156 357.867C570.502 361.455 558.653 360.147 547.762 358.207C545.38 357.782 542.965 357.314 540.555 356.767C542.527 357.989 544.27 359.709 545.937 361.528C548.403 364.216 550.639 367.05 551.317 370.415C551.99 373.754 550.93 376.295 548.996 378.212C546.021 381.161 541.222 382.75 537.158 383.628C528.056 385.595 518.939 385.289 509.882 383.273C507.57 382.758 506.001 381.518 505.121 379.901C504.052 377.936 503.964 375.493 504.578 373.267C505.191 371.044 506.516 368.993 508.439 367.858C510.022 366.924 512.002 366.668 514.249 367.416C518.759 368.916 523.237 369.91 528.001 370.025C530.017 370.072 532.047 370.013 534.061 369.828C535.199 369.723 536.335 369.578 537.465 369.397C536.799 368.511 536.153 367.609 535.522 366.697C534.775 365.62 534.049 364.528 533.355 363.419C531.349 360.206 529.678 356.903 528.21 353.417C527.739 352.3 527.303 351.178 526.884 350.053C526.823 349.891 526.763 349.729 526.703 349.566C526.574 349.458 526.445 349.349 526.318 349.238C523.447 346.755 521.04 343.695 519.337 339.905C514.727 329.639 515.478 316.896 518.275 306.236C520.517 297.692 525.465 289.789 532.002 284.42C533.143 282.542 533.897 281.403 534.82 280.444C538.577 276.535 543.82 273.899 548.936 272.295C560.362 268.712 572.807 271.283 582.493 278.105C591.436 284.404 598.437 293.851 602.221 304.358C605.804 314.309 606.503 325.223 603.162 335.318ZM447.522 270.33C461.111 270.214 474.937 274.226 485.964 282.255C496.514 289.938 504.796 301.281 504.786 314.792C504.776 327.947 497.744 340.881 489.945 351.066C481.191 362.5 469.751 368.013 455.367 368.14C447.89 368.207 440.358 367.545 432.935 366.636L428.953 366.134C423.468 365.426 417.927 364.589 412.729 362.704C387.985 353.729 387.219 321.341 396.383 300.638C403.459 284.654 421.368 269.066 439.226 270.937C441.917 270.56 444.68 270.355 447.522 270.33ZM470.473 285.561C453.456 277.923 432.78 280.21 416.273 288.361C409.734 295.495 404.955 304.486 403.021 312.74C400.956 321.551 401.258 331.042 404.363 339.582C408.154 350.007 417.489 352.589 427.559 354.191L431.468 354.805L433.109 355.054C443.003 356.53 453.821 357.678 463.33 355.83C473.927 353.77 480.657 345.209 485.955 336.431L486.202 336.019C491.703 326.822 496.308 315.637 491.694 305.099C487.771 296.142 479.202 289.479 470.473 285.561ZM570.913 288.223C565.073 284.987 558.412 284.399 552.106 286.565C549.393 287.497 547.049 289.007 544.776 290.7L543.869 291.386C541.074 293.532 538.463 294.618 536.366 297.516L536.095 297.905C535.037 299.485 533.186 300.117 531.5 299.907C529.535 305.324 528.724 311.182 528.708 316.949L528.71 317.713L528.72 318.493C528.846 325.309 530.035 333.648 535.398 338.217C540.291 342.383 547.698 343.383 554.311 343.964L559.408 344.389L560.763 344.491C567.733 344.976 575.371 344.81 581.213 340.684C586.301 337.09 588.701 330.99 589.323 324.967C590.794 310.738 583.592 295.248 570.913 288.223ZM443.795 289.537C453.166 284.753 464.423 285.952 472.361 291.948C471.656 292.086 470.962 292.262 470.27 292.609C468.469 293.512 467.351 295.32 466.925 297.244C466.445 299.419 467.572 301.478 469.719 302.164C471.587 302.76 473.802 303.033 475.537 301.898C476.446 301.304 477.081 300.521 477.498 299.535L477.557 299.39L477.63 299.284L477.658 299.234C477.664 299.215 477.632 299.251 477.58 299.332C477.633 299.209 477.682 299.086 477.731 298.961C477.804 298.812 477.874 298.662 477.931 298.507C478.032 298.42 478.124 298.323 478.217 298.226C479.659 300.445 480.791 302.951 481.51 305.739C486.124 323.634 467.204 342.205 450.301 344.063C443.913 344.765 438.088 343.244 433.254 340.246C433.298 340.187 433.347 340.134 433.387 340.072C435.329 340.421 437.647 339.552 438.352 337.386C440.151 331.861 438.306 325.398 432.286 323.593C428.412 322.431 424.448 323.715 421.679 326.363C419.585 321.238 418.836 315.468 419.827 309.689C421.225 301.536 426.143 294.189 433.797 290.797C437.524 289.144 440.736 288.797 443.795 289.537ZM542.482 300.578L542.767 300.129C545.663 295.673 551.198 290.206 556.935 291.709C557.741 291.92 558.531 292.26 559.243 292.701C562.395 292.273 565.695 292.989 568.405 294.656L568.331 294.843C568.319 294.874 568.309 294.906 568.301 294.939C568.054 296.023 568.198 297.025 568.704 298.021C569.253 299.1 570.036 300.123 571.096 300.742C571.823 301.166 572.678 301.389 573.516 301.372C574.745 301.35 575.827 300.809 576.715 299.983C577.198 299.535 577.535 298.878 577.721 298.202C578.159 298.622 578.584 299.09 578.989 299.621C585.64 308.367 584.721 322.421 576.918 330.217C576.603 330.531 576.268 330.815 575.937 331.105C572.769 335.466 567.886 338.426 562.021 339.025C556.591 339.58 551.161 337.974 546.997 334.682C547.332 334.504 547.645 334.273 547.915 333.967C548.626 333.162 549.211 332.368 549.643 331.385C549.751 331.138 549.856 330.889 549.955 330.637L550.1 330.258C550.125 330.189 550.347 329.549 550.288 329.661L550.274 329.687L550.353 329.503C551.098 327.643 550.797 325.516 549.028 324.349L548.833 324.228C548.255 323.891 547.539 323.732 546.814 323.73C545.008 321.519 542.32 321.012 539.797 321.658L539.708 320.944C539.695 320.825 539.683 320.706 539.675 320.586C537.72 314.105 538.663 306.74 542.482 300.578ZM455.685 235.328L456.334 235.227C461.243 234.518 464.58 235.335 467.771 239.529C469.292 241.528 468.823 244.547 467.771 246.59C464.373 253.191 455.025 251.826 448.729 253.137C442.582 254.416 436.45 256.157 430.698 258.691C424.829 261.277 419.32 264.336 413.948 267.829C409.089 270.99 404.682 275.741 399.131 277.58C398.881 277.663 398.58 277.439 398.596 277.174C398.991 270.861 404.264 265.066 408.348 260.57C413.072 255.371 418.817 250.755 424.8 247.085C430.974 243.299 437.648 240.182 444.558 238.008C448.197 236.863 451.92 235.953 455.685 235.328ZM530.461 243.9C536.641 234.863 552.004 236.596 561.069 239.011C572.435 242.037 584.751 248.158 592.721 257.018C599.86 264.955 589.179 275.267 581.151 268.588L579.009 266.811L577.638 265.685C571.475 260.652 565.372 256.096 557.861 252.74C549.055 248.807 540.132 246.891 530.825 244.795C530.459 244.713 530.244 244.217 530.461 243.9Z" fill="black"/>
<path fill-rule="evenodd" clip-rule="evenodd" d="M587.397 178.386C593.177 176.405 597.787 182.416 596.677 187.655C595.367 193.825 588.927 198.777 584.657 203.126C580.177 207.706 575.607 212.196 570.867 216.516C561.817 224.777 552.437 232.556 542.547 239.806L539.523 242.022C530.456 248.655 521.418 255.134 511.707 260.876C506.447 263.976 501.137 266.976 495.757 269.866C493.838 270.896 491.497 272.485 489.088 273.666C497.897 280.466 504.677 290.846 506.147 300.516C509.787 324.536 494.307 346.796 472.466 355.646C461.577 360.056 449.457 361.336 437.817 360.006C425.977 358.655 413.977 355.155 406.287 345.456C399.457 336.846 396.997 325.857 396.507 315.066C396.277 309.946 396.327 304.905 397.407 300.376C392.697 300.416 387.987 300.396 383.317 300.446C371.777 300.556 360.216 300.607 348.667 300.286C336.757 299.946 324.907 299.416 313.037 298.357C307.827 297.886 302.647 297.116 297.466 296.376C292.437 295.666 286.887 295.396 282.187 293.336C281.867 293.206 281.999 292.746 282.277 292.655C287.287 291.036 292.977 291.325 298.197 291.006L303.284 290.698C307.522 290.445 311.757 290.212 316.007 290.075C325.824 289.752 335.634 289.673 345.45 289.505L349.657 289.426C361.207 289.196 372.757 289.066 384.307 288.696C389.097 288.546 393.897 288.266 398.707 288.006C399.267 286.735 400.088 285.575 400.877 284.446C403.237 281.066 406.237 278.086 409.347 275.386C415.716 269.825 422.887 265.696 430.887 262.926C438.814 260.191 450.409 258.834 458.796 259.01C467.183 259.187 479.136 260.37 482.977 267.226C483.377 267.936 490.687 266.566 492.857 264.905C497.927 261.036 502.907 257.056 507.796 252.976C516.877 245.386 526.216 237.916 534.817 229.796C543.687 221.416 552.487 212.896 560.927 204.096C565.167 199.686 569.397 195.266 573.507 190.746C577.707 186.136 581.317 180.456 587.397 178.386Z" fill="black"/>
</svg>
