<svg width="853" height="1193" viewBox="0 0 853 1193" fill="none" xmlns="http://www.w3.org/2000/svg">
<path fill-rule="evenodd" clip-rule="evenodd" d="M335.817 1192.11C275.632 1190.82 220.845 1194.46 162.89 1182.7L162.816 1180.75C150.385 1180.39 154.5 1168.77 156.999 1160.65C-76.895 1150.24 75.664 580.153 237.749 541.822C245.689 540.468 254.315 539.753 263.061 539.667C274.345 536.221 285.465 535.61 297.261 532.467C298.393 528.337 298.578 525.949 303.582 527.172C321.543 510.02 353.861 494.221 364.766 527.691C379.117 507.744 387.347 484.422 393.343 460.803L394.313 460.962C396.861 454.682 401.033 446.736 406.108 445.425C414.018 442.806 428.934 443.41 437.534 442.347C456.18 441.054 477.839 437.885 495.712 442.162C540.375 453.096 521.019 505.82 557.231 540.144C573.849 533.265 599.896 535.151 615.817 543.342C626.07 551.553 620.929 560.81 619.131 569.49C733.488 559.182 763.915 691.818 787.514 779.255C796.982 808.343 806.379 828.063 822.505 850.521C843.453 876.774 855.216 911.154 833.754 938.85C864.394 999.989 831.131 1057.45 795.937 1103.61C789.045 1111 777.866 1131.56 767.765 1132.97C765.024 1135.47 760.646 1138.56 757.557 1140.8L761.282 1145.68C761.727 1150.19 761.756 1155.04 764.84 1159.06C767.807 1161.95 770.979 1164.91 771.067 1169.23C766.339 1174.72 760.233 1168.59 755.746 1165.86C754.026 1169.24 754.273 1177.27 748.762 1176.96C612.11 1186.33 472.159 1192.48 335.817 1192.11" fill="#D08B5B"/>
<path fill-rule="evenodd" clip-rule="evenodd" d="M321.19 918.938C304.591 908.962 285.339 907.335 263.587 913.874L247.181 915.806L247.09 915.817L246.99 915.828L246.896 915.865L246.808 915.9C216.993 927.618 195.863 939.43 183.609 951.393V951.394C174.304 960.479 166.519 977.863 161.809 992.775C159.444 1000.26 157.82 1007.24 157.165 1012.39C156.84 1014.94 156.739 1017.14 156.95 1018.75C157.054 1019.55 157.249 1020.34 157.638 1020.98C158.061 1021.67 158.79 1022.27 159.818 1022.27C161.094 1022.27 162.797 1021.71 164.766 1020.84C166.801 1019.94 169.335 1018.61 172.353 1016.87C178.395 1013.37 186.489 1008.15 196.623 1001.21L196.783 1001.1V1001.1L198.013 1000.25L196.771 1016.21C194.092 1027.67 192.683 1036.38 192.597 1042.28C192.555 1045.22 192.835 1047.63 193.569 1049.35C193.944 1050.24 194.468 1051.02 195.197 1051.57C195.946 1052.15 196.822 1052.42 197.759 1052.42L198.047 1052.42C199.503 1052.36 201.189 1051.85 203.044 1051.02H203.045C205.049 1050.13 207.377 1048.81 210.016 1047.08C215.298 1043.64 221.951 1038.5 229.96 1031.69L229.982 1031.67L229.983 1031.67L230.443 1031.27C233.081 1037.83 236.38 1042.94 240.397 1046.5C244.845 1050.44 250.104 1052.42 256.102 1052.42L256.416 1052.42C259.67 1052.31 263.411 1050.47 267.555 1047.34C271.881 1044.06 276.868 1039.2 282.508 1032.79C293.727 1020.03 307.677 1000.98 324.355 975.676L373.199 959.766L375.769 958.93L373.699 957.192C354.979 941.481 337.476 928.725 321.19 918.938ZM264.323 916.785C285.483 910.395 303.873 912.031 319.643 921.508C335.161 930.834 351.843 942.913 369.69 957.753L322.929 972.988L322.68 973.069L322.43 973.15L322.14 973.589C305.361 999.072 291.401 1018.13 280.255 1030.81C274.679 1037.14 269.844 1041.84 265.745 1044.95C261.725 1047.99 258.612 1049.34 256.321 1049.42L256.102 1049.42C250.827 1049.42 246.278 1047.71 242.386 1044.26C238.462 1040.78 235.14 1035.48 232.488 1028.24L232.117 1027.22L231.746 1026.21L230.925 1026.91L230.105 1027.61L228.013 1029.4C220.045 1036.18 213.504 1041.23 208.377 1044.57C205.813 1046.25 203.631 1047.47 201.823 1048.28C200.218 1048.99 198.999 1049.33 198.116 1049.41L197.759 1049.42C197.433 1049.42 197.21 1049.34 197.022 1049.19H197.023C196.816 1049.04 196.566 1048.74 196.331 1048.18C195.845 1047.04 195.556 1045.14 195.596 1042.32C195.677 1036.75 197.033 1028.26 199.72 1016.79L199.721 1016.78L199.733 1016.73L199.745 1016.67L199.749 1016.62L199.754 1016.56L199.755 1016.56L201.249 997.348V997.347L201.37 995.779L201.491 994.211L198.901 995.997L194.926 998.734C184.815 1005.66 176.794 1010.83 170.85 1014.27C167.877 1015.99 165.449 1017.26 163.555 1018.1C161.891 1018.83 160.78 1019.16 160.124 1019.25C160.059 1019.07 159.982 1018.79 159.926 1018.36C159.765 1017.14 159.826 1015.24 160.14 1012.77L160.268 1011.82C160.965 1007 162.484 1000.6 164.67 993.677C167.005 986.281 170.077 978.376 173.666 971.247C177.259 964.109 181.349 957.794 185.706 953.54C197.495 942.031 218.105 930.418 247.726 918.762L264.061 916.839L264.118 916.834L264.19 916.827L264.261 916.805L264.324 916.786L264.323 916.785ZM195.352 1049.54C195.206 1049.31 195.071 1049.05 194.95 1048.77V1048.77C195.071 1049.05 195.206 1049.31 195.352 1049.54ZM225.678 1033.33C226.748 1032.44 227.846 1031.51 228.971 1030.56L228.966 1030.56L228.963 1030.56C227.84 1031.52 226.745 1032.44 225.678 1033.33ZM198.246 1016.49L198.258 1016.44L198.259 1016.44C197.336 1020.38 196.567 1023.99 195.951 1027.25C196.564 1024 197.328 1020.42 198.246 1016.49ZM231.073 1028.76L231.08 1028.75L231.336 1029.44L231.073 1028.76ZM177.559 1011.98C180.74 1010 184.32 1007.68 188.3 1005.02C184.431 1007.6 180.94 1009.87 177.825 1011.81L177.559 1011.98ZM163.239 993.226C163.092 993.691 162.949 994.154 162.808 994.614L163.239 993.226ZM164.009 990.857C163.744 991.652 163.487 992.442 163.239 993.226C163.488 992.442 163.745 991.651 164.009 990.857ZM650.029 918.567L644.18 917.704L642.027 917.387L642.262 918.45L642.496 919.511L657.54 987.725V987.726L657.677 988.345L657.813 988.963L658.446 988.932L659.08 988.901L696.247 987.039L697.151 986.994L698.056 986.949L697.843 986.068L697.63 985.189H697.631L687.379 942.781L687.378 942.78L687.306 942.486L687.236 942.193L686.981 942.031L686.728 941.869H686.727L650.619 918.788L650.347 918.614L650.029 918.567ZM696.172 985.54L695.96 984.661L696.173 985.54H696.172ZM685.92 943.132H685.921V943.133L685.92 943.132ZM694.289 984.132L660.196 985.84L645.892 920.989L649.273 921.487L684.603 944.071L694.289 984.132ZM372.734 958.34L371.446 958.759L372.733 958.339L372.734 958.34ZM324.14 922.501C323.394 922.038 322.652 921.579 321.911 921.127L321.94 921.145C322.671 921.591 323.404 922.044 324.14 922.501ZM263.891 915.349L263.953 915.331C264.053 915.3 264.154 915.271 264.254 915.241C264.294 915.229 264.335 915.217 264.375 915.205C264.214 915.253 264.053 915.3 263.891 915.349ZM379.362 502.192L371.144 528.156L371.35 528.317L372.935 529.539L374.495 530.719C407.245 555.289 440.7 566.234 474.897 563.721C509.891 561.149 539.368 558.098 563.333 554.569L564.255 554.431V537.874C561.779 538.482 559.423 539.237 557.231 540.144C541.091 524.846 535.99 505.892 531.34 488.613C525.556 467.123 520.469 448.223 495.712 442.162C481.149 438.677 464.072 440.136 448.159 441.495C444.543 441.804 440.987 442.108 437.534 442.347C434.481 442.724 430.632 442.892 426.583 443.068C419.227 443.387 411.21 443.736 406.108 445.425C401.033 446.736 396.861 454.682 394.313 460.962L393.343 460.803C389.758 474.925 385.374 488.94 379.362 502.192ZM567.255 537.219V557.018L566.616 557.114L565.976 557.209H565.975L563.774 557.538L563.72 557.545H563.718C539.666 561.085 510.129 564.14 475.117 566.713C438.962 569.37 403.765 557.315 369.569 530.731L369.566 530.73L369.508 530.684L368.478 529.878L367.658 529.238L367.815 528.741L367.972 528.245L371.317 517.674C369.285 521.094 367.107 524.437 364.766 527.691C353.861 494.221 321.543 510.02 303.582 527.172C298.966 526.044 298.451 527.988 297.51 531.539C297.431 531.837 297.349 532.147 297.261 532.467C291.805 533.921 286.493 534.833 281.242 535.734C275.142 536.782 269.125 537.815 263.061 539.667C254.315 539.753 245.689 540.468 237.749 541.822C75.6641 580.153 -76.8949 1150.24 156.999 1160.65C156.901 1160.97 156.801 1161.29 156.699 1161.62C154.203 1169.67 150.873 1180.41 162.816 1180.75L162.89 1182.7C206.799 1191.61 248.889 1191.68 292.886 1191.75C306.961 1191.78 321.23 1191.8 335.817 1192.11C472.159 1192.48 612.11 1186.33 748.762 1176.96C752.703 1177.18 753.699 1173.14 754.576 1169.58C754.926 1168.17 755.256 1166.83 755.746 1165.86C756.536 1166.34 757.376 1166.93 758.249 1167.54C762.34 1170.39 767.171 1173.75 771.067 1169.23C770.982 1165.04 767.984 1162.12 765.092 1159.3L764.84 1159.06C762.14 1155.54 761.782 1151.39 761.436 1147.38C761.387 1146.81 761.338 1146.24 761.282 1145.68L757.557 1140.8C757.941 1140.52 758.346 1140.23 758.764 1139.92C761.71 1137.8 765.365 1135.16 767.765 1132.97C774.924 1131.97 782.625 1121.35 788.958 1112.62C791.559 1109.03 793.93 1105.76 795.937 1103.61C831.131 1057.45 864.394 999.989 833.754 938.85C855.216 911.154 843.453 876.774 822.505 850.521C806.379 828.063 796.982 808.343 787.514 779.255C786.54 775.646 785.554 771.96 784.552 768.211C761.26 681.113 728.768 559.607 619.131 569.49C619.444 567.978 619.859 566.449 620.276 564.911C622.253 557.617 624.284 550.123 615.817 543.342C602.83 536.66 583.104 534.174 567.255 537.219ZM506.137 562.671L506.224 562.664C507.211 562.574 508.192 562.483 509.168 562.393C508.163 562.486 507.153 562.579 506.137 562.671ZM463.331 565.556C463.223 565.554 463.115 565.552 463.007 565.55C463.06 565.551 463.113 565.552 463.167 565.553C463.222 565.554 463.276 565.555 463.331 565.556ZM475.007 565.217C477.075 565.065 479.125 564.911 481.155 564.756C479.125 564.911 477.076 565.065 475.008 565.217C475.007 565.217 475.007 565.217 475.007 565.217ZM563.553 556.053C563.553 556.053 563.553 556.053 563.554 556.053H563.553Z" fill="#EC7495"/>
<path fill-rule="evenodd" clip-rule="evenodd" d="M390.673 461C401.539 475.148 383.834 518.409 375.686 533.415C431.394 556.675 493.561 566.816 553.067 553.607C537.612 538.823 520.535 491.58 533.258 474.974L533.841 477.963C538.155 499.927 543.431 522.713 559.274 539.514C581.708 533.56 636.25 534.094 627.318 569.477C765.806 569.802 766.956 737.376 813.129 830.877C835.282 866.588 869.583 903.221 840.863 946.131C846.507 959.665 850.44 974.015 851.903 988.59C856.414 1036.15 827.311 1076.86 801.072 1113.77C791.828 1123.91 784.095 1140.9 770.658 1145.24C769.278 1146.43 767.841 1147.55 766.368 1148.62C769.036 1152.51 766.872 1158.69 769.997 1162.09L771.217 1163.27C773.267 1165.28 776.083 1168.27 776.645 1170.93L776.911 1173.24C777.025 1174.14 777.05 1174.09 776.984 1173.09L776.946 1172.77C776.904 1172.34 776.967 1172.37 777.133 1172.88L777.205 1173.1C778.612 1177.14 775.646 1181.76 771.596 1182.83C759.54 1189.29 746.723 1170.38 750.758 1157.73C683.906 1186.56 545.048 1134.41 477.874 1108.56C465.037 1103.41 452.869 1096.72 439.887 1091.98L438.92 1091.51C423.938 1084.14 409.001 1073.44 391.429 1077.72C317.5 1109.38 248.755 1162.09 166.801 1172.49C179.621 1196.97 141.892 1200.25 149.451 1172.9C-73.5709 1143.97 65.4031 664.656 183.874 572.071C221.59 536.149 246.964 544.385 292.79 534.015C293.843 530.155 297.707 526.918 301.798 527.467C318.084 511.979 351.809 496.89 365.725 522.047C374.236 508.748 380.154 493.973 384.292 478.776C385.941 472.741 386.527 465.846 390.673 461ZM303.367 1179.29C291.476 1169.87 309.543 1155.02 319.837 1161.01C323.016 1164.9 312.03 1161.01 313.404 1169.63C315.406 1175.36 309.43 1182.98 303.367 1179.29ZM546.071 1167.6C537.61 1151.67 545.038 1144.57 557.747 1156.97C569.35 1165.73 553.785 1179.95 546.071 1167.6ZM428.224 1166.11C416.292 1159.7 413.324 1130.45 432.692 1144.51C449.924 1150.64 445.19 1172.56 428.224 1166.11ZM294.418 542.469C270.561 549.064 243.944 546.222 222.063 559.882C168.536 593.575 137.753 651.659 114.597 708.7L113.897 710.429C66.9091 826.114 29.3011 960.609 68.8401 1083.53C88.8101 1139.45 137.967 1163.43 193.917 1144C334.336 1098.52 451.681 989.171 601.011 970.545C603.116 953.258 598.338 936.22 592.239 920.059C500.628 923.874 412.798 953.533 325.01 977.407C319.898 999.801 294.353 1025.88 279.048 1043.26C265.221 1061.76 231.018 1067.34 226.811 1038.88L226.138 1039.64C214.857 1052.29 190.108 1074.22 182.51 1046.91C180.799 1032.59 189.977 1020.2 194.491 1007.17L194.014 1007.52C185.672 1013.76 151.149 1043.18 148.747 1023.59C148.901 1005.13 154.746 986.956 165.349 971.833C176.002 957.868 189.091 944.723 203.348 934.4C204.1 930.02 205.468 925.786 206.493 921.454C204.928 905.165 211.351 889.875 213.035 873.925C216.919 858.961 217.766 830.944 228.601 820.417C236.918 829.276 228.678 863.06 228.252 875.984C225.282 891.693 226.567 907.746 220.874 923.022C236.932 914.241 254.334 909.785 271.819 909.034C273.6 874.735 322.156 886.713 344.645 889.374C378.972 877.168 523.096 881.444 546.924 907.102C558.819 905.721 570.192 904.634 582.266 903.805C596.309 894.873 635.048 898.529 641.02 916.094C656.635 920.717 670.201 928.601 683.895 937.607C688.134 867.718 669.592 798.873 674.107 728.88C674.514 724.813 676.395 721.287 676.317 717.152C676.308 716.661 677.023 716.68 677.067 717.152C683.812 737.587 685.095 759.4 688.886 780.592C693.88 817.553 702.654 854.087 705.564 891.282C706.831 922.539 701.753 955.97 714.221 985.602C715.997 989.82 713.067 996.69 708.976 998.494C674.809 1012.84 635.058 1002.53 603.856 985.036C537.372 1006.32 472.332 1031.6 411.084 1065.35C422.871 1068.45 433.472 1075.35 444.143 1081.08C459.334 1086.34 474.421 1091.89 489.597 1097.2C564.702 1119.9 643.301 1150.39 722.652 1145.76C747.047 1141.6 758.019 1131.15 772.501 1112.48L774.89 1109.38C800.763 1075.91 830.335 1040.47 834.671 997.059C835.659 982.968 834.321 968.95 833.505 954.911C830.019 958.478 826.278 961.811 822.658 965.261C817.634 970.048 811.212 964.012 813.677 958.332C819.008 942.192 828.402 926.963 830.027 909.88C830.301 893.812 819.769 879.518 810.464 867.304C738.06 778.197 769.642 591.092 626.237 572.925C565.046 701.603 356.395 648.11 296.222 545.635L294.418 542.469V542.469ZM133.706 1084.86C134.31 1067.32 162.228 1090.15 159.65 1099.73C158.086 1112.96 142.041 1106.78 138.408 1097.84C136.153 1093.76 134.254 1089.51 133.706 1084.86ZM686.501 1066.81C690.526 1059.47 714.499 1080.58 702.073 1087.51C693.659 1091.95 690.438 1081.55 688.611 1075.31C687.614 1072.7 685.724 1069.69 686.501 1066.81ZM276.481 1076.44C261.382 1067.48 294.434 1055.41 295.675 1070.03C296.16 1079.94 282.771 1079.42 276.481 1076.44ZM557.088 1037.85C564.672 1027.73 564.852 1063.55 560.355 1065.99C558.279 1069.26 553.626 1068.49 552.387 1064.94C549.2 1055.82 553.998 1046.43 557.088 1037.85ZM198.252 1044.15L198.088 1044.76C197.246 1048.05 199.226 1043.71 198.463 1044.35C198.395 1044.28 198.323 1044.22 198.252 1044.15ZM362.19 958.487C327.643 919.148 265.327 909.386 218.759 932.724C211.899 934.734 205.88 940.365 199.704 944.047C201.255 943.486 202.826 943.012 204.412 942.609C183.956 960.02 166.543 983.866 163.399 1011.02C182.048 999.483 198.431 985.03 211.354 966.97C215.603 959.556 227.807 964.649 225.209 972.809C216.824 995.857 203.994 1018.1 198.622 1041.92C218.72 1027.37 233.552 1005.96 241.891 982.71C245.397 972.738 261.003 976.795 257.891 987.12C253.773 1000.79 249.379 1014.41 245.472 1028.14L244.419 1031.89C243.109 1036.62 242.34 1040.94 247.955 1042.24C266.05 1043.41 290.307 1003.42 301.09 989.802C306.381 983.358 311.06 969.376 321.05 971.413C333.486 963.283 348.482 962.33 362.19 958.487ZM760.519 1021.4C762.583 1019.61 765.114 1018.37 767.854 1019.28L768.12 1019.38C776.402 1022.27 769.982 1033.61 762.88 1029.62C760.467 1027.81 757.846 1026.29 754.968 1025.3C753.243 1023.52 759.489 1022.72 760.519 1021.4ZM375.073 988.316C377.511 976.888 400.088 992.427 392.053 1000.48C384.428 1006.31 375.724 995.626 375.073 988.316ZM103.095 989.91C124.29 976.112 126.844 1009.53 95.5037 999.764C92.9257 995.864 100.504 992.041 103.095 989.91ZM645.623 921.141C657.205 934.999 661.777 953.108 663.829 970.694C664.296 974.152 665.116 977.971 664.947 981.54C672.854 982.701 680.996 983.003 688.734 981.448C686.825 974.579 685.644 967.505 684.926 960.372C674.48 944.795 662.471 930.17 645.623 921.141ZM614.724 965.219C614.759 967.125 614.696 969.04 614.542 970.964C624.784 972.167 634.873 974.737 644.897 977.237L644.832 974.193C644.81 973.17 644.785 972.146 644.751 971.137C634.843 973.808 622.67 971.042 614.724 965.219ZM641.331 941.708C629.89 937.077 619.404 934.181 607.1 934.954C610.739 942.778 613.368 950.976 614.329 959.397C619.339 960.817 625.016 961.218 629.854 960.968C634.762 960.716 639.292 958.357 643.961 958.251C643.43 952.699 642.642 947.137 641.331 941.708ZM532.5 945.616C539.738 942.722 550.396 950.699 542.457 956.95C536.677 960.876 528.77 955.611 524.078 952.024C521.492 949.054 530.239 946.155 532.5 945.616ZM389.036 919.018C385.901 928.66 365.272 924.426 355.821 929.619L356.657 930.101C365.738 935.392 375.598 942.91 377.287 952.467C389.31 947.773 401.431 943.331 413.62 939.13C406.397 931.06 398.097 924.414 389.036 919.018ZM529.149 909.565C474.885 890.109 415.743 890.679 358.819 892.491L360.316 892.941C384.857 900.387 413.591 911.955 426.382 934.845C459.913 923.909 494.223 914.854 529.149 909.565ZM634.796 924.926C626.447 910.141 610.192 903.53 594.288 904.641L591.782 905.051V905.051C593.513 905.658 595.141 906.516 596.604 907.735C599.216 909.911 599.172 914.694 596.863 917.085C599.792 921.426 602.542 925.953 604.971 930.629C613.739 924.512 624.254 923.63 634.796 924.926ZM781.397 925.25C762.402 936.398 748.653 884.2 772.593 895.412L774.3 897.241C781.235 904.727 791.957 917.38 781.397 925.25ZM335.981 900.809C329.914 905.733 322.85 909.304 316.706 914.177C326.807 916.735 336.735 920.13 346.129 924.596C353.783 918.033 362.988 913.855 372.734 910.909C361.045 906.068 348.516 902.837 335.981 900.809ZM87.2436 901.909L87.3329 901.672C90.2739 893.413 108.023 881.163 116.84 884.371C117.252 884.351 117.66 884.754 117.636 885.168L117.78 886.191C118.276 889.822 118.532 893.377 116.136 896.615C111.845 903.531 107.748 912.148 99.4949 914.844C91.3621 917.423 84.3955 909.71 87.2436 901.909V901.909ZM315.753 898.465L313.042 898.321C300.592 897.627 282.665 896.494 276.585 908.913C287.085 908.841 297.765 909.992 308.357 912.245C309.942 907.472 312.543 902.674 315.753 898.465ZM383.757 845.706C381.862 842.09 388.89 846.054 390.523 845.498C393.556 845.684 396.295 846.307 398.011 849.035C400.76 853.41 395.419 858.1 391.212 855.834C387.152 853.591 388.128 847.74 383.757 845.706ZM622.284 825.47L622.543 825.444C626.739 824.977 644.717 820.885 644.67 825.331L644.326 825.814C638.672 833.871 631.301 849.731 619.798 844.077C612.408 839.868 613.891 827.292 622.284 825.47ZM497.071 824.813C500.39 818.696 507.501 832.899 509.616 835.426C512.626 842.166 503.942 847.422 499.659 841.246C497 836.429 495.817 830.221 497.071 824.813ZM185.663 810.778C190.431 808.363 202.489 808.146 199.188 816.297C192.756 824.826 180.958 820.698 173.753 815.235C170.069 810.996 183.373 812.72 185.663 810.778ZM301.575 779.135C301.143 773.027 307.956 770.843 312.549 772.838C320.745 776.399 327.097 789.498 324.503 797.97C322.415 806.374 309.695 808.234 305.653 800.434C303.329 793.232 303.016 786.356 301.575 779.135ZM723.747 790.537C733.161 788.544 743.032 782.235 752.701 784.012C755.715 785.145 756.81 788.573 754.561 791.062C753.29 796.803 718.45 795.525 723.747 790.537ZM451.579 768.624C455.585 761.355 464.792 753.643 473.627 754.274C479.046 754.094 481.163 761.887 476.389 764.474L476.23 764.541C473.233 765.737 450.503 771.57 451.579 768.624ZM576.693 756.907C563.135 754.963 563.215 722.354 571.289 728.722C574.041 736.719 581.029 741.484 585.025 748.575C587.045 753.438 581.21 758.283 576.693 756.907ZM165.052 749.69C170.813 750.572 200.729 732.378 195.247 746.94C191.68 751.022 187.164 751.12 182.102 751.497L181.964 751.483C179.368 751.316 160.498 753.556 165.052 749.69ZM371.96 720.076C365.974 719.382 344.201 673.892 354.85 676.757L356.475 677.822C368.274 685.611 381.284 695.567 386.549 708.861C388.623 716.786 379.367 725.149 371.96 720.076ZM505.885 701.363C506.747 700.972 507.508 702.198 506.642 702.659C502.944 704.622 498.928 708.778 496.604 712.285C488.646 722.238 479.232 704.65 491.463 703.328C495.925 703.649 501.791 703.218 505.885 701.363ZM251.929 646.297C262.971 643.453 268.31 658.013 259.406 664.033C254.953 667.851 213.118 679.803 210.613 675.006C215.861 666.473 242.083 649.291 251.929 646.297ZM666.701 648.336C697.27 645.834 698.091 640.24 676.5 665.168C663.753 676.356 650.836 653.436 666.701 648.336ZM523.62 573.825C513.018 574.725 502.372 574.995 491.743 574.651C493.381 578.158 491.961 583.261 487.309 582.553C485.121 596.75 484.126 611.175 481.364 625.276C480.639 628.573 479.612 631.775 478.63 634.991C498.87 636.485 519.412 635.647 539.139 630.639C531.811 612.279 528.631 592.848 523.62 573.825ZM438.112 567.771C438.016 569.255 437.595 570.723 436.9 571.963C427.744 587.824 419.706 604.374 410.028 619.899C430.914 627.636 452.862 632.681 475.007 634.675C471.661 614.477 474.63 593.878 473.937 573.51C461.892 572.354 449.92 570.43 438.112 567.771ZM572.232 565.43C561.637 568.281 550.857 570.42 539.995 571.95C540.038 573.658 539.055 575.252 537.536 575.889C539.916 593.62 544.606 611.065 544.674 629.139C567.314 623.592 585.212 608.185 600.061 590.809L596.686 588.349C587.662 581.743 578.556 574.694 572.232 565.43ZM363.549 525.35C350.416 517.291 332.235 520.724 321.599 531.219C316.886 535.422 312.795 541.104 307.428 544.406C306.759 544.817 306.073 545.097 305.384 545.273C309.081 552.263 314.731 558.964 319.507 564.729C345.117 587.091 373.947 605.871 405.633 618.227C406.93 599.217 413.508 580.755 421.026 563.289C414.018 561.177 407.109 558.746 400.324 555.995C399.46 560.566 395.175 564.096 392.465 567.644C386.316 574.845 382.218 583.65 376.363 590.976C369.841 597.811 358.76 589.094 363.447 581.011C371 569.983 380.761 560 392.101 552.491C384.626 549.137 377.498 545.19 370.604 540.774C370.312 541.078 370.011 541.368 369.706 541.648C369.245 538.802 365.328 539.551 363.245 540.017C361.761 538.76 359.747 540.343 358.094 540.755C357.852 540.315 357.649 539.85 357.505 539.362C349.016 547.747 342.631 561.026 331.678 566.033C327.166 567.278 321.934 562.798 323.654 558.01C326.551 550.658 350.055 535.055 357.819 530.932C356.12 528.46 357.479 527.239 360.233 527.606C360.706 527.014 361.431 526.831 362.186 527.333C362.665 526.689 363.114 526.023 363.549 525.35ZM193.284 599.207C198.607 599.233 204.892 597.014 209.671 600.088C216.699 608.132 199.282 610.897 192.456 601.208C191.792 600.473 192.228 599.202 193.284 599.207ZM586.011 549.652C587.532 551.445 588.048 554.061 587.493 556.411C594.153 566.58 597.812 578.092 601.159 589.528L602.096 588.365C617.27 569.401 625.875 552.207 592.526 550.335C590.358 550.028 588.184 549.8 586.011 549.652ZM268.227 576.335C240.679 556.215 299.955 567.207 282.878 579.506C277.623 581.414 272.585 579.291 268.227 576.335Z" fill="black"/>
<path fill-rule="evenodd" clip-rule="evenodd" d="M474.282 105.173C624.795 109.939 633.873 181.43 633.873 301.325C633.873 421.22 555.794 496.771 527.044 509.964C498.294 523.156 422.59 579.821 354.273 553.708C285.955 527.595 305.739 417.272 305.739 369.87C305.739 322.467 323.769 100.408 474.282 105.173Z" fill="#D08B5B"/>
<path fill-rule="evenodd" clip-rule="evenodd" d="M328.805 295.445C359.926 168.547 416.738 106.634 499.241 109.706C622.995 114.315 621.69 240.451 613.926 228.95C608.854 221.436 573.34 195.187 507.384 150.203L503.308 147.426L328.805 295.445Z" fill="#9FD8E5"/>
<path fill-rule="evenodd" clip-rule="evenodd" d="M535.342 470.587C507.702 486.017 476.053 486.617 446.322 476.907C428.492 471.098 412.143 462.117 396.842 451.377C383.532 442.027 371.652 431.657 359.882 420.646C350.192 399.277 341.563 377.947 337.522 354.697C333.902 333.827 333.422 312.157 337.622 291.327C368.683 265.777 399.553 240.017 430.382 214.178C446.082 201.017 461.822 187.928 477.752 175.047C485.842 168.507 493.853 161.867 501.912 155.297C503.242 154.217 504.563 153.137 505.893 152.057C522.532 164.237 540.372 174.678 556.893 187.057C565.542 193.547 573.952 200.457 581.962 207.726C586.162 211.537 590.263 215.467 594.263 219.497C597.922 223.178 601.452 228.457 606.643 229.848C607.353 230.037 608.022 230.077 608.652 229.987C615.592 290.747 620.522 356.357 590.792 411.537C577.822 435.607 559.433 457.127 535.342 470.587ZM355.533 492.918C351.727 489.431 357.399 483.788 361.189 487.26C384.995 509.066 416.117 520.625 447.553 525.975C452.625 526.84 450.462 534.547 445.426 533.689C412.605 528.103 380.347 515.647 355.533 492.918ZM326.967 526.375C322.423 523.937 326.468 517.034 331.004 519.467C349.551 529.414 369.894 534.582 390.528 538.072C395.603 538.93 393.438 546.637 388.402 545.786C367.067 542.178 346.132 536.653 326.967 526.375ZM402.452 189.348C417.842 175.537 434.382 162.396 451.853 151.307C469.532 140.087 488.842 133.377 509.712 133.217C508.252 134.387 506.862 135.687 505.452 136.896C501.513 140.267 497.582 143.657 493.652 147.037C485.792 153.807 477.912 160.566 470.152 167.447C454.872 181.007 439.542 194.497 424.292 208.087C394.982 234.207 366.303 260.896 338.242 288.357C338.393 287.687 338.553 287.017 338.712 286.348C348.002 247.547 373.272 215.537 402.452 189.348ZM523.092 134.907C523.192 134.607 523.263 134.316 523.303 134.037C563.353 139.257 596.803 168.726 607.862 207.527C606.902 208.867 606.372 210.457 606.572 212.146C606.672 212.997 606.772 213.857 606.872 214.707C605.502 213.348 604.092 212.077 602.893 210.867C598.902 206.827 594.813 202.896 590.612 199.066C582.022 191.237 573.103 183.917 563.702 177.087C547.353 165.207 529.652 154.287 510.162 148.587C511.442 147.537 512.723 146.487 514.013 145.447C517.862 142.316 521.433 139.737 523.092 134.907ZM594.893 93.4168C570.303 66.5468 536.252 46.8668 500.393 40.0268C466.152 33.4868 430.702 37.7968 398.353 50.5068C330.662 77.1068 277.252 135.598 252.242 203.377C237.662 242.867 232.882 286.157 237.263 327.957C241.622 369.566 254.152 412.537 276.952 447.937C279.042 451.178 281.332 454.287 283.732 457.297C282.662 469.517 278.582 481.497 272.162 491.917C271.817 492.475 271.453 493.023 271.093 493.572C264.519 498.495 257.7 503.115 251.043 507.884C245.274 512.016 239.564 516.255 234.139 520.832C229.018 525.153 223.071 529.965 219.604 535.797C216.763 540.574 215.603 547.069 219.481 551.625C224.154 557.113 232.072 555.178 238.402 555.178C238.944 555.178 239.485 555.19 240.026 555.196C241.927 556.391 243.885 557.471 245.782 558.476C264.952 568.637 284.192 578.687 303.452 588.687C341.813 608.617 380.013 629.348 419.162 647.697C437.303 656.207 456.723 663.646 477.042 663.617C496.103 663.587 513.332 656.017 528.212 644.507C545.172 631.396 559.353 614.747 573.112 598.428C578.612 591.896 584.002 585.287 589.292 578.587C599.452 575.197 609.532 574.207 618.592 580.747C625.862 585.997 635.442 578.857 635.612 570.976C635.672 568.178 635.553 565.417 635.252 562.697C633.433 545.896 625.212 530.697 615.952 516.598C610.893 508.887 605.563 501.316 600.202 493.816C598.942 492.047 597.702 490.277 596.502 488.476C618.032 456.777 635.112 421.627 645.612 384.896C656.643 346.247 660.393 306.167 657.933 266.117C654.152 204.737 637.313 139.777 594.893 93.4168Z" fill="black"/>
<path fill-rule="evenodd" clip-rule="evenodd" d="M525.735 400.81C526.429 400.622 527.04 401.554 526.465 402.064C524.111 404.153 522.616 408.045 520.898 410.698C519.264 413.222 517.689 415.72 516.252 418.362C514.641 421.323 513.085 424.273 511.831 427.406L511.583 428.038V428.038C511.959 428.932 512.252 429.814 512.469 430.392L512.531 430.556C514.673 436.026 510.177 442.105 505.106 443.634C496.432 446.249 488.99 439.126 488.783 430.655C488.62 423.991 493.137 418.053 497.727 413.648C501.742 409.795 506.238 406.515 511.267 404.112C513.486 403.053 515.791 402.167 518.2 401.653C520.664 401.128 523.322 401.462 525.735 400.81ZM509.387 424.96C510.023 425.26 510.566 425.993 511.023 426.849C510.795 426.123 510.324 425.401 509.387 424.96ZM514.814 332.367C522.366 336.957 533.872 347.66 525.748 359.04C516.186 369.073 502.418 357.569 495.634 352.366C489.343 348.334 482.275 358.705 488.112 363.413C537.136 399.708 557.031 333.567 518.634 326.97C514.406 326.243 512.836 330.947 514.814 332.367ZM452.741 288.292L454.075 288.18C459.862 287.67 465.722 286.893 471.429 288.202C479.096 289.962 478.534 301.116 471.429 303.167C465.167 304.974 458.228 304.192 451.764 304.254C450.747 304.264 449.732 304.29 448.716 304.307C448.516 306.724 447.723 308.808 446.509 310.89C445.639 312.384 444.529 313.803 443.437 315.13C440.841 318.284 434.718 318.213 432.098 315.13C430.16 312.848 428.617 310.223 428.592 307.134C428.586 306.343 428.682 305.503 428.871 304.677L425.343 304.739C416.708 304.871 408.007 304.812 399.528 303.44C396.512 304.064 394.044 298.622 398.207 296.993C409.524 292.567 422.167 291.264 434.176 289.935C440.347 289.251 446.552 288.78 452.741 288.292ZM549.153 283.719L549.46 283.688C556.949 282.921 565.204 281.593 572.708 282.357C583.912 283.496 583.893 298.642 572.708 299.775C568.602 300.191 564.276 299.989 559.962 299.591C562.167 304.269 559.551 309.856 554.238 310.57C549.301 311.233 544.184 306.435 545.804 301.289L545.879 301.062C546.195 300.169 546.479 299.171 546.816 298.186L545.03 298.035C539.689 297.563 532.276 296.599 530.31 292.382C529.717 291.111 529.854 289.931 530.767 288.845C534.511 284.389 543.74 284.242 549.153 283.719V283.719ZM469.517 249.041C474.937 247.072 480.57 251.68 481.273 256.873C482.082 262.857 477.766 266.797 472.295 267.511L472.021 267.545C459.945 268.875 447.96 271.307 435.868 272.682C430.376 273.305 424.843 273.716 419.314 273.863L415.363 273.952C410.522 274.074 405.329 274.185 400.859 272.518L400.876 272.488V272.488C399.689 272.144 399.143 270.432 400.464 269.496C405.223 266.131 411.638 264.859 417.178 263.26C422.748 261.651 428.359 260.168 433.985 258.775C445.799 255.853 458.071 253.199 469.517 249.041ZM519.503 250.439C520.939 242.868 531.664 242.056 535.603 247.565C538.149 248.439 541.882 249.351 544.195 250.037C548.225 251.232 552.258 252.42 556.3 253.571C564.67 255.955 572.838 258.977 581.067 261.794C581.915 262.085 581.682 263.161 580.867 263.268C569.382 264.763 558.089 265.459 546.534 264.979L544.165 264.873C533.983 264.476 516.698 265.233 519.503 250.439Z" fill="black"/>
<path fill-rule="evenodd" clip-rule="evenodd" d="M611.267 319.081C602.087 330.55 566.151 343.281 547.024 329.461C527.898 315.641 520.339 306.01 517.783 288.742C517.51 286.901 514.181 285.676 512.774 286.983C504.892 294.303 499.791 303.627 494.737 312.974C489.036 323.516 483.421 334.123 473.062 341.26C454.714 351.095 421.52 352.496 411.713 348.157C392.927 339.847 378.067 322.073 374.687 297.613C374.687 297.613 371.25 286.763 368.239 284.48C365.384 282.316 349.632 280.388 347.906 280.068C316.807 274.297 277.475 270.619 249.776 290.92C246.027 293.186 233.195 301.699 233.005 299.605C232.871 291.406 242.162 272.849 263.294 264.019C289.426 253.099 328.271 252.46 350.775 254.87C351.906 254.991 355.765 254.043 356.037 253.925C390.131 239.164 429.359 243.085 465.839 249.289C471.067 250.303 517.863 261.89 536.478 254.87C567.254 242.306 600.067 233.204 633.302 236.785C633.58 236.815 637.775 262.281 634.507 264.019C631.906 265.401 627.48 268.944 625.908 270.883C624.502 272.616 623.617 274.771 623.695 277.756C624.327 295.025 619.4 308.92 611.267 319.081ZM484.728 303.672C488.631 298.027 489.862 285.346 488.228 276.095C487.401 271.411 485.795 267.682 483.779 265.826C482.439 264.592 480.91 264.012 479.243 264.098C478.329 264.145 477.338 264.405 476.29 264.971C462.097 257.293 444.903 254.529 428.604 255.324C415.629 255.321 406.372 258.384 400.094 263.151C392.541 268.887 389.137 277.133 388.941 286.076C388.707 296.688 393.066 308.297 400.217 317.483C407.061 326.275 416.424 332.793 426.581 334.297C438.112 336.586 449.862 334.372 460.079 328.955C470.557 323.399 479.408 314.477 484.728 303.672ZM598.507 309.659C605.084 301.887 609.457 291.777 610.123 281.759C610.728 272.643 608.287 263.612 601.538 256.15C595.418 250.897 584.606 250.81 573.231 253.735C558.523 257.517 543.307 265.969 538.235 271.428C537.04 272.054 535.931 273.145 534.965 275.485L534.958 276.319C533.422 283.406 534.333 290.597 536.991 297.231C539.879 304.437 544.831 310.979 550.868 315.971C558.89 322.578 567.264 324.601 575.102 323.534C583.979 322.326 592.235 317.071 598.507 309.659Z" fill="#EC7495"/>
<path fill-rule="evenodd" clip-rule="evenodd" d="M535.419 252.063C566.584 239.339 599.897 230.168 633.623 233.802C636.412 232.741 639.874 233.635 641.11 237.579C653.123 274.174 626.334 263.997 626.694 277.677C629.502 354.38 526.407 367.479 514.815 289.181L514.602 289.307V289.307C497.924 304.87 494.411 330.195 474.764 343.73C435.131 372.715 378.949 349.75 371.733 298.15L371.576 297.452C369.154 286.922 366.258 284.311 354.311 284.362L352.424 283.987C321.385 277.872 280.052 272.377 251.463 293.407C245.245 297.023 244.953 306.319 239.699 310.358C233.943 311.476 230.397 304.553 230.007 299.762C229.095 251.999 314.565 248.563 352.843 252.662C353.574 251.905 355.135 251.999 355.661 252.942C390.279 237.954 429.28 240.028 466.346 246.331C489.307 250.776 511.985 260.901 535.419 252.063ZM630.521 242.62C611.819 241.685 594.521 242.708 576.165 247.203C566.491 249.537 559.067 252.488 549.807 256.037C492.049 281.626 485.387 236.141 355.919 253.971C357.594 261.145 357.902 268.248 357.992 274.988C384.427 273.923 378.204 299.165 388.107 316.895L388.412 317.429C402.846 343.297 436.906 355.363 464.381 338.205C487.303 324.845 489.539 290.96 512.361 277.512C532.144 276.734 524.242 303.434 535.008 314.408C550.162 334.629 582.373 337.456 601.375 318.436C610.29 309.284 615.028 297.664 615.29 285.18C615.787 277.204 614.419 269.099 620.449 263.489C624.676 259.195 632.186 260.628 633.048 254.137C633.596 250.299 632.001 246.136 630.521 242.62ZM427.28 253.075C445.857 252.16 465.513 255.386 481.464 264.497C493.271 255.101 496.164 292.443 488.327 303.244C477.036 326.346 450.749 341.535 425.438 336.491C385.952 330.769 358.44 253.006 427.28 253.075ZM480.33 267.001L479.32 266.853C462.207 264.242 415.612 252.145 397.641 271.238C380.2 302.907 424.447 356.101 470.492 313.731C483.307 300.684 488.274 284.863 480.33 267.001ZM534.559 271.048C543.421 260.555 588.586 239.301 604.329 252.94C633.062 285.141 587.495 350.274 549.329 318.541C536.617 307.934 528.254 291.034 531.914 274.669L531.92 273.983C531.928 273.735 531.974 273.791 532.24 273.481C532.711 272.244 533.559 271.454 534.559 271.048ZM603.928 290.565C613.618 238.008 573.119 257.988 539.859 272.016C541.644 273.647 541.636 275.874 541.123 277.704C537.615 316.7 585.012 338.798 603.928 290.565ZM352.171 255.216C338.298 259.914 246.537 251.512 238.06 294.526C247.008 280.029 265.54 274.276 282.2 271.154C304.861 266.907 327.398 269.366 349.741 273.835L350.203 269.211C350.698 264.307 351.221 259.718 352.171 255.216Z" fill="black"/>
</svg>
