<svg width="1166" height="1218" viewBox="0 0 1166 1218" fill="none" xmlns="http://www.w3.org/2000/svg">
<path fill-rule="evenodd" clip-rule="evenodd" d="M1105.74 768.357C1115.98 763.01 1125.99 757.201 1135.83 751.155C1142.76 747.008 1136.62 736.562 1129.51 740.336C1125.88 742.267 1122.26 744.217 1118.62 746.135C1121.48 743.672 1124.14 740.99 1126.51 738.067L1126.35 737.904C1135.51 729.693 1123.74 714.201 1113.32 720.946C1104.13 727.608 1094.85 734.406 1084.3 738.793C1062.45 748.059 1038.35 749.592 1014.89 749.86C1006.31 749.215 998.114 750.702 989.786 752.359C993.051 739.261 1001.22 729.37 1005.56 716.684C1008.75 703.876 990.266 695.151 983.714 707.463C982.106 710.486 980.573 713.544 979.074 716.618C964.912 729.499 941.264 728.364 926.981 742.195C918.845 749.416 914.864 759.213 913.291 769.047C912.223 775.724 913.883 782.418 909.846 788.332C890.327 815.94 859.485 859.578 843.822 889.961C832.732 817.763 803.121 728.463 772.53 662.446C762.414 641.333 750.841 620.703 735.649 602.807C737.371 596.839 731.293 586.245 727.428 589.506C715.531 574.973 694.501 571.21 677.591 563.985C654.764 554.224 635.825 533.936 626.515 510.876C614.553 466.964 585.106 461.386 544.267 463.327C505.183 463.278 476.266 479.995 467.738 519.781C450.413 549.978 409.507 544.984 380.078 552.979C358.51 557.906 337.579 565.523 317.687 575.194C295.558 554.203 216.303 642.298 209.099 664.97C213.34 665.792 217.555 666.781 221.732 667.987C225.452 669.063 223.89 674.682 220.138 673.782C215.469 672.661 210.77 671.889 206.049 671.353C205.905 671.804 205.779 672.253 205.685 672.697C205.155 672.661 204.626 672.616 204.096 672.58C205.271 673.191 206.402 673.901 207.504 674.817C210.168 677.029 206.7 681.298 203.869 679.535C201.202 677.54 197.709 677.855 194.51 677.185C194.32 683.763 170.847 676.404 167.201 674.224C150.996 672.197 134.325 674.372 119.197 666.557C99.0679 662.318 78.7879 657.63 58.8849 652.232C53.6159 654.286 48.6639 661.636 52.8489 667.03C55.2029 669.484 52.1769 673.492 49.2129 671.747C39.2719 665.896 31.5839 656.762 25.0659 646.922C21.9979 643.827 16.5519 644.493 12.4299 643.208C11.8789 644.198 11.5539 645.302 11.5589 646.434C-5.92612 649.312 6.54688 668.409 15.3369 674.359C10.6739 677.395 10.4969 683.341 10.9049 688.306C9.91688 690.074 9.58688 692.266 10.4469 694.248C13.7349 701.825 20.8459 708.206 26.2529 714.345C32.2229 721.124 37.5459 727.941 44.8099 733.437C72.4979 754.542 105.911 766.342 140.189 770.957C152.36 772.826 169.867 775.687 177.403 785.979C175.554 798.193 172.159 809.907 169.079 821.817C164.772 837.627 165.065 854.178 165.008 870.296C164.406 869.812 163.25 869.912 163.078 870.834C162.076 877.515 161.331 884.347 157.27 889.961C153.71 900.4 151.341 911.535 150.01 922.503C144.678 974.498 143.405 1028.03 155.427 1079.21C160.066 1098.2 167.611 1116.25 177.891 1132.86C180.956 1137.82 185.884 1139.27 190.309 1138.3C205.119 1145.99 223.776 1148.46 239.739 1146.5C294.16 1131.1 275.198 1168.2 351.501 1156.84C483.208 1140.06 616.312 1173.03 747.739 1153.67C750.976 1178.67 793.35 1171.5 808.069 1160.93C852.203 1128.12 874.117 1024.25 896.266 971.552C911.491 930.018 936.985 856.454 970.372 828.584C980.383 820.754 992.484 816.632 1004.59 813.304C1049.78 801.66 1095.14 790.648 1140.42 779.327C1148.09 777.437 1146.71 764.342 1138.5 765.182C1127.61 766.297 1116.67 767.306 1105.74 768.357Z" fill="#FFDBB4"/>
<path fill-rule="evenodd" clip-rule="evenodd" d="M99.7948 760.568C96.7348 760.189 93.7348 759.099 90.7548 758.239C86.2048 756.909 81.7448 755.359 77.3548 753.589C68.2948 749.96 59.5048 745.669 51.2648 740.419C37.9548 731.929 26.1948 721.049 17.3248 707.949L16.7159 707.035C11.652 699.322 2.31124 682.195 12.7848 676.339C6.03455 670.699 -0.345455 660.569 0.014545 652.749C0.524545 641.689 14.0845 641.84 21.0945 646.529C25.6845 649.599 29.1245 653.899 32.5745 658.13C36.3945 662.829 40.4745 667.309 44.7145 671.619C45.8395 672.759 46.9758 673.876 48.1317 674.975L49.2944 676.069C49.1145 675.639 48.9545 675.199 48.8145 674.748C46.4745 667.459 49.2645 657.969 56.5545 654.629C61.0158 652.584 65.6489 653.832 69.972 655.568L70.6345 655.839C76.4545 658.248 82.3445 660.379 88.4045 662.089C113.105 669.059 138.885 670.219 164.195 673.699C173.945 675.049 183.875 676.748 193.575 679.248C197.274 663.538 206.344 648.479 216.184 636.089C263.304 576.818 341.014 557.229 412.104 544.549C418.584 543.399 423.955 551.979 427.725 549.949C434.875 546.109 441.165 540.669 446.685 534.759C458.455 522.149 466.805 507.319 476.615 493.269C481.465 486.329 492.625 492.539 488.125 499.989L485.92 503.63C476.843 518.544 466.792 533.913 453.775 545.479C446.855 551.619 439.175 556.469 430.395 559.498C423.745 561.789 414.415 563.719 407.135 561.498L406.261 560.225C406.55 560.651 406.841 561.075 407.135 561.499C426.134 589.029 449.974 612.329 475.094 634.319C500.45 656.502 527.803 676.368 555.321 695.791L557.614 697.409C602.444 664.71 640.314 622.059 666.884 573.33C661.315 572.659 655.805 569.09 651.045 566.429C645.315 563.21 639.925 559.369 635.725 554.249C626.575 543.099 627.765 528.729 626.115 515.199C626.015 514.359 627.125 514.149 627.635 514.569C632.595 518.689 634.335 525.439 636.405 531.269C638.685 537.679 641.265 542.96 646.495 547.469C651.365 551.67 657.305 554.759 663.075 557.509C666.05 558.92 680.822 562.546 682.504 565.549C708.025 559.559 732.885 569.909 751.795 587.369C770.065 604.239 783.475 626.169 795.315 647.819C807.945 670.919 818.295 694.998 827.215 719.748C836.255 744.869 843.185 770.539 846.995 796.979C850.211 819.27 852.183 841.912 853.459 864.452L853.615 867.269C872.494 837.639 891.844 808.319 911.594 779.259C907.104 767.269 912.074 755.029 920.484 745.769C929.804 735.519 942.694 730.759 955.024 725.219L956.645 724.486C962.588 721.775 968.511 718.79 973.644 714.729C978.584 710.809 982.214 705.409 987.414 701.799C994.974 696.539 1008.69 697.659 1009.04 709.149C1009.22 715.46 1006.51 722.379 1004.03 728.049C1001.22 734.46 997.434 740.269 992.934 745.609C992.726 745.858 992.499 746.054 992.268 746.21L992.095 746.319C998.315 747.349 1004.58 748.179 1010.97 748.469C1023.86 749.059 1036.89 748.109 1049.51 745.389C1062.43 742.609 1074.95 738.09 1086.57 731.789C1096.5 726.409 1105.7 719.449 1116.98 717.809C1118.02 717.649 1119.07 717.549 1120.15 717.489C1121.95 717.389 1123.75 719.509 1123.04 721.288C1122.65 722.269 1122.24 723.239 1121.79 724.219C1117.89 732.809 1111.91 741.142 1104.45 747.466L1103.87 747.949C1106.5 747.039 1109.09 746.019 1111.64 744.869C1126.63 738.119 1140.23 727.919 1156.3 723.819C1157.06 723.619 1157.83 723.439 1158.6 723.269C1163.57 722.199 1166.19 727.599 1163.27 731.299C1162.8 731.899 1162.33 732.489 1161.84 733.079C1154.67 741.979 1146.76 750.239 1138.04 757.659C1135.05 760.199 1131.97 762.659 1128.83 765.01C1127.51 766.006 1126.18 766.98 1124.84 767.939L1124.17 768.409C1125.74 767.3 1127.29 766.17 1128.83 765.01C1138.67 762.029 1148.37 758.499 1157.86 754.59C1161.63 753.039 1164.56 756.859 1164.96 759.999C1166.3 770.52 1154.62 778.13 1147.02 783.189C1139.4 788.27 1131.01 792.13 1122.42 795.229C1105.91 801.197 1088.56 803.908 1071.24 806.337L1062.83 807.509C1029.53 812.164 994.756 817.731 970.864 843.64C957.474 858.159 948.414 876.199 940.124 893.949C931.844 911.68 924.574 929.88 917.674 948.18C910.524 967.119 904.294 986.409 897.674 1005.54C891.594 1023.1 884.332 1040.44 877.139 1057.61L876.004 1060.32C860.734 1096.8 842.494 1131.16 817.074 1161.62C812.884 1166.65 806.114 1159.51 809.984 1154.53C836.574 1120.25 855.074 1079.8 870.344 1039.45C877.294 1021.09 883.114 1002.29 889.794 983.829L893.769 972.862C899.077 958.244 904.43 943.644 910.014 929.14C917.084 910.789 924.854 892.659 933.744 875.119L934.688 873.272C943.391 856.351 953.732 839.674 967.964 826.869C993.582 803.81 1027.67 798.278 1060.63 793.897L1071 792.53C1084.93 790.679 1098.9 788.634 1112.45 784.909C1120.27 782.77 1127.91 780.029 1135.09 776.249C1137.95 774.749 1140.74 773.1 1143.44 771.3C1135.74 773.56 1127.93 775.409 1119.98 776.859C1116.09 777.569 1112.24 778.1 1108.4 778.47C1098.51 779.448 1088.7 779.408 1078.57 778.879C1077.71 778.828 1077.43 777.479 1078.35 777.309C1085.41 776.055 1092.47 774.486 1099.51 772.784L1101.61 772.269C1101.65 771.1 1102.11 769.859 1103.07 768.68C1106.57 764.42 1113.22 762.239 1117.83 759.229C1122.66 756.079 1127.34 752.68 1131.8 749.039C1135.88 745.71 1139.8 742.189 1143.57 738.51L1144.7 737.399C1144.33 737.77 1143.95 738.141 1143.57 738.509C1133.39 743.21 1123.74 749.239 1113.11 752.96C1104.66 755.929 1095.8 757.929 1086.86 758.639L1086.31 758.683L1085.75 758.719C1076.42 759.389 1067.03 759.119 1057.84 761.139C1056.81 761.369 1056.49 759.989 1057.41 759.599C1065.44 756.259 1073.79 754.969 1082.23 753.409C1082.41 752.749 1082.87 752.159 1083.67 751.779L1085.83 750.748C1092.26 747.659 1098.26 744.542 1103.6 739.529C1108.32 735.099 1112.25 729.92 1115.2 724.179C1103.39 726.769 1093.02 735.719 1082.28 740.749C1070.58 746.239 1058.2 750.179 1045.48 752.42L1044.04 752.668C1020.26 756.633 991.68 756.128 970.385 743.769C969.705 743.369 970.195 742.46 970.895 742.569C976.935 743.559 982.915 744.729 988.895 745.769C987.724 744.699 987.204 742.779 988.554 741.239C993.925 735.084 998.173 728.049 1000.89 720.351L1001.41 718.846C1002.66 715.275 1004.77 709.73 1002.61 706.509C1000.55 703.439 995.704 703.859 992.804 705.159C986.774 707.879 982.764 714.67 977.684 718.769C972.144 723.249 965.844 726.569 959.394 729.539L958.032 730.158C946.876 735.176 934.956 739.4 926.184 748.259C921.464 753.019 917.404 758.969 916.044 765.639C915.424 768.699 915.424 771.849 916.244 774.879C916.894 777.249 918.254 778.71 917.474 781.119C916.454 784.229 912.844 787.949 910.984 790.719C908.824 793.92 906.674 797.129 904.524 800.339C900.234 806.759 895.964 813.199 891.694 819.629C883.154 832.509 874.704 845.449 866.324 858.429C863.598 862.656 860.88 866.887 858.171 871.122L854.115 877.479L851.971 880.83L848.315 886.578C848.445 887.109 848.435 887.669 848.265 888.158C847.641 889.934 846.474 891.147 845.023 892.027L844.764 892.179C823.424 925.909 802.424 959.859 781.214 993.67C780.084 1003.99 779.024 1014.32 778.104 1024.65C776.014 1048.03 774.584 1071.47 774.124 1094.94C773.904 1106.3 774.814 1117.73 775.304 1129.08C775.544 1134.5 775.873 1139.91 776.302 1145.32L776.617 1149.15C777.04 1154.42 777.279 1159.65 775.384 1164.67C773.704 1169.08 768.584 1170.07 765.554 1166.71C726.025 1165.12 686.465 1163.91 646.905 1163.16C576.095 1161.8 505.255 1162.01 434.435 1163.38C398.865 1164.07 363.285 1165.04 327.725 1166.24C310.205 1166.82 292.675 1167.64 275.145 1167.88C265.7 1168.01 250.835 1164.57 250.073 1153.94L250.055 1153.62C248.875 1153.94 247.655 1154.2 246.405 1154.39C245.848 1154.47 245.314 1154.45 244.82 1154.33L244.575 1154.27C230.496 1158.56 212.687 1152.44 199.309 1148.87L198.205 1148.58C185.435 1145.25 175.175 1140.49 166.805 1129.91C152.155 1111.38 147.155 1086.5 144.555 1063.57C142.115 1041.99 141.975 1020.01 144.945 998.469C143.195 980.92 144.905 962.81 146.895 945.359C147.875 936.729 149.025 928.109 150.405 919.529C151.175 914.739 152.185 909.999 153.215 905.269C153.626 903.379 153.968 901.344 154.49 899.377L154.725 898.539C153.125 898.749 151.375 898.399 149.685 897.47C145.665 895.26 144.495 890.789 144.425 886.51C144.205 873.609 145.745 860.34 147.105 847.52C148.475 834.72 150.355 821.869 152.815 809.229L153.451 805.97C155.315 796.514 157.448 786.753 161.205 777.869C147.095 775.469 133.025 772.919 119.335 768.578C112.655 766.448 106.075 763.799 99.7948 760.568ZM836.254 894.819C836.035 894.869 835.825 894.929 835.615 894.989C829.975 896.569 824.275 897.909 818.595 899.349C808.775 901.819 799.175 904.579 790.045 908.869C788.132 933.009 785.297 957.071 782.601 981.145L782.064 985.96C786.204 978.279 790.444 970.659 794.874 963.13C808.364 940.179 822.164 917.409 836.254 894.819ZM158.165 897.21C158.195 900.079 157.595 903.06 157.275 905.819C156.755 910.3 156.335 914.8 155.805 919.279C154.725 928.279 153.805 937.289 153.135 946.329C152.705 952.1 152.425 957.89 152.175 963.68C157.845 942.488 165.355 921.759 172.495 900.998C171.301 900.873 170.081 900.581 168.823 900.247L166.704 899.676C165.455 899.355 161.402 898.358 158.165 897.21ZM854.115 877.479L854.155 878.429C854.305 881.799 852.285 883.699 849.835 884.189C851.255 881.949 852.685 879.709 854.115 877.479ZM205.315 717.76C211.285 718.289 217.135 719.56 222.715 721.76L223.253 721.97C227.38 723.563 233.415 725.564 234.765 729.97C235.145 731.22 234.125 732.249 232.955 732.35C228.475 732.71 223.195 727.909 219.045 726.289C214.425 724.489 209.585 723.149 204.685 722.439C193.675 720.829 182.195 722.05 171.835 726.06C171.225 726.3 170.845 725.329 171.395 725.039C181.835 719.359 193.445 716.71 205.315 717.76ZM78.8048 746.359C78.1144 745.749 77.4244 745.109 76.7444 744.47C71.383 739.398 66.6353 733.478 63.1199 726.974L62.1948 725.213C59.3316 719.67 55.8158 711.773 62.5444 707.779C66.5644 705.39 71.4044 705.989 75.8844 707.439C76.1744 707.529 76.4644 707.63 76.7544 707.729C78.7544 708.43 80.6844 709.269 82.4044 710.069C89.8744 713.499 96.4644 718.489 103.364 722.89C110.841 727.66 118.223 730.71 126.852 732.495L127.664 732.659C135.764 734.26 144.544 735.289 150.194 741.949C151.614 743.63 150.314 746.779 147.864 745.949C132.244 740.68 115.714 739.519 101.374 730.869C95.4344 727.289 89.8144 723.18 83.7444 719.789C80.5244 717.987 77.1999 716.412 73.657 715.332L71.7215 714.762C70.5878 714.431 69.2344 714.104 68.3244 714.43C66.5922 715.03 67.145 715.957 67.681 717.575L67.7344 717.739C71.9444 730.76 83.9444 741.659 95.0644 748.869C97.6144 750.529 100.224 752.05 102.884 753.46C120.89 763.057 141.037 767.523 160.824 772.826C160.824 772.826 172.265 776.019 176.055 777.219C180.275 776.868 185.085 778.359 188.265 780.139C191.355 781.868 193.845 784.189 195.725 786.919C195.725 786.919 197.535 788.429 197.865 790.769C198.815 792.939 199.455 795.278 199.775 797.719C199.955 799.149 199.595 800.248 198.915 801.028C200.96 832.421 192.481 863.637 182.921 893.472L181.974 896.413L181.365 898.278C171.055 929.908 159.225 961.309 153.945 994.288C150.415 1016.32 150.525 1039.12 153.115 1061.25L153.297 1062.77C155.849 1083.7 160.759 1107.17 174.065 1124.01C180.851 1132.6 188.892 1136.42 199.172 1139.19L199.735 1139.34C209.035 1141.79 218.635 1145.26 228.225 1146.31C237.125 1147.28 244.585 1143.97 252.595 1140.87L252.605 1140.86C269.475 1125.93 277.135 1104.19 282.795 1082.25C297.465 1025.47 295.645 966.529 287.325 908.919C282.985 878.819 277.085 848.979 271.205 819.149C268.265 804.239 265.095 789.359 262.465 774.399L260.903 765.595C260.041 760.703 259.207 755.808 258.495 750.889C257.535 744.279 257.245 737.779 256.915 731.129C248.835 717.739 237.105 706.709 223.515 698.799C213.785 693.129 203.485 689.199 192.855 686.349C162.465 678.159 129.335 678.739 98.7545 672.439C88.4815 670.325 78.73 667.187 68.9836 663.426L67.6545 662.909C63.1845 661.169 58.6245 660.199 56.4045 665.469C54.8245 669.219 55.7645 673.119 58.1345 676.269C63.9445 683.989 75.6245 687.569 84.4145 690.349C89.7045 692.029 95.1045 693.359 100.565 694.349C106.025 695.339 111.505 695.589 116.745 697.519C118.765 698.259 119.165 701.469 116.745 702.038C110.105 703.589 103.425 702.259 96.8245 700.969C89.5745 699.538 82.4345 697.509 75.4945 694.939C74.2145 694.467 72.8897 693.969 71.5406 693.441L70.5245 693.039C71.5745 693.8 72.6245 694.55 73.6845 695.3C73.9645 695.499 73.7945 696.029 73.4245 695.899C57.1065 689.811 42.2591 678.827 30.7569 665.831L30.1845 665.18C26.1345 660.539 16.9045 646.499 9.12455 650.409C1.81894 654.076 14.2724 668.212 19.0052 673.992L19.5547 674.669C24.9347 674.809 30.1447 678.158 34.5047 680.858C42.0747 685.549 49.9847 689.589 58.0447 693.368C74.0647 700.898 91.0747 706.209 106.925 714.118C107.135 714.229 106.975 714.498 106.775 714.469C96.6847 712.858 86.7047 710.288 76.9547 707.099L76.5197 706.963L76.0847 706.818C69.9947 704.818 63.9847 702.559 58.0747 700.148C51.5047 697.469 45.0847 694.459 38.8547 691.049C33.2147 687.969 26.9547 682.419 20.4147 681.599C19.7147 681.509 19.0947 681.498 18.5547 681.549C11.0448 682.179 17.2548 694.619 19.3548 698.339C22.7848 704.449 26.9248 710.089 31.6748 715.239C41.3048 725.699 52.9748 733.989 65.6048 740.439C69.9148 742.639 74.3248 744.579 78.8048 746.359Z" fill="black"/>
<path fill-rule="evenodd" clip-rule="evenodd" d="M723.63 424.844C719.666 418.982 710.121 376.442 704.024 369.899C704.484 344.769 711.431 257.762 691.588 218.65C695.762 214.429 706.854 178.074 704.024 164.331C713.372 135.549 653.319 89.8356 630.464 77.4828C524.243 20.5241 370.321 83.3968 322.014 188.912C292.985 252.457 292.45 323.603 289.168 391.978C288.78 406.614 287.435 421.364 287.45 435.982C289.549 448.827 299.734 461.908 292.013 472.589C283.484 478.488 266.246 492.86 273.921 501.01C278.419 504.755 285.604 502.582 290.485 506.183C292.97 507.573 294.52 510.62 297.426 511.083C323.972 510.075 342.704 509.989 369.332 508.913C380.989 508.531 398.739 513.462 412.12 503.646C458.858 529.642 439.308 491.927 448.759 465.075C477.539 474.806 534.869 505.837 565.546 506.839C590.475 509.92 613.786 495.402 638.294 498.707C668.741 510.018 704.423 512.533 732.312 493.395C739.272 488.383 747.015 494.189 755.787 488.776C772.836 480.623 732.234 433.889 723.63 424.844Z" fill="#FFDBB4"/>
<path fill-rule="evenodd" clip-rule="evenodd" d="M322.014 188.912C370.321 83.3968 524.243 20.5241 630.464 77.4828C653.319 89.8356 713.372 135.549 704.024 164.331C706.163 174.721 700.346 198.032 695.577 210.615C673.429 226.983 608.758 223.586 501.567 200.423L497.452 199.529L460.848 221.218L445.813 277.717C435.718 287.705 427.561 299.899 421.341 314.299C421.341 314.299 406.208 297.678 383.773 299.799C369.185 306.008 358.444 312.774 351.548 320.096C344.791 327.271 344.655 343.358 351.143 368.357L351.548 369.899L383.773 379.932H398.727L439.813 430.143L445.812 481.795C444.462 504.407 449.564 524.473 412.12 503.646C398.739 513.462 380.989 508.531 369.332 508.913C342.704 509.989 323.972 510.075 297.426 511.083C294.52 510.62 292.97 507.573 290.485 506.183C285.604 502.582 278.419 504.755 273.921 501.01C266.246 492.86 283.484 478.488 292.013 472.589C299.734 461.908 289.549 448.827 287.45 435.982C287.435 421.364 288.78 406.614 289.168 391.978L289.457 385.817C292.507 319.341 293.856 250.551 322.014 188.912ZM695.067 393.495L704.425 358.055L704.218 363.385C704.127 365.863 704.058 368.049 704.024 369.899C710.121 376.442 719.666 418.982 723.63 424.844L724.488 425.758C734.618 436.658 772.325 480.867 755.787 488.777C747.015 494.189 739.272 488.383 732.312 493.395C704.423 512.533 668.741 510.018 638.294 498.707C634.724 498.226 631.18 498.122 627.653 498.288L626.199 493.736L659.517 465.075L695.067 393.495Z" fill="#AE5D29"/>
<path fill-rule="evenodd" clip-rule="evenodd" d="M688.823 215.312C688.445 213.141 691.436 211.522 692.593 213.722C700.998 229.703 704.365 248.211 707.342 265.863C710.349 283.701 712.336 301.613 712.446 319.721C712.53 333.65 711.265 347.74 708.89 361.679L709.179 362.671V362.671C709.712 364.493 710.25 366.314 710.794 368.133L711.615 370.861C713.201 376.099 714.703 381.361 716.332 386.586C719.733 397.491 723.314 408.427 727.7 418.98C731.98 429.278 737.185 439.209 743.372 448.491C749.335 457.439 758.798 465.005 762.999 474.943C764.463 478.406 762.298 482.984 758.254 482.431C757.991 482.748 757.59 482.978 757.046 483.026C753.906 483.3 750.963 483.039 747.83 482.745C746.081 482.581 746.084 480.19 747.83 480.026C749.161 479.901 750.457 479.791 751.752 479.716C742.792 474.407 736.4 464.04 731.289 455.553C724.721 444.649 719.76 432.735 715.716 420.687C711.563 408.317 708.622 395.689 706.259 382.867C705.988 381.391 705.73 379.914 705.482 378.435C702.496 391.128 698.651 403.589 694.094 415.565L693.455 417.232C682.95 444.466 668.722 471.961 645.057 489.961C643.983 490.777 642.886 491.552 641.78 492.31L643.126 493.082C644.466 493.847 645.786 494.581 647.077 495.183C651.859 497.414 657.05 499.115 662.185 500.32C672.791 502.811 683.929 502.097 694.749 502.444C698.298 502.558 700.317 507.879 696.689 509.607C684.738 515.298 671.83 514.09 659.494 510.086C653.39 508.103 647.662 505.328 642.363 501.705C640.172 500.208 637.628 498.36 635.48 496.224C611.813 509.466 582.397 510.948 556.055 506.212C542.366 503.75 529.101 499.255 517.43 491.566C506.204 484.172 498.202 474.81 492.489 462.681C491.982 461.606 493.391 460.267 494.256 461.318C512.201 483.113 543.083 492.207 570.251 493.937C584.747 494.861 599.576 494.093 613.513 489.756C626.734 485.64 638.078 478.096 647.55 468.063C666.749 447.726 678.253 420.06 686.515 393.731C695.503 365.088 699.783 334.952 700.666 304.976C701.113 289.789 700.55 274.474 698.165 259.455C695.799 244.56 691.408 230.144 688.823 215.312ZM419.772 86.2817C421.043 85.6357 421.938 87.3167 420.86 88.1437C398.483 105.305 378.443 127.065 362.223 150.096C332.31 192.573 313.126 241.727 304.292 292.803C299.076 322.966 297.714 353.586 298.235 384.151C298.441 396.292 299.135 408.397 299.906 420.505L300.777 433.927C301.181 440.18 301.519 446.38 301.258 452.664L301.187 454.116C300.773 461.428 301.492 468.799 299.658 475.932C298.717 479.59 293.558 480.166 291.69 476.973C291.324 476.348 290.982 475.703 290.65 475.052C286.272 482.192 280.602 488.575 274.311 494.277C277.318 493.637 280.354 493.229 283.471 493.602C288.412 494.194 292.844 496.102 295.98 499.446C299.093 498.043 302.294 497.077 305.975 497.057C308.686 497.043 310.719 500.248 309.172 502.629C306.086 507.381 301.78 510.045 296.887 512.678C293.419 514.544 289.281 512.948 288 509.258L287.927 509.034C286.486 504.366 278.822 505.12 275.206 505.842L274.142 506.059C267.411 507.46 260.838 509.252 253.981 507.404C249.558 506.211 248.402 499.553 252.666 497.343C266.136 490.363 277.444 480.987 289.065 471.573C286.499 465.282 285.042 458.253 283.362 451.856C280.997 442.852 280.306 433.164 279.452 423.915C277.829 406.33 277.21 388.554 277.384 370.9C277.973 311.272 288.171 251.459 314.22 197.464C325.632 173.811 340.624 151.924 358.345 132.551C375.961 113.292 396.536 98.0837 419.772 86.2817ZM398.917 378.296C398.226 377.338 399.575 376.071 400.521 376.692C421.002 390.145 435.215 410.573 444.386 433.014C453.464 455.231 459.038 482.444 450.085 505.612C448.66 509.302 441.835 510.672 441.136 505.612C438.015 483.016 437.53 460.388 430.667 438.42C423.863 416.643 412.221 396.701 398.917 378.296ZM383.036 451.652C383.148 451.253 383.8 451.322 383.772 451.752C383.259 459.72 382.911 467.785 381.909 475.709C381.422 479.56 380.778 483.386 380.23 487.228C379.668 491.168 379.753 495.146 377.462 498.511C374.426 502.972 366.36 501.717 366.631 495.578C366.818 491.343 368.764 488.625 370.587 484.908C371.757 482.525 372.776 480.062 373.758 477.587L375.218 473.875C378.12 466.514 380.897 459.277 383.036 451.652ZM346.361 430.545C346.485 429.918 347.496 430.069 347.466 430.694C346.919 441.972 345.647 453.123 343.655 464.236C342.747 469.301 341.688 474.338 340.568 479.361L340.084 481.513C338.886 486.803 338.113 493.022 335.429 497.748C332.747 502.471 326.379 499.041 327.204 494.28C328.168 488.722 331.579 483.131 333.562 477.793C335.392 472.865 336.992 467.85 338.487 462.811C341.634 452.204 344.215 441.398 346.361 430.545ZM414.658 461.855L414.896 461.61C415.828 460.597 417.218 461.272 417.663 462.341C419.485 466.722 418.573 471.888 418.443 476.539L418.419 477.554C418.322 482.265 418.39 486.678 416.253 491.027C413.659 496.308 406.824 493.028 406.295 488.33C405.717 483.203 408.142 478.184 409.708 473.382C410.703 470.33 411.428 467.156 412.941 464.386C411.647 464.609 410.355 465.056 409.172 465.379C408.642 465.522 408.442 464.744 408.948 464.564C410.904 463.872 413.112 463.352 414.658 461.855V461.855ZM687.317 477.402C686.692 476.703 687.471 475.772 688.282 476.15C698.022 480.699 707.132 483.658 717.879 484.627C722.536 485.047 722.565 492.363 717.879 491.939C706.663 490.929 694.908 485.9 687.317 477.402ZM344.641 323.709C353.216 304.42 380.344 287.309 398.535 305.247C398.876 305.582 398.529 306.313 398.034 306.108C386.719 301.419 372.867 307.383 365.036 315.913C358.823 322.679 355.09 331.367 354.349 340.524C353.608 349.689 355.799 359.255 361.886 366.344C365.079 370.063 369.391 373.583 374.465 374.03C379.588 374.481 383.858 370.873 388.701 369.893C392.352 369.155 395.108 371.446 395.466 375.045C396.255 382.988 388.347 388.319 381.492 389.614C374.118 391.006 366.592 389.485 360.238 385.489C339.716 372.583 335.289 344.748 344.641 323.709ZM537.187 134.646C540.916 131.082 547.259 134.625 545.883 139.709C542.957 150.529 536.738 159.674 529.848 168.354C523.219 176.705 516.117 184.73 508.505 192.199C500.943 199.619 492.727 206.485 484.092 212.618L481.491 214.46C475.371 218.774 468.889 223.137 462.039 226.244C460.385 240.494 457.149 254.554 452.253 268.015C447.538 280.977 441.538 293.504 434.268 305.227L433.224 306.906C426.543 317.613 418.51 329.578 407.174 335.447C406.834 335.624 406.493 335.732 406.157 335.795C408.693 337.486 410.836 339.613 412.11 342.669C413.506 346.015 410.588 349.172 407.791 350.277C401.876 352.614 396.106 348.658 390.789 344.438C390.564 344.944 390.352 345.455 390.17 345.97C388.981 349.34 388.631 352.784 385.565 355.02C384.108 356.083 382.313 355.132 381.396 353.928C378.39 349.978 381.502 344.597 384.145 341.369C384.511 340.923 384.889 340.499 385.278 340.092C384.161 339.271 383.071 338.543 382.015 337.984C375.806 334.696 366.602 334.113 363.027 341.392C362.753 341.951 361.892 341.662 361.892 341.084C361.901 332.143 371.06 327.287 379.008 326.627C384.815 326.145 390.431 328.182 395.658 330.553L396.634 331.001C398.579 331.904 400.583 332.756 402.501 333.709C402.189 332.886 402.194 331.918 402.685 330.958C408.696 319.219 419.018 309.673 426.462 298.801C433.844 288.015 440.182 276.472 445.241 264.419C450.151 252.72 453.998 240.654 456.688 228.347C455.802 228.53 454.803 227.741 454.866 226.816C455.016 224.578 456.111 222.562 458.034 221.703C460.152 210.127 461.233 198.355 461.17 186.488C461.165 185.568 462.498 185.601 462.576 186.488C463.512 197.039 463.588 207.693 462.801 218.285C467.803 213.683 473.078 209.308 477.894 204.584C485.141 197.476 492.152 190.178 498.915 182.609C505.815 174.887 512.337 166.881 518.301 158.41L521.422 153.968C526.22 147.158 531.15 140.419 537.187 134.646ZM527.777 58.6203C568.933 56.0513 612.887 61.1093 649.855 80.4283C670.158 91.0373 685.851 107.072 697.064 127.027C703.759 138.943 708.838 152.138 710.762 165.704C712.738 179.643 710.418 192.072 701.518 203.152C697.983 207.552 692.029 202.637 692.9 198.135C698.228 170.591 689.586 143.377 674.259 120.574C652.018 87.4843 613.177 72.7853 575.36 66.2283C556.78 63.0083 537.935 61.6623 519.085 62.3173C504.714 62.8173 489.972 64.1563 476.334 68.9913C475.759 69.1953 475.53 68.2993 476.084 68.0883C492.352 61.8753 510.512 59.6983 527.777 58.6203ZM588.815 120.903C590.934 119.56 593.526 120.938 594.254 123.117C596.822 130.799 591.44 140.948 587.84 147.596C583.766 155.119 578.527 162.153 573.117 168.76C562.294 181.974 548.069 193 532.459 199.93C531.503 200.355 530.389 199.201 531.266 198.385C543.344 187.138 554.295 175.08 563.775 161.553C568.433 154.906 572.318 147.894 576.028 140.691C579.348 134.245 582.47 124.925 588.815 120.903ZM658.033 129.953C659.387 125.225 667.099 126.03 666.78 131.137C665.955 144.33 659.731 157.573 652.968 168.754C646.004 180.267 637.185 190.527 627.076 199.388C626.578 199.825 625.896 199.152 626.347 198.659C635.069 189.111 642.114 178.235 647.331 166.399C652.542 154.58 654.509 142.248 658.033 129.953ZM619.703 127.817C621.178 123.706 628.238 124.011 627.805 128.914C626.615 142.392 618.705 156.517 611.379 167.649C603.605 179.46 593.682 189.865 582.592 198.604C582.177 198.931 581.59 198.389 581.995 198.007C591.956 188.622 600.034 177.781 606.429 165.689C609.693 159.519 612.431 153.094 614.593 146.457C616.593 140.317 617.532 133.869 619.703 127.817Z" fill="black"/>
<path fill-rule="evenodd" clip-rule="evenodd" d="M523.2 389.799C534.122 383.222 574.945 388.043 607.013 389.799C632.479 391.193 650.667 388.43 656.489 392.348C669.641 401.2 663.253 444.006 640.589 449.86C617.926 455.714 533.913 463.89 519.428 449.86C504.942 435.83 503.605 401.598 523.2 389.799Z" fill="white"/>
<path fill-rule="evenodd" clip-rule="evenodd" d="M537.347 378.477C554.489 376.396 571.105 381.644 587.863 384.29C596.711 385.685 605.57 386.728 614.524 387.115C616.325 387.194 618.127 387.24 619.929 387.277C620.097 385.69 620.985 384.234 622.908 383.361C626.852 381.573 630.008 380.767 634.338 380.94C638.301 381.096 642.279 381.504 646.181 382.218C653.268 383.517 660.387 386.466 665.571 391.588C677.568 403.441 675.742 422.48 666.472 435.391C647.319 462.068 612.364 463.306 582.426 462.958L579.664 462.922C552.404 462.533 513.404 466.597 501.02 435.583C496.466 424.178 497.098 410.959 502.674 400.021C509.325 386.974 523.325 380.178 537.347 378.477ZM622.495 422.895L622.251 422.905C609.683 423.389 597.117 423.73 584.542 423.952C584.918 427.181 585.302 430.412 585.742 433.634C586.086 436.17 586.455 438.703 586.839 441.233C587.002 442.304 587.599 443.967 587.43 445.028L587.369 445.447V445.447C588.015 445.739 588.6 446.21 589.036 446.892C589.188 447.128 589.298 447.367 589.408 447.604C599.171 447.68 609.677 447.491 619.63 445.716L619.649 445.5V445.5C619.83 444.229 620.359 443.373 621.061 442.786C621.761 438.732 621.697 434.411 621.967 430.389C622.136 427.89 622.319 425.393 622.495 422.895ZM574.938 424.124C565.879 424.278 556.816 424.396 547.76 424.286L543.648 424.222V424.222C544.516 428.88 545.461 433.523 546.247 438.212C547.066 443.099 542.764 446.206 539.041 446.08C539.459 446.149 539.876 446.22 540.294 446.278C551.926 447.923 564.004 447.487 575.809 447.474C575.174 443.767 575.431 439.585 575.336 436.491L575.318 436.012C575.137 432.047 575.011 428.085 574.938 424.124ZM513.406 423.269C513.721 425.691 514.332 428.061 515.247 430.268C519.114 439.593 527.979 443.944 537.359 445.776C535.731 445.214 534.439 443.864 534.113 441.552C533.299 435.801 533.007 429.955 532.985 424.117C526.448 424.056 519.867 423.916 513.406 423.269ZM656.585 421.278C651.931 422.376 646.523 421.873 641.956 422.08C637.679 422.274 633.399 422.444 629.121 422.617C629.323 425.537 629.519 428.457 629.733 431.375C630.008 435.148 630.034 439.134 630.757 442.891C639.366 439.952 647.08 435.24 652.868 427.706C654.31 425.828 655.601 423.625 656.585 421.278ZM535.38 393.775C527.633 395.61 520.3 399.485 516.36 406.574C514.021 410.781 512.992 415.767 513.19 420.68C519.738 419.918 526.398 419.629 533.027 419.39C533.049 418.196 533.077 417.004 533.113 415.814L533.215 412.764C533.396 406.948 533.487 399.644 535.38 393.775ZM575.48 394.485L572.069 394.102C562.596 393.022 553.129 391.889 543.655 392.539C542.284 392.633 540.892 392.783 539.497 392.987C541.172 399.029 541.031 406.126 541.73 412.107C542.001 414.42 542.342 416.713 542.72 418.998L544.364 418.921V418.921C554.529 418.37 564.704 418.032 574.877 417.628C574.876 415.718 574.887 413.807 574.917 411.895L574.955 409.983C575.071 405.099 574.755 399.598 575.48 394.485ZM623.049 393.709C613.128 395.311 602.874 395.651 593.128 395.663C589.235 395.668 585.344 395.429 581.456 395.084C581.709 397.155 581.841 399.249 582.032 401.291C582.415 405.417 582.854 409.536 583.331 413.652L583.757 417.253V417.253C596.261 416.686 608.764 416.074 621.265 415.439L623.029 415.344V415.344L623.524 408.423C623.86 403.808 624.231 399.194 624.753 394.6L624.361 394.459V394.459C623.9 394.269 623.463 394.008 623.049 393.709ZM627.358 395.427C627.905 401.953 628.207 408.505 628.609 415.041L636.85 414.601C638.224 414.526 639.597 414.45 640.971 414.371C646.311 414.063 653.173 412.446 658.453 413.954C658.856 409.155 657.484 404.479 653.152 401.254C645.548 395.591 635.865 397.607 627.358 395.427ZM599.201 337.094C611.473 330.066 642.264 322.883 644.214 344.968C645.111 355.131 637.555 363.551 628.732 367.309L628.401 367.448C620.126 370.85 605.459 374.692 598.298 367.315C592.338 361.175 600.243 350.166 607.649 355.196C611.455 357.78 619.466 355.876 623.713 354.646L623.979 354.569C628.562 353.222 634.672 348.911 632.777 343.268C631.1 338.276 623.964 337.364 619.495 337.202C612.824 336.963 606.332 338.512 599.722 339.016C598.675 339.096 598.352 337.58 599.201 337.094ZM650.036 301.581C666.692 300.801 677.053 318.987 673.223 333.888C672.561 336.459 669.685 338.983 666.909 338.694L666.209 338.63C665.854 338.595 665.497 338.551 665.169 338.46C662.533 337.73 660.17 334.988 660.362 332.146L660.413 331.318C660.802 324.279 660.039 316.169 651.673 314.464C644.578 313.018 640.617 319.847 640.533 326.133C640.517 327.249 639.263 328.028 638.276 327.428C633.147 324.307 632.259 318.098 634.218 312.751C636.701 305.976 642.915 301.914 650.036 301.581ZM526.433 305.481C538.554 301.437 551.631 307.898 557.5 318.614C559.559 319.21 561.615 320.797 561.329 323.227C560.916 326.723 560.294 328.927 557.87 331.578C554.079 335.726 546.978 333.605 545.402 328.5L545.335 328.269C543.545 321.67 536.281 317.316 529.664 319.626C521.934 322.324 522.158 330.488 516.736 335.244C516.099 335.803 515.335 335.892 514.571 335.523C508.812 332.74 509.847 324.364 511.9 319.57C514.593 313.279 519.827 307.684 526.433 305.481ZM509.925 268.674C519.747 258.652 545.359 248.954 552.078 267.461C553.358 270.986 550.633 275.739 546.963 276.47C540.953 277.666 535.621 275.057 529.651 275.525C524.818 275.906 519.777 277.521 515.913 280.515C505.211 288.807 502.857 302.832 495.4 313.386C495.037 313.9 494.332 313.684 494.265 313.078C492.567 297.713 499.167 279.65 509.925 268.674ZM638.021 258.808C644.539 256.506 651.92 256.703 658.472 258.745C665.072 260.803 671.131 264.711 675.799 269.817C677.917 272.135 679.877 274.693 681.449 277.416C682.284 278.859 683.162 281.84 684.111 283.615C689.245 286.58 691.44 293.335 686.843 298.14L686.636 298.351L686.021 298.961C683.55 301.407 679.824 302.467 676.451 301.49C668.903 299.306 667.986 293.361 665.373 287.051C663.647 282.883 660.69 279.195 657.105 276.486C648.632 270.086 634.739 268.047 624.538 271.063C623.995 271.224 623.357 270.532 623.744 270.03C625.677 267.526 626.791 265.471 629.379 263.451C632.006 261.401 634.873 259.92 638.021 258.808Z" fill="black"/>
</svg>
