<svg width="818" height="1201" viewBox="0 0 818 1201" fill="none" xmlns="http://www.w3.org/2000/svg">
<path fill-rule="evenodd" clip-rule="evenodd" d="M421.519 1189.9C339.242 1189.9 257.407 1185.86 178.2 1177.88L178.165 1177.72L173.959 1177.22C161.99 1175.72 149.754 1174.55 137.921 1173.41C106.706 1170.41 74.426 1167.31 44.318 1158.09L38.999 1156.47L38.478 1157.8C37.695 1157.39 36.873 1156.97 35.999 1156.57C40.736 1079.21 48.638 1003.27 55.774 938.987L56.067 936.355L54.32 934.366C44.231 922.877 40.514 913.25 42.97 904.953C63.089 862.96 67.354 809.386 71.479 757.569C80.03 650.173 88.106 548.734 227.587 544.343L227.81 544.333L229.281 544.231C258.368 542.238 288.445 540.176 315.313 526.803L318.444 525.246L318.63 521.754C318.856 517.54 324.044 512.528 328.212 508.502C329.647 507.116 331.001 505.807 332.219 504.496L332.474 504.221L332.693 503.918C338.981 495.18 346.366 489.965 352.448 489.965C361.306 489.965 365.598 501.082 367.368 507.709L370.159 518.156L377.546 510.258C394.904 491.705 403.208 471.302 402.276 449.544L402.906 449.348L402.098 444.15C400.573 435.129 401.587 428.437 405.115 424.263C409.245 419.376 417.344 417 429.875 417C438.155 417 447.165 418.044 455.115 418.965C457.714 419.266 460.219 419.556 462.585 419.799C478.499 421.475 494.768 424.491 510.5 427.407L512.708 427.816L511.214 431.885L515.036 434.527C520.129 438.048 523.922 445.111 525.443 453.904L525.511 454.301L525.633 454.687C527.895 461.857 528.753 469.864 529.662 478.341C531.19 492.604 532.769 507.351 541.307 520.047L546.437 527.674L551.355 519.908C553.754 516.119 556.971 514.276 561.189 514.276C572.567 514.276 586.463 526.858 588.932 536.61L589.725 539.742L592.776 540.803C613.727 548.098 630.99 553.422 646.221 558.119C684.463 569.912 703.658 575.832 715.975 593.183C728.646 611.032 735.058 642.186 745.725 704.169C757.397 771.338 765.196 840.377 772.737 907.143C782.208 991.003 792 1077.69 809.575 1161.77C808.352 1163.03 807.425 1164.28 806.793 1165.53C799.035 1166.21 791.145 1166.84 783.47 1167.44C770.696 1168.45 757.487 1169.49 744.58 1170.84L741.716 1171.14L741.081 1172.13C739.903 1172.22 738.742 1172.34 737.601 1172.46C735.781 1172.64 734.026 1172.81 732.311 1172.91L731.792 1171.88L727.628 1172.34C623.97 1183.99 520.98 1189.9 421.519 1189.9" fill="#D08B5B"/>
<path fill-rule="evenodd" clip-rule="evenodd" d="M352.448 489.965C361.306 489.965 365.598 501.082 367.368 507.709L370.159 518.156L374.47 513.546L366.625 527.273L427.702 583.33L430.04 584.977C455.001 602.461 471.994 611.203 481.02 611.203C490.325 611.203 518.02 588.409 564.106 542.819L539.221 527.273L541.464 520.282L546.437 527.674L551.355 519.908C553.754 516.119 556.971 514.276 561.189 514.276C572.567 514.276 586.463 526.858 588.932 536.61L589.725 539.742L595.273 541.669C611.799 547.381 626.008 551.865 638.747 555.811L655.04 560.845C687.49 570.932 704.643 577.22 715.975 593.183C728.393 610.675 734.799 640.945 745.09 700.487L745.725 704.169C756.866 768.285 764.479 834.105 771.707 898.025L774.518 922.898C783.462 1001.83 793.098 1082.94 809.575 1161.77C808.352 1163.03 807.425 1164.28 806.793 1165.53C801.621 1165.99 796.39 1166.41 791.204 1166.83L776.464 1167.99C765.903 1168.83 755.14 1169.73 744.58 1170.84L741.716 1171.14L741.081 1172.13C740.296 1172.19 739.518 1172.27 738.749 1172.34L737.601 1172.46C735.781 1172.64 734.026 1172.81 732.311 1172.91L731.792 1171.88L727.628 1172.34C623.97 1183.99 520.98 1189.9 421.519 1189.9C339.242 1189.9 257.407 1185.86 178.2 1177.88L178.165 1177.72L173.959 1177.22C164.384 1176.02 154.638 1175.03 145.064 1174.1L131.217 1172.76C102.106 1169.94 72.2755 1166.65 44.318 1158.09L38.999 1156.47L38.478 1157.8C37.695 1157.39 36.873 1156.97 35.999 1156.57L36.3231 1151.36C41.0908 1075.8 48.7984 1001.83 55.774 938.987L56.067 936.355L54.32 934.366C44.231 922.877 40.514 913.25 42.97 904.953C63.089 862.96 67.354 809.386 71.479 757.569L71.9926 751.133C80.3198 647.225 90.6818 550.637 223.442 544.504L227.81 544.333L234.423 543.876C261.895 541.956 290.025 539.389 315.313 526.803L318.444 525.246L318.63 521.754C318.831 517.998 322.975 513.608 326.824 509.847L329.421 507.331C330.41 506.368 331.349 505.432 332.219 504.496L332.474 504.221L332.693 503.918C338.981 495.18 346.366 489.965 352.448 489.965Z" fill="#94A444"/>
<path fill-rule="evenodd" clip-rule="evenodd" d="M244.542 774.727C244.778 774.314 245.568 774.459 245.504 774.988C242.067 797.806 233.73 819.915 228.656 842.443L228.81 842.872C231.4 850.281 237.352 877.007 222.795 869.576L221.631 875.669C202.696 975.201 187.413 1075.8 189.544 1177.41C189.857 1185.49 185.624 1209.45 174.188 1197.71C165.788 1183.62 169.487 1166.35 168.825 1150.7C170.269 1064.82 179.016 978.279 201.477 895.198L202.406 892.325C217.264 846.646 217.208 861.277 210.226 810.273C210.057 805.567 206.655 795.339 211.134 792.513C215.17 795.06 216.508 802.539 217.97 806.971L218.07 807.268C220.242 813.605 222.179 819.996 224.098 826.413C230.476 809.187 235.602 790.831 244.542 774.727ZM481.939 1168.53C490.187 1166.1 497.613 1175.48 494.732 1183.17C492.867 1191.18 477.287 1196.16 476.694 1184.98C472.433 1180.43 473.816 1172.05 479.636 1169.52C479.577 1169.51 481.401 1168.77 481.939 1168.53ZM681.764 713.914C682.071 712.854 682.951 713.82 682.714 714.494C684.554 723.817 683.058 734.071 683.48 743.756C684.658 740.982 686.184 738.331 688.167 735.847C689.886 733.696 693.005 736.769 691.217 738.896C686.777 744.179 684.835 750.548 683.989 757.167C690.504 895.377 709.688 1033.34 742.598 1167.76C749.731 1186.3 720.962 1193.81 724.119 1173.63C702.347 1079.35 684.987 983.078 681.105 886.161C675.868 843.632 677.931 799.321 678.649 756.238C678.678 742.202 680.035 727.82 681.764 713.914ZM388.803 432C396.887 432.641 401.573 446.061 403.185 453.423C409.095 482.279 393.206 512.311 372.294 531.235C403.171 559.053 436.701 583.845 472.887 604.373C477.809 598.798 486.504 599.599 492.562 602.961C512.155 584.427 532.004 566.287 551.079 547.235C521.424 528.478 518.947 489.858 524.883 458.435L525.066 457.485C525.515 454.788 529.273 455.767 529.486 458.084L529.619 459.577C531.399 480.012 531.558 502.075 542.923 519.931C555.853 499.51 586.84 520.408 591.386 538.37C721.342 583.614 722.558 556.948 748.277 706.384C774.279 859.155 781.635 1014.55 812.093 1166.62C812.469 1170.93 808.553 1174.46 804.654 1175.05C789.755 1177.03 789.292 1136.77 785.858 1125.53C778.527 1083.56 772.991 1041.29 768.219 998.956C753.569 873.557 748.554 746.254 720.187 622.904C717.334 612.526 713.271 602.259 706.089 594.073C676.156 561.501 624.238 568.622 591.796 539.594C594.938 549.268 595.191 559.961 594.573 570.066C591.023 623.919 588.881 677.874 585.068 731.708C584.626 737.753 577.308 739.74 573.882 734.737C546.734 695.114 518.871 656.09 492.408 615.987C488.144 618.009 483.595 618.931 478.712 617.962C470.969 627.738 474.314 653.31 471.786 666.718L470.848 676.977C456.39 835.991 445.779 995.402 446.565 1155.15L446.595 1160.31C446.588 1165.21 446.964 1170.29 446.598 1175.18C443.292 1191.05 427.661 1185.37 428.538 1171.21C427.842 992.219 435.238 812.062 464.773 635.304C438.11 668.91 411.478 702.542 384.803 736.141C382.807 738.675 379.013 737.561 377.43 735.214L377.33 735.059L377.986 736.819C376.382 736.305 374.981 735.329 373.527 734.487C360.116 701.557 351.437 667.018 340.901 633.137C332.107 599.915 318.923 567.329 314.065 533.286L313.845 533.194V533.194C300.649 539.828 286.029 544.086 271.254 544.339C254.545 548.643 236.971 550.673 220.303 552.861C99.1356 558.045 75.1806 678.352 76.2886 778.072L76.0782 782.833C74.812 812.488 74.2148 842.66 66.8626 871.507C64.1486 876.949 55.5616 911.955 46.9246 899.52C39.6426 909.253 41.9226 914.921 51.6276 920.934C68.5786 935.486 85.1186 958.655 88.3806 982.532C88.9876 986.939 82.6616 990.812 80.4126 985.893L79.29 983.445C72.7219 969.188 65.7776 955.243 56.3976 942.854C55.9826 943.548 55.4176 944.132 54.7416 944.522C52.4876 1003.61 47.9236 1062.59 43.8426 1121.57C41.6112 1130.02 45.817 1183.67 28.7144 1170.42L28.1896 1170C24.2833 1161.73 26.6337 1151.73 27.4321 1142.9L29.8356 1114.62V1114.62C35.0266 1056.9 39.2766 999.074 46.4486 941.559L45.8855 940.912C37.6373 931.355 29.9309 918.736 33.9926 905.984C36.0746 898.316 42.9776 894.498 47.6476 888.639C72.9846 755 29.2116 548.077 224.036 541.579L232.191 541.015C258.454 539.152 285.501 536.498 309.277 524.665C309.724 516.321 319.255 509.251 324.46 503.645C340.494 481.367 362.018 480.25 369.801 509.393C390.498 487.138 398.858 461.297 388.803 432ZM476.028 1079.49C486.117 1069.76 499.634 1087.48 481.34 1099.99C478.021 1106.07 468.949 1101.78 470.492 1095.42L470.473 1094.34C470.338 1088.8 469.792 1081.96 476.028 1079.49ZM477.103 949.701C495.523 943.766 490.933 977.313 478.781 981.89C471.438 985.537 468.921 976.409 470.262 970.839C465.492 963.592 469.861 954.056 477.103 949.701ZM476.806 853.3C473.408 838.926 494.038 836.533 494.157 851.547C494.823 857.86 489.065 861.968 487.61 867.457C487.303 871.029 482.92 873.545 480.115 870.562C475.435 865.582 474.429 858.825 476.806 853.3ZM474.215 725.578C476.317 708.752 495.361 715.845 488.636 718.648C488.5 718.794 488.359 718.937 488.21 719.082C495.901 719.829 495.362 728.861 494.506 734.639C491.488 747.574 471.937 735.806 474.215 725.578ZM357.099 672.057C358.664 677.717 360.24 683.374 361.853 689.02C366.008 703.567 370.945 717.727 376.151 731.864C369.781 711.934 363.433 691.997 357.099 672.057ZM367.625 511.841C349.392 481.224 339.553 515.741 326.33 529.308C335.672 596.096 363.943 658.485 383.185 722.868C409.994 688.601 436.832 654.357 463.648 620.096C465.252 618.042 466.797 615.889 468.398 613.782C434.735 594.329 402.995 571.33 376.277 542.796C371.138 543.895 367.197 537.025 363.508 534.166L363.121 533.848C359.708 530.973 356.546 526.437 358.694 521.964C358.409 521.358 358.842 520.8 359.431 520.616C362.099 517.687 364.929 514.863 367.625 511.841ZM580.279 575.997C582.059 554.145 578.455 522.817 549.07 527.802C554.303 534.97 564.142 536.128 569.324 543.01C571.221 546.161 568.893 550.064 565.445 550.662C542.637 571.318 521.075 592.477 497.788 612.814C523.665 646.316 548.508 680.453 573.673 714.472C575.411 668.294 578.467 622.164 580.279 575.997Z" fill="black"/>
<path fill-rule="evenodd" clip-rule="evenodd" d="M599.074 252.065C595.362 222.444 583.702 190.995 571.439 163.38C543.865 104.994 480.738 96.9553 424.147 84.9173C368.303 76.7873 309.168 69.4463 254.166 85.6673C223.245 93.2423 211.168 130.068 216.048 159.129C218.833 177.238 227.076 194.377 234.105 211.16C248.076 245.626 256.94 282.525 256.955 319.841C255.996 344.227 252.554 372.061 280.578 382.39C307.245 395.651 309.498 431.599 342.889 451.995C356.391 479.344 393.17 481.751 419.641 488.095C436.372 491.297 453.292 493.654 470.258 495.176C519.384 501.471 558.684 487.236 584.4 443.474C601.609 416.841 614.424 386.089 611.258 353.811C608.105 319.821 602.852 286.009 599.074 252.065Z" fill="#D08B5B"/>
<path fill-rule="evenodd" clip-rule="evenodd" d="M424.571 13.9589C427.375 10.7809 431.695 11.8709 434.317 14.3839C436.024 14.8869 437.678 15.6349 439.24 16.6249C442.77 16.1719 446.471 16.1719 449.933 16.2989C450.773 15.8279 451.673 15.4089 452.653 15.0489C459.653 12.4899 465.852 13.7899 470.965 17.2159C473.428 14.8859 476.535 13.4239 480.507 13.6449C484.052 13.8429 486.578 15.5109 488.743 17.7079C490.902 14.5949 494.392 12.3739 498.74 12.0649C504.817 11.6329 510.659 14.0699 515.501 17.8429C518.322 14.6069 522.168 12.7469 526.454 12.7289C529.274 12.2169 532.25 12.4189 534.939 13.2309C538.843 14.4099 542.271 16.6189 545.001 19.4859C549.32 15.3499 554.607 12.3739 560.703 12.8079C568.593 13.3779 575.133 19.1789 578.173 26.3189C583.513 28.4579 588.443 31.5089 592.563 35.8589C592.783 36.0879 592.993 36.3279 593.213 36.5689C595.433 37.3879 597.523 38.5489 599.363 40.0779C605.193 44.9289 606.493 51.9489 604.563 58.8279C604.833 59.9289 605.063 61.0489 605.273 62.1679C610.733 62.9979 615.693 66.1489 618.513 71.2789C622.373 78.3189 621.613 87.5979 617.433 94.3189C615.636 97.2099 613.355 99.6459 610.793 101.776C613.69 108.356 612.3 116.208 607.629 121.53C606.491 123.365 605.094 125.021 603.522 126.52C605.257 133.323 602.171 140.342 596.011 143.977L595.484 145.296C595.395 145.515 595.305 145.733 595.213 145.949C595.145 146.229 595.061 146.5 594.978 146.773C594.831 149.187 594.036 151.556 592.458 153.788C589.227 158.362 585.223 161.345 583.099 166.685L582.887 167.246C581.974 169.773 579.026 171.556 576.514 170.776C590.461 199.417 597.773 231.286 602.793 262.518C605.296 278.099 607.228 293.734 608.794 309.429L610.331 325.058C611.682 338.951 612.885 352.889 612.893 366.828C612.913 398.359 603.893 428.688 584.533 453.779C566.223 477.498 540.313 494.688 511.043 501.458C480.823 508.438 445.373 505.688 418.273 489.708C410.283 485.009 417.283 473.708 425.413 477.489C440.803 484.649 456.443 489.969 473.503 491.159C490.133 492.328 506.803 490.248 522.573 484.808C548.663 475.799 570.863 456.929 585.133 433.429C592.163 421.848 597.253 409.279 599.963 395.998C603.336 379.445 602.828 362.336 601.588 345.571L601.503 344.429C599.053 312.128 595.823 279.628 590.603 247.649C585.989 219.37 578.894 191.664 569.683 164.571C566.075 161.395 562.039 158.767 557.72 156.771C526.093 155.45 494.409 155.836 462.823 158.018C435.885 159.891 409.077 163.06 382.472 167.678L379.623 168.179C373.733 169.228 367.193 169.828 361.643 172.199C356.883 174.239 354.953 178.159 353.753 182.978C350.733 195.168 350.273 208.509 349.763 221.009C349.263 233.228 350.393 245.549 349.413 257.728C348.583 267.918 345.973 278.348 338.423 285.719C334.473 289.578 329.613 291.688 325.053 294.618C322.103 296.509 320.853 298.458 321.233 301.958C322.053 309.618 328.223 319.268 321.293 325.828C320.073 326.978 317.963 327.128 316.763 325.828C313.903 322.719 309.953 320.348 306.563 317.838C305.143 316.799 306.323 314.779 307.933 315.498C310.053 316.449 312.213 317.569 314.423 318.549C309.543 314.529 302.603 312.558 296.823 311.388C293.913 310.808 290.853 310.638 287.823 310.909C285.583 311.978 283.293 312.969 281.003 313.938C278.093 315.159 275.153 316.268 272.193 317.319C261.923 325.688 257.023 339.299 259.163 352.609C260.333 359.958 263.723 367.949 270.113 372.239C277.683 377.319 287.823 375.138 296.003 378.909C303.663 382.438 308.323 389.569 311.813 396.949L313.268 400.021C316.507 406.824 319.837 413.447 324.263 419.638C329.383 426.808 335.653 433.248 342.493 438.779C345.811 441.456 349.348 443.863 353.003 446.056L354.003 446.649C357.703 448.819 360.353 450.888 360.603 455.478C360.683 457.078 359.673 458.538 358.373 459.368C352.773 462.918 347.203 458.478 342.543 455.378C337.513 452.038 332.703 448.279 328.253 444.179C319.793 436.399 312.473 427.159 306.843 417.128C302.553 409.489 300.113 398.739 293.333 392.819C289.193 389.208 283.343 389.179 278.173 388.518C273.363 387.899 268.813 386.899 264.533 384.529C247.123 374.859 242.203 351.449 246.333 333.359C247.033 330.308 248.013 327.338 249.223 324.478C242.743 325.558 235.463 318.859 238.093 312.098C238.293 311.588 238.523 311.109 238.743 310.618C234.473 307.808 231.103 303.549 229.503 297.978C228.683 295.098 228.563 292.188 228.993 289.378C226.923 287.989 225.213 286.078 224.113 283.728C220.673 282.138 217.623 279.759 215.803 276.359C213.283 271.668 213.603 267.348 215.523 263.458C215.253 262.969 214.993 262.469 214.743 261.958C207.693 257.489 202.773 249.788 203.333 241.248C203.513 238.418 204.213 235.868 205.293 233.569C205.203 233.279 205.113 232.978 205.033 232.688C199.133 229.688 194.253 224.759 192.513 218.179C190.773 211.558 192.823 204.958 196.923 199.878C190.923 195.489 187.313 189.359 189.503 180.088C190.393 176.319 192.183 172.888 194.603 169.998C194.593 169.909 194.573 169.819 194.553 169.728L193.991 169.293C186.584 163.448 182.326 155.999 186.873 146.838C188.913 142.719 191.823 139.848 195.243 137.958L195.413 137.418V137.418C192.963 132.168 192.133 126.338 193.823 120.208C195.203 115.159 198.473 111.138 202.653 108.469C202.373 106.208 202.413 103.799 202.863 101.188C203.613 96.7789 205.803 92.9289 209.003 90.1989C209.123 89.6179 209.273 89.0489 209.443 88.4779C210.523 84.9889 212.543 81.1989 214.883 78.3879C216.813 76.0579 218.973 75.2079 221.613 75.1179C221.453 72.9689 221.563 70.7879 222.003 68.5779C223.353 61.7589 227.693 55.3479 234.123 52.4379C236.763 51.2479 239.543 50.8989 242.223 51.1879C244.503 46.3879 248.953 42.9089 254.423 42.1589C256.553 41.8589 258.533 41.8779 260.353 42.1489C261.383 41.6679 262.453 41.2389 263.573 40.8479C264.313 40.5879 265.063 40.3479 265.813 40.1089C268.343 36.9689 271.673 34.4579 275.563 32.9489C280.053 31.1989 284.623 31.3779 288.673 32.8479L289.963 32.5779V32.5779C291.983 29.0779 295.203 26.3679 300.153 25.1379C305.773 23.7479 311.543 25.6879 315.963 29.2189C315.983 29.2189 316.003 29.2189 316.033 29.2079C318.343 24.0379 322.293 20.4379 328.923 20.6879C333.053 20.8479 336.783 22.8989 339.663 25.8189C341.263 25.6179 342.863 25.4379 344.473 25.2589C346.173 23.2679 348.063 21.4089 350.153 19.7389C353.573 16.9979 358.023 17.2189 360.543 21.0779C361.093 21.9179 361.603 22.7679 362.113 23.6179L364.423 23.4579V23.4579C367.143 19.7879 370.853 17.3079 375.933 17.1089C380.593 16.9179 383.913 19.1989 386.443 22.3879C388.503 22.3379 390.573 22.2989 392.643 22.2679C395.053 19.4779 397.893 17.0179 401.133 14.9779C403.613 13.4179 407.273 13.9489 409.283 16.0289C410.641 17.4429 411.905 18.9189 413.08 20.4469C416.109 17.0509 420.2 14.8139 424.571 13.9589ZM277.393 331.508C282.063 328.848 288.343 331.728 292.863 333.988C298.373 336.738 303.843 340.888 307.213 346.088C311.803 353.168 301.013 358.888 296.183 352.538C293.213 348.628 290.843 344.688 287.243 341.268C283.953 338.128 279.183 336.028 277.293 331.888C277.223 331.748 277.243 331.588 277.393 331.508ZM280.673 159.658L280.761 159.408C282.089 155.775 276.293 154.209 274.976 157.812C272.98 163.273 275.281 169.21 280.675 171.568C282.17 172.222 283.878 171.995 284.779 170.492C285.536 169.227 285.185 167.035 283.703 166.388C280.668 165.061 279.651 162.718 280.673 159.658V159.658ZM230.742 149.499C233.643 146.939 229.386 142.708 226.499 145.257C223.805 147.635 221.807 150.865 222.326 154.58C222.855 158.366 225.71 161.039 228.835 162.928C232.147 164.931 235.166 159.745 231.863 157.747L231.492 157.52C230.105 156.659 228.482 155.475 228.248 153.781C227.999 151.981 229.522 150.576 230.742 149.499ZM247.209 104.327L247.415 104.176C250.531 101.952 247.538 96.7459 244.386 98.9949C241.496 101.058 239.178 103.738 238.934 107.434C238.697 111.026 240.525 114.14 242.915 116.667C245.574 119.478 249.812 115.23 247.158 112.425C244.572 109.691 244.066 106.708 247.209 104.327V104.327Z" fill="black"/>
<path fill-rule="evenodd" clip-rule="evenodd" d="M423.759 425.153C423.759 406.761 450.828 402.802 474.192 402.802C497.556 402.802 523.81 408.194 523.81 425.153C523.81 442.111 496.282 444.819 479.141 444.819C462 444.819 423.759 443.545 423.759 425.153Z" fill="white"/>
<path fill-rule="evenodd" clip-rule="evenodd" d="M424 341C444.987 341 462 326.673 462 309C462 291.327 444.987 277 424 277C403.013 277 386 291.327 386 309C386 326.673 403.013 341 424 341Z" fill="white"/>
<path fill-rule="evenodd" clip-rule="evenodd" d="M534.5 341C551.897 341 566 326.673 566 309C566 291.327 551.897 277 534.5 277C517.103 277 503 291.327 503 309C503 326.673 517.103 341 534.5 341Z" fill="white"/>
<path fill-rule="evenodd" clip-rule="evenodd" d="M474.882 399.734C484.204 396.394 494.098 397.65 503.502 401.119L504.345 401.435C512.984 404.728 523.54 410.447 527.074 419.381C527.774 421.152 528.102 422.964 528.146 424.767C529.301 424.881 530.446 425.031 531.581 425.23C533.917 425.641 533.807 429.353 531.581 429.841C530.171 430.15 528.735 430.376 527.286 430.545C525.946 434.711 523.173 438.492 519.671 441.144C511.473 447.351 500.175 448.52 490.265 449.469C479.306 450.518 468.293 450.262 457.375 448.934L453.532 448.443C444.591 447.281 434.622 445.788 427.021 441.005C419.866 436.504 414.972 427.813 418.001 419.372C421.102 410.728 431.732 407.06 439.622 404.285C450.959 400.297 463.023 398.733 474.882 399.734ZM459.065 428.702C459.176 431.228 459.271 433.756 459.371 436.284C459.401 437.059 459.178 437.759 458.798 438.365C464.22 439.002 469.69 439.302 475.145 439.298C474.147 436.283 474.094 432.821 474.037 429.602C469.042 429.358 464.053 429.068 459.065 428.702ZM479.141 429.838L479.576 431.471C480.25 434.03 480.862 436.662 480.772 439.188C483.315 439.092 485.85 438.94 488.371 438.721L491.587 438.447C492.318 438.384 493.058 438.319 493.804 438.249C493.969 435.631 494.277 432.978 494.551 430.36C489.413 430.221 484.276 430.055 479.141 429.838ZM499.522 430.474C499.756 432.787 499.974 435.152 500.066 437.495C504.194 436.852 508.243 435.851 511.702 434.082C513.442 433.192 514.837 432.116 515.877 430.924C512.383 430.842 508.899 430.665 505.519 430.61C504.852 430.599 504.186 430.585 503.52 430.569L499.522 430.474ZM427.817 425.153C428.087 429.98 435.718 433.425 439.647 434.559C443.396 435.642 447.212 436.52 451.067 437.218C450.994 436.895 450.958 436.577 450.984 436.284C451.229 433.56 451.47 430.837 451.727 428.117L449.658 427.952C442.387 427.392 434.825 426.944 427.817 425.153ZM475.438 406.761C476.049 412.809 476.897 418.823 478.027 424.795L480.096 424.839V424.839C485.063 424.918 490.031 424.95 494.999 424.956C495.012 424.712 495.025 424.469 495.034 424.228C495.22 419.176 495.149 414.123 494.964 409.073C488.653 407.68 482.047 407.226 475.438 406.761ZM497.556 409.707C498.109 414.778 498.57 419.858 498.99 424.944L503.343 424.936C504.068 424.934 504.793 424.931 505.519 424.925C509.596 424.887 513.785 424.62 517.969 424.508C517.657 422.324 516.371 420.103 514.001 418.082C508.985 413.805 503.421 411.281 497.556 409.707ZM471.558 405.6C466.762 406.114 462.002 406.956 457.311 408.135C458.536 411.686 458.302 415.75 458.561 419.459C458.676 421.092 458.77 422.726 458.856 424.359C463.874 424.482 468.892 424.6 473.91 424.707C473.75 418.694 473.853 412.682 474.192 406.673L473.645 406.634V406.634C472.833 406.576 472.108 406.171 471.558 405.6ZM454.132 408.988C451.939 409.615 449.763 410.311 447.608 411.091L445.257 411.94C439.591 414.005 432.093 416.994 428.934 421.612C428.403 422.388 428.084 423.139 427.927 423.864C435.87 423.131 444.106 423.87 452.121 424.172C452.23 423.124 452.343 422.076 452.462 421.029L452.646 419.459C453.056 416.068 453.052 412.301 454.132 408.988ZM493.814 336.367C501.366 340.957 512.872 351.66 504.748 363.04C495.186 373.073 481.418 361.569 474.634 356.366C468.343 352.334 461.275 362.705 467.112 367.413C516.136 403.708 536.031 337.567 497.634 330.97C493.406 330.243 491.836 334.947 493.814 336.367ZM401.257 280.713C411.988 262.063 438.537 261.848 453.726 276.09C468.228 289.689 470.022 312.89 458.439 328.794C446.094 345.744 422.113 350.433 402.666 344.392C384.436 338.729 374.637 318.95 380.886 300.828C384.266 291.026 392.046 284.249 401.257 280.713ZM391.258 249.475C400.327 241.447 416.806 233.694 429.035 237.645C436.066 239.916 439.131 251.245 431.282 254.836C422.193 258.994 411.714 257.302 402.463 261.612C398.578 263.423 394.924 265.686 392.219 269.005C390.088 271.621 387.92 275.063 384.838 276.571C384.028 276.968 382.931 276.978 382.282 276.242C375.526 268.6 385.359 254.696 391.258 249.475ZM520.802 237.247C526.407 235.674 532.625 235.706 538.319 236.694C544.011 237.682 549.79 240.041 554.437 243.482L554.976 243.885C560.049 247.707 566.103 253.27 565.779 260.042C565.508 265.697 559.559 269.522 554.423 266.558C550.236 264.141 548.266 259.299 544.721 256.075C541.796 253.414 538.36 251.316 534.694 249.846C530.622 248.213 526.543 247.448 522.173 247.375C518.808 247.319 515.423 248.423 512.121 248.776C512.393 249.334 509.783 249.074 508.287 248.579C507.179 248.107 507.173 246.706 507.557 245.797C509.462 241.294 516.393 238.483 520.802 237.247ZM526.903 268.891C536.292 267.027 546.731 269.068 554.589 274.572C568.679 284.441 575 304.851 568.452 320.814C561.954 336.657 544.193 346.736 527.257 343.709C509.968 340.619 496.594 323.209 498.459 305.669C499.252 298.202 502.509 291.472 507.328 286.385C507.365 286.21 507.406 286.033 507.475 285.851C510.863 276.834 517.283 270.802 526.903 268.891ZM440.989 283.23C430.224 276.75 414.397 280.368 405.15 288.191C403.314 289.745 401.242 289.29 400.115 287.934C393.839 293 389.408 300.087 388.696 308.717C387.421 324.196 398.444 334.376 413.296 335.547C428.474 336.744 444.182 332.508 451.331 317.965C457.504 305.41 452.973 290.443 440.989 283.23ZM542.898 283.9C534.469 280.595 522.38 282.548 515.02 288.204C509.417 295.428 506.69 305.34 508.844 313.458C511.956 325.182 523.206 334.315 535.565 333.016C547.003 331.814 557.337 322.658 558.565 311.033C559.746 299.852 553.61 288.1 542.898 283.9ZM535.747 301.444C537.668 300.074 539.96 301.617 540.663 303.444L541.065 304.272C541.278 304.715 541.496 305.173 541.504 305.19L541.58 305.411C541.682 305.602 541.804 305.78 541.92 305.961C542.01 306.023 542.757 306.958 542.857 307.08C544.062 308.568 544.702 309.929 544.664 311.887C544.591 315.758 540.979 318.484 537.234 317.547C533.206 316.539 531.491 312.373 531.858 308.548C532.149 305.52 533.252 303.223 535.747 301.444ZM426.388 302.183C428.165 300.567 430.907 300.431 432.661 302.183C433.624 303.145 434.014 304.217 434.705 305.336L435.032 305.85C435.751 306.955 436.503 308.015 436.697 309.369C437.155 312.558 436.166 315.526 433.024 316.853C429.899 318.171 427.005 316.823 425.102 314.257C422.85 311.217 423.534 304.777 426.388 302.183Z" fill="black"/>
<path fill-rule="evenodd" clip-rule="evenodd" d="M533.53 371.241C524.479 367.009 514.751 364.49 504.757 363.597C500.435 363.21 491.945 361.989 487.348 364.808C485.198 366.128 483.381 367.972 481.94 370.224C481.378 369.447 480.638 368.785 480.17 367.945C477.653 363.423 462.205 363.329 457.541 363.713C446.481 364.623 435.716 367.22 425.578 371.586C407.377 379.426 392.087 395.715 396.895 416.395C397.575 419.324 400.856 420.463 403.559 419.957C421.778 416.542 439.997 413.126 458.217 409.711C462.446 408.919 466.676 408.126 470.905 407.333C474.73 406.616 479.418 406.389 483.048 404.739C484.508 405.363 486.134 405.759 487.87 406.103C509.791 410.457 531.74 414.681 553.675 418.97C556.305 419.485 559.755 418.151 560.227 415.237C563.375 395.793 550.992 379.405 533.53 371.241" fill="black"/>
</svg>
