<svg width="818" height="1232" viewBox="0 0 818 1232" fill="none" xmlns="http://www.w3.org/2000/svg">
<path fill-rule="evenodd" clip-rule="evenodd" d="M56.5732 1152.86C55.2122 1152.9 55.6412 1152.51 56.1412 1152.41C56.2852 1152.56 56.4292 1152.71 56.5732 1152.86ZM96.7582 1182.73C134.785 1187.24 172.859 1183.12 210.699 1178.98C287.359 1173.3 363.48 1189.85 440.291 1184.81C536.283 1180.76 632.536 1173.16 728.209 1185.97C754.672 1186.57 796.88 1193.71 787.283 1152.75C774.677 1047.43 757.823 942.643 739.769 838.135C724.468 779.546 723.362 678.206 681.464 637.463C675.338 631.87 653.367 613.778 647.558 611.349C618.679 600.597 566.617 592.207 545.138 569.415C527.74 539.977 535.833 499.806 508.78 476.106C485.07 456.748 433.32 460.84 407.971 475.376C387.971 488.344 384.838 513.532 372.376 532.159C369.302 536.622 362 547.381 357.877 550.852C347.841 560.515 312.589 570.667 302.409 572.532C244.962 584.304 216.318 591.577 171.135 629.751C53.0772 750.276 69.8122 963.446 37.1452 1121.05C35.8082 1138.38 25.2752 1161.89 44.0672 1173.05C60.2522 1180.8 79.2822 1179.95 96.7582 1182.73Z" fill="#694D3D"/>
<path fill-rule="evenodd" clip-rule="evenodd" d="M531.968 529.348C532.109 528.938 532.768 528.868 532.868 529.348C534.479 536.717 537.498 544.798 540.558 551.708C543.668 558.708 547.918 565.138 553.288 570.598C564.538 582.038 579.008 587.258 594.878 587.268L595.258 587.278C595.332 586.745 595.414 586.211 595.49 585.678L595.598 584.878C597.048 573.918 610.058 574.238 612.598 582.508C613.888 582.918 615.178 583.328 616.458 583.758L616.714 583.85C618.869 584.67 626.168 588.305 627.508 587.338C630.458 585.217 633.828 587.648 634.948 590.358C636.779 594.795 637.084 600.279 637.679 605.093L637.758 605.717L637.848 606.467C679.598 617.318 703.028 659.088 714.988 697.568C721.468 718.428 725.708 739.948 729.968 761.348C734.528 784.238 738.729 807.188 743.178 830.088C751.948 875.217 760.248 920.448 767.458 965.848L769.549 979.032C776.154 1020.78 782.588 1062.5 787.998 1104.44C790.918 1127.05 793.658 1149.68 796.298 1172.33C796.771 1176.37 797.24 1180.41 797.705 1184.45L798.399 1190.52C799.018 1195.96 800.068 1201.34 797.378 1206.43C791.548 1217.47 773.888 1217.39 772.888 1203.25C772.689 1200.44 773.638 1198.29 775.208 1196.79L775.186 1196.55C775.171 1196.41 775.155 1196.3 775.149 1196.26C774.628 1193.45 774.488 1190.48 774.168 1187.64C773.468 1181.58 772.788 1175.52 772.098 1169.45C770.768 1157.89 769.428 1146.33 768.038 1134.78C765.229 1111.35 762.258 1087.95 759.109 1064.57L755.987 1041.45C745.547 964.394 734.666 887.353 720.348 810.908C716.448 790.098 712.439 769.318 708.328 748.548C704.428 728.878 700.048 709.298 693.508 690.308C682.828 659.288 664.158 630.238 638.238 609.878C638.638 613.768 638.928 617.678 639.298 621.568C640.248 631.558 641.258 641.538 642.278 651.518C645.988 687.678 651.018 723.778 659.598 759.137C663.848 776.658 669.028 793.948 675.338 810.838C678.448 819.158 681.838 827.368 685.558 835.428C689.238 843.398 695.689 851.918 696.078 860.798C696.258 864.908 691.958 868.558 687.979 868.118C689.838 884.478 690.888 901.008 691.998 917.328C693.618 940.967 694.908 964.648 696.798 988.268C700.178 1030.58 704.418 1072.83 708.858 1115.04C709.738 1123.41 710.695 1131.77 711.642 1140.13L712.434 1147.15C712.968 1151.7 713.774 1157.15 711.358 1161.19C713.518 1166.4 714.998 1171.75 715.859 1177.33C716.948 1184.27 712.979 1192.05 704.878 1191.75C703.958 1191.72 703.038 1191.64 702.118 1191.54C694.608 1193.28 687.118 1194.81 679.318 1194.86C669.358 1194.93 659.378 1194.73 649.418 1194.66C630.149 1194.53 610.878 1194.4 591.608 1194.24C521.848 1193.68 452.058 1193.71 382.308 1192.59L354.401 1192.14C328.817 1191.73 303.23 1191.26 277.658 1190.33C260.048 1189.69 242.439 1189.04 224.838 1188.33L221.255 1188.19C205.725 1187.63 190.177 1187.34 174.818 1184.96C174.433 1184.89 174.267 1184.49 174.326 1184.14L174.348 1184.05L173.678 1183.9C173.288 1185.58 165.188 1178.52 165.248 1173.83C161.888 1169.46 163.458 1162.48 163.818 1157.42C164.168 1152.49 164.608 1147.55 164.998 1142.62C165.828 1132.09 166.538 1121.55 167.388 1111.02C170.818 1068.56 173.778 1025.99 175.698 983.438C176.668 961.988 177.448 940.528 178.268 919.078C178.637 909.312 179.151 899.537 180.109 889.816L180.358 887.387C181.408 877.528 181.308 866.928 184.938 857.637C184.988 857.508 185.158 857.508 185.208 857.637C188.878 866.678 189.228 877.188 189.968 887.108C190.098 887.068 190.228 887.048 190.368 887.018C195.438 884.608 200.558 882.438 205.358 879.458C206.008 879.058 206.638 878.637 207.278 878.228C214.828 855.128 223.578 832.408 231.628 809.458C257.638 735.248 271.998 656.217 275.178 577.638C255.338 590.428 233.73 600.379 212.726 611.064L210.758 612.068C190.068 622.648 170.258 634.658 155.528 653.008C142.688 668.988 134.298 688.458 126.448 707.228C118.018 727.398 110.418 747.928 103.468 768.648C89.3682 810.688 78.4482 853.758 69.9282 897.268C61.5182 940.208 55.5082 983.467 51.4882 1027.03C49.4382 1049.25 47.5682 1071.49 45.9982 1093.76C45.1982 1105.03 44.4882 1116.31 43.8282 1127.6C43.5082 1133.08 43.2682 1138.57 42.9082 1144.05C42.6882 1147.21 42.6482 1150.47 41.6082 1153.47C40.7382 1155.97 39.1982 1158.06 37.7582 1160.27C35.1282 1164.3 28.4882 1165.03 26.0182 1160.27L24.9487 1158.21C23.533 1155.46 22.2402 1152.7 22.0482 1149.53C21.8682 1146.53 22.2382 1143.4 22.4082 1140.39C22.7382 1134.3 23.1182 1128.2 23.4982 1122.11C24.2982 1109.3 25.1882 1096.49 26.1882 1083.69C28.1782 1058.05 30.7382 1032.48 33.9582 1006.96C45.2882 917.328 61.6482 828.168 92.8682 743.108C100.588 722.078 109.198 701.217 118.918 681.028C128.318 661.508 140.208 643.078 157.468 629.638C173.356 617.264 191.825 608.981 210.175 600.942L212.468 599.938C233.038 590.948 253.568 581.268 275.048 574.588C274.568 574.648 274.098 574.708 273.689 574.848C273.218 574.998 272.939 574.388 273.229 574.058C274.448 572.708 274.958 571.318 276.359 569.988C277.326 569.068 278.333 568.199 279.368 567.361L280.857 566.176C283.582 564.013 286.447 561.802 289.878 561.048C294.729 559.988 297.109 564.398 295.748 567.848C296.448 566.938 298.328 567.208 298.818 568.458C314.778 609.618 325.258 653.188 346.738 692.078C362.598 720.808 383.878 747.338 412.118 764.688C427.288 774.008 444.649 781.168 462.578 782.298C478.678 783.308 494.168 779.217 507.859 770.768C534.399 754.398 551.729 725.658 564.088 697.808C577.678 667.148 587.378 634.478 593.078 601.358C575.018 601.608 555.958 593.368 543.948 579.938C537.628 572.868 532.918 564.258 530.528 555.078C528.118 545.818 528.888 538.208 531.968 529.348ZM380.458 505.298C382.659 501.368 387.539 500.068 391.529 501.668C395.958 503.448 397.289 507.748 396.659 512.118C395.928 517.238 392.638 522.769 390.079 527.238C387.399 531.918 383.949 536.229 380.378 540.258C373.659 547.858 366.468 554.708 357.939 560.309C349.449 565.878 339.848 570.048 329.979 572.378L327.633 572.925C319.955 574.681 309.033 576.692 302.638 572.519C302.329 572.318 302.338 571.908 302.638 571.708C306.098 569.298 310.729 568.868 314.708 567.729C319.048 566.479 323.399 565.059 327.548 563.278C335.739 559.758 343.579 555.118 350.558 549.578C357.569 544.019 364.348 537.389 369.039 529.738C371.399 525.899 373.409 521.868 375.338 517.809C377.289 513.738 378.268 509.218 380.458 505.298Z" fill="black"/>
<path fill-rule="evenodd" clip-rule="evenodd" d="M590.581 283.192C590.183 260.79 589.743 237.94 586.413 215.756C583.157 194.068 574.2 174.464 558.808 158.715C526.115 125.262 478.725 117.091 434.613 109.603L359.194 96.8001C336.185 92.8951 311.638 86.6531 288.391 92.1911C276.936 94.9201 267.208 101.26 258.317 108.761C249.747 115.991 240.533 123.755 234.726 133.482C228.909 143.223 226.908 154.61 225.017 165.627C222.884 178.048 221.227 190.566 220.05 203.114C217.691 228.254 217.369 253.583 219.08 278.775C219.909 290.994 221.228 303.178 222.912 315.308C223.747 321.323 224.691 327.323 225.757 333.302C226.071 335.065 226.31 337.017 226.632 338.989C224.253 345.755 222.901 352.762 223.01 359.739C223.331 380.291 240.678 393.23 258.166 400.177C268.306 404.205 278.907 406.942 288.87 411.442C299.351 416.175 306.485 423.848 313.651 432.601C327.318 449.295 342.741 464.299 360.352 476.817C397.69 503.358 444.982 515.911 490.286 506.383C501.156 504.097 512.122 500.547 521.893 495.198C532.209 489.551 539.966 481.368 546.48 471.693C558.575 453.732 567.249 433.507 573.811 412.926C580.504 391.932 585.255 370.9 587.846 349.009C590.428 327.189 590.972 305.147 590.581 283.192V283.192Z" fill="#694D3D"/>
<path fill-rule="evenodd" clip-rule="evenodd" d="M349.911 18.7638C381.121 14.4708 424.198 28.4238 439.741 56.5578C513.947 39.0638 607.54 38.4908 668.701 96.7278C732.52 165.81 652.36 256.895 599.207 277.431C603.077 296.238 597.043 416.723 554.348 470.466C520.464 516.002 441.557 537.017 405.044 482.628L404.759 482.179C400.847 475.898 404.216 476.099 408.232 480.772C443.986 512.214 492.599 512.751 530.06 479.569C600.268 418.919 593.029 270.209 559.621 184.178C464.491 173.73 362.637 202.563 296.932 274.172L301.375 300.92C302.132 305.477 302.992 310.03 303.648 314.603C304.068 317.533 304.115 320.447 302.085 322.819C295.382 330.649 284.085 318.883 274.79 314.203C272.046 313.817 269.297 313.668 266.601 313.858C221.943 319.61 230.742 406.24 279.824 391.055C283.948 388.486 287.491 389.27 289.091 392.998C300.79 403.714 308.504 422.826 327.941 441.234C334.799 448.139 341.04 453.916 348.754 459.455C353.285 464.037 366.957 468.709 362.623 476.55C354.427 494.392 306.096 438.347 297.551 422.848C270.778 433.42 241.108 429.829 213.363 427.245C66.993 419.635 86.533 265.345 206.509 167.934C229.093 151.308 254.01 137.745 279.911 127.308C283.447 125.883 281.902 120.077 278.316 121.522C261.178 128.429 244.471 136.65 228.545 146.165L228.521 140.476C228.498 130.895 228.648 120.92 230.312 112.166C231.144 106.1 232.543 99.6208 234.697 94.7468C237.36 79.8038 279.075 28.5118 349.911 18.7638ZM264.648 333.746C266.908 331.599 271.127 334.159 273.139 334.095C278.284 334.799 283.172 336.972 286.984 339.654C289.501 341.064 291.265 342.388 292.739 343.606L292.779 343.595C292.768 343.595 292.754 343.606 292.742 343.609L292.88 343.703C295.027 345.228 302.884 353.817 297.92 351.507C297.55 351.026 297.171 350.564 296.789 350.111C296.748 350.173 296.691 350.234 296.623 350.293L296.901 350.707C301.12 357.054 293.836 350.367 292.716 348.591C292.663 348.634 292.603 348.663 292.544 348.694L294.003 350.471C294.207 350.723 294.367 350.924 294.501 351.094L294.808 351.392C299.686 356.186 299.839 360.501 294.172 353.412C294.395 353.746 294.574 354.1 294.599 354.414L294.934 354.843C299.384 360.576 295.765 358.54 293.554 356.091L293.369 355.881L293.407 355.938C295.464 359.107 291.382 356.883 290.661 355.188L290.631 355.111C289.845 354.47 289.361 353.751 289.195 353.569L289.165 353.538C285.339 349.618 279.793 346.301 275.082 344.794C274.399 344.664 273.708 344.56 273.01 344.486C270.177 343.854 267.313 343.421 264.419 343.187C264.065 343.145 263.706 342.885 263.438 342.549C259.061 342.402 260.412 340.608 262.228 340.275L262.26 340.27L261.9 340.239C259.091 339.965 257.173 338.957 260.013 338.339L260.373 338.267C260.329 338.198 260.29 338.129 260.252 338.06C257.82 337.793 259.407 335.429 260.757 336.001C260.189 334.144 262.785 335.071 263.109 334.795C263.356 334.521 263.663 334.279 263.84 334.266C264.622 333.714 264.243 333.764 264.648 333.746ZM279.528 303.681L278.958 304.014C278.497 304.283 278.023 304.462 277.547 304.567C278.219 304.853 278.883 305.162 279.54 305.492C279.529 305.088 279.522 304.686 279.522 304.283L279.528 303.681Z" fill="black"/>
<path fill-rule="evenodd" clip-rule="evenodd" d="M483.872 448.917C477.085 451.585 469.066 452.216 462.061 449.942C455.363 447.768 449.28 442.929 445.6 436.844C442.322 431.424 440.953 424.992 442.89 418.58C442.983 418.273 443.284 418.077 443.574 418C445.159 419.443 446.138 420.876 447.116 422.302C448.766 424.707 450.419 427.086 452.688 429.142C455.99 432.133 460.438 434.561 464.853 435.362C469.175 436.148 473.599 435.454 477.47 433.385C479.824 432.127 481.727 430.446 483.611 428.757C485.664 426.918 487.683 425.051 490.51 424.013C492.774 423.181 495.153 423.883 496.981 425.275C498.945 426.772 500.358 429.114 500.28 431.563C500.158 435.357 498.498 438.522 496.088 441.133C492.83 444.663 488.224 447.206 483.872 448.917ZM475.814 354.367C483.366 358.957 494.872 369.66 486.748 381.04C477.186 391.073 463.419 379.569 456.634 374.366C450.343 370.334 443.275 380.705 449.112 385.413C498.136 421.708 518.031 355.567 479.634 348.97C475.406 348.244 473.836 352.947 475.814 354.367ZM396.388 290.768C406.68 290.276 415.75 294.898 425.558 296.998C434.622 298.94 443.552 297.774 452.367 295.304C466.673 291.295 472.587 313.195 458.476 317.463C448.2 320.571 437.38 320.787 426.835 319.185C417.468 317.761 409.616 313.201 400.685 310.546C393.02 308.269 384.004 309.215 375.91 310.288L372.768 310.71C368.098 311.339 363.403 311.97 358.779 312.883C354.767 313.676 350.762 315.127 346.667 315.295C346.202 315.315 345.808 314.711 346.101 314.308C350.858 307.778 360.026 302.625 367.319 299.188L367.813 298.956C376.815 294.759 386.365 291.246 396.388 290.768ZM392.617 338.924L392.616 338.699C392.63 332.322 396.344 317.762 405.524 317.762C411.259 317.762 414.741 327.671 415.344 337.886L415.365 338.302C415.631 344.653 413.888 358.534 405.524 358.534C397.072 358.534 392.704 345.387 392.617 338.924V338.924ZM527.773 338.924L527.774 338.699C527.76 332.322 524.046 317.762 514.866 317.762C509.274 317.762 505.824 327.182 505.097 337.12L505.046 337.886C504.684 344.022 506.314 358.534 514.866 358.534C523.318 358.534 527.686 345.387 527.773 338.924V338.924ZM527.632 283.002L528.289 283.016C539.017 283.388 550.052 289.743 552.916 300.418C553.064 300.972 552.381 301.345 551.976 300.965C543.154 292.706 531.291 300.598 522.458 304.734L519.214 306.233C507.826 311.531 494.875 317.759 482.232 313.811C476.227 311.936 472.413 305.766 474.126 299.534C475.649 293.989 482.342 289.329 488.14 291.33L488.403 291.426C493.113 293.228 498.904 291.402 503.768 289.603L507.764 288.102C514.19 285.664 520.645 282.936 527.632 283.002V283.002Z" fill="black"/>
<path fill-rule="evenodd" clip-rule="evenodd" d="M500.595 402.879C503.335 405.689 505.965 408.699 508.445 411.809C509.135 416.749 509.295 421.749 508.665 426.909C507.745 434.389 505.705 441.699 502.945 448.719C501.315 448.489 499.705 448.029 498.135 447.309C493.155 445.019 490.375 440.409 487.005 436.339C480.295 428.249 468.055 423.469 459.495 431.859C455.775 435.509 453.395 440.559 450.075 444.569C446.425 448.979 442.325 453.169 438.045 456.969C437.515 457.449 436.965 457.969 436.395 458.479C434.015 455.759 431.675 453.019 429.385 450.239C422.575 441.959 416.695 432.789 413.605 422.449C412.625 419.169 412.015 415.749 411.775 412.299C414.805 408.539 418.265 405.119 422.195 402.289C434.045 393.739 447.695 392.349 461.895 391.609C476.585 390.849 489.815 391.849 500.595 402.879M536.434 442.549C535.864 436.829 534.984 430.879 533.684 424.939C528.934 402.899 518.645 380.929 498.015 370.859C488.255 366.089 477.165 364.409 466.645 366.709C448.185 359.799 427.685 366.849 413.155 379.489C396.015 394.399 388.105 417.799 385.445 439.719C383.595 454.969 382.898 475.344 387.225 486.409C391.552 497.474 419.051 527.063 458.305 527.269C514.215 527.562 527.804 489.859 529.454 486.559C536.344 472.839 537.944 457.689 536.434 442.549" fill="black"/>
</svg>
