<svg width="1021" height="1224" viewBox="0 0 1021 1224" fill="none" xmlns="http://www.w3.org/2000/svg">
<path fill-rule="evenodd" clip-rule="evenodd" d="M996.082 700.431C981.802 701.833 967.523 703.233 953.244 704.635C884.856 709.86 816.495 720.772 748.63 727.321C746.94 724.571 743.633 725.024 741.625 726.935C734.853 726.342 727.264 721.166 721.129 726.55C720.93 726.522 720.731 726.489 720.53 726.47C709.608 705.507 702.058 683.148 694.731 660.759C690.054 646.994 683.762 633.669 672.134 624.427C652.29 610.652 606.822 582.719 583.521 583.893C583.134 579.721 581.189 575.421 577.996 572.643C585.034 560.644 556.893 552.815 554.908 554.206C556.18 514.118 537.323 479.304 495.743 471.321C458.492 463.559 405.51 462.255 385.476 501.184C383.274 500.936 360.762 500.819 358.584 501.063C355.198 496.774 318.008 537.416 333.251 551.565C196.978 611.847 119.493 604.654 81.7753 774.123C76.6761 790.043 76.3048 807.464 70.9203 823.029C51.764 867.76 36.2263 915.391 32.3594 964.063C23.02 966.456 21.9459 982.923 32.7638 985.305C36.896 986.216 40.3515 987.46 43.3645 989.819C41.0092 1029.71 50.6559 1120.82 56.734 1120.54C69.1275 1159.98 124.409 1171.11 163.547 1157.25C156.8 1169.95 163.547 1177.93 163.547 1184.71C304.374 1190.04 458.353 1186.97 599.141 1194.27C617.151 1194.02 636.093 1198.7 653.856 1196C664.689 1193.41 664.707 1176.37 653.718 1174.27L701.731 1163.84C700.658 1163.44 721.522 1149.56 737.291 1123.62C751.969 1094.61 741.979 1059.6 748.63 1028.04C800.575 1023.79 853.378 1021.98 904.754 1013.18C911.759 1034.14 942.082 1009.07 951.721 998.989C951.709 998.973 951.697 998.958 951.685 998.942C956.35 997.666 960.091 993.294 960.216 988.118C963.487 983.444 964.174 976.856 961.037 972.339C975.415 889.371 997.335 804.659 1005.26 720.911C1008.06 720.291 1010.7 719.063 1012.93 717.171L1012.75 716.99C1016.54 712.766 1017.28 705.475 1010.96 701.886C1005.87 698.988 1001.61 699.887 996.082 700.431Z" fill="#EDB98A"/>
<path fill-rule="evenodd" clip-rule="evenodd" d="M453 1010.96L464 1017.96L554 1046.96L609 1053.96L654 1046.96V1123.96L663 1195.96C659 1203.29 621 1203.29 549 1195.96C503.102 1191.28 335.356 1189.02 297.164 1188.02L295 1187.96C250.12 1186.66 205.787 1186.66 162 1187.96V1160.96L287 1098.96L399 1035.96L453 1010.96ZM389.229 494.891L397.495 501.063L379.448 530.713L467.361 601.824V658.623L495.193 684.948L511.102 658.623L533.519 628.812L549.45 580.488L544.026 548.651L554.934 547.623C554.987 549.799 554.978 551.995 554.908 554.206C556.893 552.815 585.034 560.644 577.996 572.643C581.189 575.421 583.134 579.721 583.521 583.893C606.822 582.719 652.29 610.652 672.134 624.427C683.762 633.669 690.054 646.994 694.731 660.759L695.832 664.117L696.969 667.565L698.114 671.009C704.443 689.944 711.276 708.709 720.53 726.47C720.731 726.489 720.93 726.522 721.129 726.55C727.264 721.166 734.853 726.342 741.625 726.935C743.587 725.069 746.787 724.593 748.51 727.135L748.63 727.321L664.259 743.942L608.598 939.186L560.126 899.84L534.108 903.709L465.399 928.491L385.486 949.248L203.055 999.543H179.824L44.639 966.898L32.4561 962.877C36.4792 914.617 51.9197 867.397 70.9204 823.029C76.3048 807.464 76.6762 790.043 81.7753 774.123C119.493 604.654 196.978 611.847 333.251 551.565C318.008 537.416 355.198 496.774 358.584 501.063L358.798 501.045L359.259 501.02L359.854 500.999C365.17 500.845 383.5 500.962 385.476 501.184C386.622 498.957 387.876 496.861 389.229 494.891Z" fill="#FFCF77"/>
<path fill-rule="evenodd" clip-rule="evenodd" d="M1009.57 706.36L1007.05 720.364C1006.46 720.56 1005.85 720.726 1005.23 720.862C1004.44 729.211 1003.51 737.569 1002.47 745.934L986.887 832.774C984.2 848.137 981.649 863.533 979.116 878.934L975.76 895.477L973.682 905.759C969.195 928.026 964.837 950.219 961.012 972.29C961.589 973.121 962.037 974.022 962.363 974.969L962.069 976.213L961.864 977.042L961.655 977.862C958.637 989.463 953.386 1000.71 941.011 1004.13C931.677 1006.7 921.435 1006.93 911.797 1007.95L910.728 1008.06L742.069 1027.03C721.69 1029.32 701.321 1031.68 680.953 1034.07L663.296 1036.14C638.686 1038.99 613.934 1041.23 589.686 1046.39C588.795 1046.58 588.057 1046.94 587.455 1047.4C592.338 1028.92 597.012 1010.46 601.248 991.793C606.016 970.78 610.541 949.726 615.641 928.789C625.915 886.609 637.432 844.706 650.04 803.163C652.686 794.444 655.393 785.742 658.159 777.06L660.101 770.992L661.595 766.156C663.906 758.782 666.767 751.204 673.546 747.137C681.48 742.376 692.299 741.587 701.297 739.941L707.39 738.796C716.506 737.096 725.634 735.459 734.773 733.888C778.529 726.362 822.533 720.325 866.699 715.79C912.657 711.07 958.776 708.003 1004.95 706.504L1009.57 706.36ZM590.95 995.903L591.38 995.939L585.08 1046.3C584.073 1045.59 582.794 1045.16 581.233 1045.17C560.569 1045.23 540.76 1038.62 521.6 1031.36L518.682 1030.25L510.547 1027.12C502.278 1023.96 493.965 1020.86 485.497 1018.29L482.074 1017.25L480.334 1016.74C473.923 1014.87 467.178 1013.17 460.509 1012.74L459.6 1012.69L461.542 1011.68C461.826 1011.53 462.075 1011.36 462.296 1011.18C465.967 1011.45 469.645 1011.38 473.517 1010.68C480.799 1009.37 487.88 1006.84 494.382 1003.31L497.286 1001.73L498.475 1001.1L499.26 1000.7L500.041 1000.3C505.626 997.518 510.965 995.775 518.016 997.258C526.021 998.943 533.035 1003.26 540.25 1006.9L541.531 1007.54L542.392 1007.96L543.269 1008.37L544.158 1008.77C553.915 1013.16 569.443 1017.9 573.184 1004.64C574.687 999.307 573.51 994.316 570.902 989.94C575.762 989.519 584.445 995.249 590.95 995.903ZM833.828 829.975L833.945 830.579C835.325 838.007 831.865 845.112 826.629 850.292C822.334 854.54 814.733 856.901 812.58 863.012C811.354 866.489 812.658 869.786 815.176 872.085L814.596 872.371L814.029 872.661L813.476 872.954L812.936 873.249L812.41 873.546C803.856 878.46 796.89 886.452 804.605 896.105C813.357 907.055 831.644 907.41 844.528 906.553L845.396 906.493C857.89 905.556 872.689 901.359 879.463 889.824C882.57 884.532 882.228 878.132 877.897 873.603C875.284 870.871 870.623 868.065 866.349 867.733C866.536 865.325 866.249 862.999 865.402 861.036C863.57 856.793 858.695 853.936 853.993 853.833C854.374 844.823 847.158 835.93 841.844 828.727L841.302 827.988L840.775 827.262C838.337 823.87 833.121 825.77 833.828 829.975ZM840.957 839.565L845.798 857.699L845.715 857.848C844.01 861.086 848.48 864.762 851.131 862.041L851.398 861.753C854.545 858.503 859.375 862.872 859.435 866.331C859.521 871.2 856.351 874.965 852.574 877.452L852.31 877.623L851.614 878.056C848.514 880.104 850.861 884.387 854.268 883.866C858.484 883.221 861.939 879.877 864.069 875.702C866.345 876.354 868.935 876.275 871.332 877.616C877.372 880.994 873.898 886.903 869.965 890.475L869.805 890.619L869.485 890.898C862.269 897.051 852.444 899.189 843.183 899.647L842.649 899.672C833.294 900.072 821.106 900.206 813.088 894.704C808.098 891.28 806.653 886.424 810.876 881.825C813.264 879.226 815.675 876.604 818.157 874.07C821.872 875.843 825.19 875.124 828.989 873.446C829.476 873.23 829.206 872.485 828.729 872.485C826.633 872.483 818.942 868.592 818.568 866.106C818.222 863.805 822.477 861.865 824.546 860.753L824.846 860.589L825.106 860.438C827.27 859.127 829.307 857.601 831.169 855.887C835.895 851.537 839.327 846.08 840.826 840.109L840.957 839.565Z" fill="white"/>
<path fill-rule="evenodd" clip-rule="evenodd" d="M388.072 492.143C392.315 481.48 406.658 485.625 405.059 496.827C404.102 503.537 400.427 510.624 397.126 516.505C394.438 521.292 391.372 525.964 387.215 529.552C394.615 536.456 402.296 543.108 410.172 549.424C418.766 556.315 427.803 562.667 437.144 568.505C445.335 573.625 453.896 578.161 461.617 584.003C468.796 589.434 475.336 595.966 478.664 604.493C482.209 613.574 480.668 622.951 478.058 632.025L477.758 633.051C475.091 642.041 470.474 652.878 476.876 661.348C480.135 665.66 484.873 668.714 488.964 672.161C492.6 675.225 496.013 678.557 499.143 682.136C505.968 689.938 511.519 698.717 515.022 708.499L515.335 709.388C518.338 718.047 520.532 728.655 516.475 737.157C515.311 739.594 511.557 738.802 510.905 736.429C509.431 731.053 509.508 725.423 508.272 719.971C506.986 714.301 504.846 708.919 502.051 703.827C496.643 693.976 489.319 685.562 480.666 678.448L478.076 676.342C471.326 670.802 465.124 664.925 463.754 655.757C462.288 645.948 466.218 636.604 468.745 627.32C470.506 620.85 471.081 614.648 469.178 608.801C466.853 612.596 463.681 616.198 461.172 619.411C456.175 625.812 451.131 632.174 446.1 638.548C440.942 645.084 435.911 651.723 431.12 658.534C428.977 661.581 426.857 664.646 424.744 667.714C423.155 670.02 420.939 672.324 419.207 674.676C419.628 675.934 419.596 677.384 418.833 678.414C409.648 690.824 396.581 664.93 393.173 658.388C386.233 645.065 381.068 630.911 374.105 617.591C366.89 603.783 358.674 590.343 349.517 577.737C343.978 570.112 337.77 562.95 332.703 555.083C320.766 565.907 305.058 573.163 290.63 579.743C274.777 586.972 258.308 592.877 242.055 599.148L237.254 601.012C209.249 611.942 180.56 623.949 157.283 643.362C129.93 666.175 113.748 697.971 101.701 730.897C87.8328 768.802 76.3598 807.73 65.6648 846.633C60.1918 866.538 54.9988 886.533 50.1168 906.592C45.8148 924.264 42.2488 942.112 37.2688 959.602C47.3688 959.245 58.8878 963.155 67.5108 964.284C106.81 969.428 145.58 977.628 182.683 991.825C187.266 993.579 188.592 998.156 187.594 1001.87C190.237 1001.12 192.878 1000.36 195.521 999.622C192.625 995.185 194.007 987.253 194.235 982.335L194.249 981.997C194.483 975.444 195.194 968.884 195.655 962.343C196.533 949.874 197.675 937.497 199.195 925.099L199.583 921.999C201.305 908.511 202.578 894.944 204.457 881.479L204.679 879.938C203.778 876.493 202.729 873.09 201.628 869.702C198.694 860.677 194.553 852.182 190.924 843.441C190.496 842.412 191.962 841.821 192.647 842.438C198.793 847.967 203.675 854.981 207.597 862.317C207.665 861.971 207.725 861.624 207.796 861.278L208.243 859.075C209.347 853.703 210.689 848.051 213.985 843.694C214.336 843.231 215.03 843.134 215.362 843.694C218.516 849.031 218.869 855.79 219.354 861.863C219.903 868.733 219.972 875.69 219.875 882.579C219.686 896.042 218.737 909.543 217.981 922.984C217.239 936.193 215.783 949.233 213.906 962.311L213.549 964.764C212.631 970.989 211.88 977.292 210.67 983.474L210.328 985.157C209.681 988.223 209.283 992.546 207.995 996.137C241.133 986.894 274.322 977.862 307.574 968.989C331.607 962.575 355.665 956.257 379.713 949.899C380.982 947.612 382.562 945.476 384.534 943.567C391.031 937.275 399.641 934.468 407.538 939.311C408.18 939.706 408.234 940.712 407.538 941.093C406.025 941.92 404.509 942.768 403.02 943.652L417.46 939.741C428.253 936.816 439.175 933.161 450.222 931.122C470.569 921.081 492.453 913.813 513.887 906.63L516.413 905.776C527.387 902.034 538.739 897.846 550.078 895.771C558.379 894.253 568.123 896.085 571.461 904.589C575.687 907.374 579.663 910.647 583.5 913.866C586.274 916.192 588.933 918.665 591.637 921.073L592.135 921.511C594.346 923.429 596.097 924.713 596.64 927.766C596.92 929.343 595.918 931.475 593.973 931.266C588.022 930.629 583.183 923.731 579.147 919.612C576.029 916.428 572.886 913.136 570.04 909.637C568.381 910.54 566.107 910.378 565.051 908.378C559.575 898.009 544.574 905.194 536.274 907.653L524.384 911.172C518.439 912.935 512.497 914.705 506.565 916.507C490.261 921.458 474.037 926.999 457.585 931.546C459.057 933.164 458.854 936.042 456.058 937.137C443.18 942.19 429.052 944.803 415.673 948.27C407.226 950.461 398.784 952.665 390.345 954.882C388.898 957.226 387.857 959.878 387.419 962.965C385.808 974.316 388.914 987.412 391.94 998.39L392.396 1000.03C394.883 1008.85 398.542 1019.67 406.157 1025.25C408.016 1026.61 410.383 1027.55 412.769 1027.77C427.676 1020.09 442.582 1012.42 457.497 1004.76C460.26 1003.34 462.813 1005.27 463.433 1007.55C468.692 1006.69 473.939 1005.33 478.718 1003.7C486.748 1000.98 493.018 995.776 500.546 992.179C515.112 985.221 529.987 993.768 543.028 1000.27L546.034 1001.74C551.882 1004.58 564.049 1010.03 566.856 1002.27C569.57 994.763 560.989 986.739 555.447 983.36C548.841 979.331 541.149 977.175 533.683 975.379C529.42 974.353 525.105 973.516 520.764 972.905C515.84 972.212 510.754 972.316 506.013 970.719C503.657 969.927 503.295 966.185 506.013 965.567C513.311 963.906 522.021 965.718 529.637 967.569L533.618 968.55C541.291 970.433 549.038 972.796 556.027 976.552C561.109 979.284 566.473 983.434 569.977 988.514C573.02 985.688 576.807 985.783 580.752 986.831L582.893 987.427C586.429 988.407 589.295 989.081 592.736 988.402C593.196 985.899 593.662 983.395 594.161 980.891C599.064 956.277 604.441 931.757 610.374 907.368C620.608 865.3 632.45 823.694 645.8 782.515L647.14 778.398C650.219 768.979 652.697 758.717 657.661 750.064C662.356 741.882 669.878 737.169 678.815 734.673C688.957 731.841 699.614 730.359 709.96 728.446C712.268 728.02 714.582 727.615 716.892 727.196C714.94 723.672 713.483 719.671 712.17 716.6L711.94 716.068C709.12 709.639 706.587 703.095 704.141 696.516L702.312 691.569C697.895 679.658 693.336 667.943 687.127 656.803C680.591 645.079 671.92 635.494 661.111 627.561C639.073 611.385 612.51 603.134 591.135 585.847C590.259 585.139 591.382 583.928 592.271 584.376C606.704 591.628 622.285 596.559 637.297 602.463L640.258 603.632C652.124 608.335 664.174 613.456 674.444 621.071C685.894 629.563 694.912 640.109 701.69 652.65C708.37 665.012 712.643 678.849 717.356 692.053L718.616 695.571C720.517 700.847 722.481 706.107 724.731 711.241C726.517 715.317 729.85 719.97 731.365 724.626C735.51 723.907 739.654 723.186 743.803 722.493C833.67 707.489 924.541 698.673 1015.61 696.094C1019.18 695.993 1021.02 699.393 1020.49 702.501C1011.75 754.182 1003.99 806.04 995.466 857.76C991.746 880.333 987.952 902.889 984.069 925.434C982.102 936.856 979.828 948.234 977.965 959.673C976.461 968.911 975.369 978.221 972.787 987.245C970.471 995.336 966.917 1003.14 961.08 1009.31C954.788 1015.97 946.006 1019.19 937.166 1020.71C914.725 1024.57 891.707 1026.15 869.084 1028.72L748.637 1042.42C750.397 1058.42 750.528 1074.17 749.721 1090.36L749.261 1099.19C748.884 1106.3 748.435 1113.42 747.414 1120.45C746.134 1129.27 742.098 1136.74 736.153 1143.33C730.694 1149.39 724.062 1154.55 717.611 1159.5C710.915 1164.64 703.996 1169.59 696.123 1172.77L695.101 1173.18C688.194 1175.87 675.238 1180.05 665.797 1178.52C667.031 1184.71 669.419 1191.35 667.302 1197.47C666.32 1200.31 662.605 1201.73 660.329 1199.31C655.82 1194.52 655.468 1188.19 654.4 1181.94C653.289 1175.44 652.331 1168.91 651.48 1162.37C649.834 1149.72 648.553 1136.95 648.162 1124.19C647.76 1111.09 647.915 1097.97 648.621 1084.88C648.984 1078.16 649.434 1071.45 650.287 1064.77C650.651 1061.92 651.023 1059.07 651.448 1056.23C651.603 1055.19 651.775 1054.16 651.96 1053.13L641.149 1054.35C624.572 1056.2 607.988 1057.87 591.294 1058.13C589.317 1058.16 587.796 1057.26 586.802 1055.95C585.743 1057.68 583.899 1058.91 581.258 1058.9C557.945 1058.82 536.235 1051.19 515.031 1042.21C504.343 1037.68 493.821 1032.77 483.117 1028.28C473.126 1024.09 462.445 1021.1 452.695 1016.38L427.075 1029.82C426.887 1030.48 426.646 1031.1 426.39 1031.63C424.722 1035.03 421.433 1036.88 418.074 1038.27C414.85 1039.61 411.511 1040.02 408.258 1039.68C388.828 1049.87 369.393 1060.04 349.945 1070.19L330.493 1080.33C291.737 1100.51 253.134 1121.02 214.134 1140.72L211.263 1142.17C197.792 1148.92 183.327 1155.77 168.378 1160.88C168.112 1164.66 168.28 1168.34 168.597 1172.35L168.673 1173.22C169.119 1177.95 170.075 1183.88 166.278 1187.25C164.303 1189 160.775 1189.01 159.432 1186.37C156.995 1181.58 159.183 1174.02 159.955 1168.82C160.229 1166.97 160.563 1165.07 161.057 1163.22C143.919 1168.32 126.262 1170.8 108.822 1167.93C91.8418 1165.14 78.6908 1154.45 68.0888 1141.36C56.8998 1127.56 48.9488 1111.46 44.6828 1094.22C39.8278 1074.59 39.5108 1054.32 39.6248 1034.21C39.7458 1012.8 40.5378 991.288 43.1418 970.023C40.2888 969.352 37.1248 968.772 34.2418 968.972C32.8138 971.257 30.0438 972.219 27.5408 971.922C22.0978 977.925 35.9038 984.06 40.3158 985.596C41.8478 986.13 41.6838 988.618 39.9168 988.543L38.8038 988.49C31.9864 988.128 24.9432 986.964 20.9348 980.628C17.7228 975.55 18.6878 969.534 22.5168 965.393C25.0458 941.481 31.0918 918.196 36.7188 894.87C42.2408 871.975 48.3818 849.227 54.8908 826.594L57.8088 816.464C68.0571 780.976 78.7692 745.201 92.9058 711.122C99.9648 694.106 108.097 677.403 119.12 662.566C129.395 648.735 141.526 636.9 155.47 626.792C181.465 607.946 211.967 596.559 241.937 585.711L243.279 585.225C258.81 579.607 274.303 573.922 289.657 567.835C303.236 562.452 316.245 555.627 329.76 550.163C329.321 549.366 328.897 548.56 328.489 547.745L328.239 547.955C328.196 547.989 328.152 548.022 328.107 548.053C326.748 548.995 324.747 548.532 323.627 547.475C320.464 544.491 321.535 541.179 323.646 538.084L323.921 537.69C326.503 534.073 328.806 530.249 331.189 526.501L332.681 524.157C336.681 517.896 340.884 511.592 346.218 506.417C348.688 504.019 351.392 502.225 354.257 500.888C354.012 500.37 356.16 499.311 356.769 499.844C365.846 496.522 376.289 497.218 386.185 498.134M742.809 1043.09L730.189 1044.52C716.305 1046.1 702.415 1047.63 688.524 1049.14L658.352 1052.42C658.275 1054.14 658.066 1055.82 658.028 1057.12C657.831 1063.82 657.684 1070.52 657.545 1077.22C657.266 1090.64 657.572 1104.09 658.456 1117.49C659.313 1130.47 660.441 1143.46 662.195 1156.36L662.554 1158.94L662.762 1160.29C664.193 1160.43 665.599 1161.11 666.768 1162.51C669.32 1165.56 678.561 1162.59 682.17 1161.31C688.105 1159.2 693.694 1155.63 698.851 1152.05C703.887 1148.56 708.422 1144.48 712.78 1140.19L716.345 1136.67C719.892 1133.14 723.443 1129.39 725.616 1124.95C728.563 1118.94 728.944 1111.56 729.808 1105.01C730.872 1096.96 732.139 1088.91 733.478 1080.89M376.454 958.543L375.145 958.887C327.594 971.522 280.114 984.53 232.417 996.607C208.813 1002.59 185.097 1008.13 161.464 1013.99L157.638 1014.95C138.994 1019.66 120.126 1025.33 105.849 1038.85C105.322 1039.35 104.557 1038.59 105.053 1038.06C120.44 1021.68 142.324 1014.74 163.336 1008.73C167.22 1007.62 171.109 1006.54 174.994 1005.43C146.418 995.245 117.391 986.382 87.6938 980.061C80.0468 978.433 72.3108 977.238 64.6698 975.604C59.3409 974.464 54.1367 972.816 48.8641 971.448L44.7168 970.405L44.6617 983.513C44.5927 1002.08 44.6257 1020.63 45.5728 1039.19L45.7521 1042.63C46.8572 1063.29 48.5821 1084.37 55.9128 1103.85C61.8698 1119.68 71.3648 1134.59 83.7818 1146.12C90.0648 1151.95 96.8198 1156.49 105.17 1158.73C112.923 1160.82 121.046 1161.06 129.016 1160.5C167.245 1157.84 201.275 1137.07 234.483 1119.88C288.8 1091.75 343.123 1063.64 397.495 1035.63C396.025 1034.62 394.641 1033.47 393.382 1032.17C386.091 1024.64 382.245 1014.33 379.719 1004.34C377.03 993.718 375.422 982.329 375.235 971.359M445.637 1046.49C446.117 1046.23 446.673 1046.55 446.695 1047.09C446.863 1051.25 444.568 1055.34 442.853 1059.08L442.672 1059.48C440.589 1064.12 438.308 1068.69 435.949 1073.19C431.234 1082.18 426.334 1091.07 421.22 1099.84C410.936 1117.48 399.508 1134.38 386 1149.74C382.949 1153.21 377.931 1148.76 379.889 1145.03C389.329 1127.02 400.334 1110.01 411.662 1093.15C417.333 1084.71 423 1076.27 428.727 1067.86C431.116 1064.36 433.536 1060.87 436.021 1057.42L437.52 1055.37M1009.59 706.409C961.875 707.85 914.214 710.962 866.724 715.839C822.558 720.374 778.554 726.411 734.798 733.937C725.659 735.509 716.531 737.145 707.414 738.846L701.946 739.874C692.828 741.602 681.689 742.315 673.571 747.186C665.012 752.321 662.699 763.053 659.851 771.903C656.503 782.311 653.24 792.749 650.065 803.212C637.457 844.755 625.94 886.658 615.666 928.838C610.566 949.775 606.041 970.829 601.273 991.842C597.037 1010.51 592.363 1028.97 587.48 1047.45C588.082 1046.99 588.82 1046.63 589.711 1046.44C613.959 1041.28 638.71 1039.04 663.321 1036.19L665.702 1035.91C691.161 1032.92 716.62 1029.95 742.094 1027.08L910.753 1008.11C920.7 1007 931.356 1006.84 941.036 1004.18C957.494 999.635 961.351 981.235 964.112 966.582L964.196 966.139C972.521 921.866 979.148 877.208 986.912 832.823M591.405 995.988C584.857 995.556 575.895 989.559 570.927 989.989C573.535 994.365 574.712 999.356 573.209 1004.69C569.026 1019.52 550.109 1011.84 540.997 1007.31C533.526 1003.6 526.312 999.048 518.041 997.307C508.671 995.337 502.323 999.063 494.407 1003.36C487.905 1006.89 480.824 1009.42 473.542 1010.73C469.67 1011.43 465.992 1011.5 462.321 1011.23C462.1 1011.41 461.851 1011.58 461.567 1011.73L459.625 1012.74C468.406 1013.15 477.35 1015.86 485.522 1018.34C493.99 1020.91 502.303 1024.01 510.572 1027.17L518.706 1030.3C538.772 1037.98 559.542 1045.28 581.258 1045.22C582.819 1045.21 584.098 1045.64 585.105 1046.35M554.769 949.514C561.238 948.723 567.209 949.571 572.378 953.782C578.612 958.86 582.8 967.282 591.762 967.835C594.375 967.996 594.982 971.67 592.385 972.438C585.714 974.413 580.313 970.804 575.768 966.118L572.712 962.925C568.221 958.275 564.078 954.679 556.457 954.957C548.295 955.255 540.119 957.141 532.01 958.1C522.824 959.186 513.64 960.112 504.425 960.911C503.997 960.948 503.924 960.274 504.325 960.175L514.646 957.607M548.525 923.068L549.592 922.961C558.985 922.049 567.576 922.014 575.966 927.067L577.575 928.04C585.139 932.637 593.372 938.054 598.102 945.497C598.876 946.716 597.597 948.149 596.302 947.839C587.211 945.657 580.565 938.987 572.92 933.995C564.34 928.393 555.477 929.317 545.694 930.187C536.222 931.03 526.755 932.188 517.376 933.767C508.563 935.249 499.722 937.589 490.82 938.335L490.822 938.317C489.805 938.315 489.225 936.788 490.262 936.27C499.296 931.759 509.759 929.624 519.586 927.563M833.89 830.223C832.982 825.88 838.324 823.866 840.8 827.311L841.326 828.038C846.675 835.366 854.411 844.562 854.018 853.882C858.72 853.985 863.595 856.842 865.427 861.085C866.274 863.048 866.561 865.374 866.374 867.782C870.648 868.114 875.309 870.92 877.922 873.652C882.253 878.181 882.595 884.581 879.488 889.873C872.713 901.409 857.914 905.605 845.421 906.542L844.976 906.574C832.072 907.466 813.478 907.225 804.63 896.154C796.095 885.475 805.528 876.829 815.201 872.134C812.683 869.835 811.379 866.538 812.605 863.061C814.758 856.95 822.359 854.589 826.654 850.341C831.889 845.161 835.349 838.056 833.97 830.629M840.981 839.614C839.558 845.798 836.062 851.454 831.193 855.936C829.331 857.65 827.294 859.176 825.13 860.487L824.87 860.638C822.95 861.716 818.229 863.736 818.592 866.155C818.966 868.641 826.657 872.532 828.753 872.534C829.23 872.534 829.5 873.279 829.013 873.495C825.214 875.173 821.896 875.892 818.181 874.119C815.699 876.653 813.288 879.275 810.9 881.874C806.677 886.473 808.122 891.329 813.112 894.753C821.13 900.255 833.318 900.121 842.673 899.721C852.089 899.319 862.154 897.219 869.509 890.947L869.83 890.668C873.827 887.113 877.478 881.089 871.356 877.665C868.959 876.324 866.369 876.403 864.093 875.751C861.963 879.926 858.508 883.27 854.292 883.915C850.885 884.436 848.539 880.154 851.638 878.105L852.334 877.673C856.226 875.189 859.547 871.363 859.459 866.38C859.399 862.921 854.569 858.553 851.423 861.803L851.278 861.958C848.645 864.926 844.008 861.186 845.739 857.897L845.822 857.748M226.862 667.635C226.851 666.892 227.896 666.614 228.261 667.257C234.373 678.01 237.568 691.191 240.824 703.038C244.234 715.448 246.986 727.984 249.459 740.612C254.468 766.183 257.137 791.607 257.319 817.669C257.343 821.39 251.281 822.38 250.688 818.567C246.751 793.216 242.979 767.839 239.012 742.495C237.016 729.748 234.694 717.05 232.47 704.341M287.371 686.364C286.921 684.881 289.079 684.385 289.631 685.741C301.897 715.85 306.051 749.972 298.176 781.737C296.971 786.596 289.854 784.491 290.763 779.693M445.588 659.61C445.526 658.5 446.967 658.325 447.51 659.089C453.322 667.278 455.733 678.245 465.93 682.477C471.021 684.59 476.75 684.222 481.248 687.791C484.255 690.178 486.561 693.946 484.304 697.561C483.576 698.729 481.538 699.314 480.55 698.045C479.108 696.196 478.345 693.982 476.386 692.596C473.623 690.641 469.897 690.52 466.729 689.601C462.631 688.413 459.019 686.334 456.061 683.245M542.686 523.027C543.285 522.722 543.86 522.917 544.243 523.435C544.79 524.173 544.723 524.891 544.053 525.397C544.948 527.226 546.005 531.808 546.156 532.475C546.768 535.179 547.419 537.867 548.1 540.553C549.474 545.97 550.678 551.429 552.053 556.848C553.511 562.592 555.248 568.275 557.181 573.876C557.306 574.238 557.443 574.608 557.587 574.984L557.807 575.552L557.861 575.466C558.254 574.845 559.072 575.279 558.975 575.935C558.885 576.533 558.764 577.128 558.662 577.726L558.865 578.261C560.129 581.664 560.995 585.249 558.675 588.252C557.807 589.375 556.852 590.04 555.662 590.238C553.754 596.528 551.36 602.701 548.797 608.629L548.046 610.36C544.276 619.01 540.255 627.547 534.252 634.911C527.698 642.951 518.683 648.441 512.974 657.251C510.318 661.349 508.47 665.658 506.97 670.286L506.406 672.042C505.341 675.316 504.113 678.488 501.042 680.409C500.062 681.021 498.594 680.826 497.804 679.991C491.507 673.33 498.099 660.892 501.896 654.443C507.174 645.475 514.813 639.738 522.462 632.972C530.707 625.679 535.966 615.923 541.053 606.312C544.169 600.424 547.177 594.409 550.344 588.495C547.035 585.57 545.976 579.761 544.855 575.724L544.753 575.362C542.9 568.896 541.428 562.262 540.498 555.599C539.603 549.192 539.23 542.878 539.467 536.435L539.535 534.794M554.988 553.518C554.257 552.516 555.467 551.381 556.47 551.59C562.569 552.851 568.531 556.543 574.004 559.527L574.588 559.844C578.957 562.2 583.353 565.086 585.647 569.663C588.142 574.638 587.937 580.368 587.597 585.774L587.564 586.279C587.147 592.762 587.08 599.498 585.708 605.864C585.006 609.122 582.055 610.04 579.532 609.27C576.53 618.749 568.097 625.733 561.937 633.213C554.083 642.749 555.561 655.624 556.382 667.109C556.714 671.759 550.93 673.081 547.951 670.6L541.086 664.898C539.943 663.946 538.801 662.993 537.662 662.035C536.687 661.215 535.721 660.388 534.762 659.551L533.33 658.286C532.695 657.718 529.894 654.589 529.075 654.459C527.092 654.144 522.379 659.372 520.766 661.012L520.561 661.216C517.525 664.193 514.782 667.396 512.227 670.793C511.757 671.417 510.838 670.899 511.174 670.178C513.464 665.274 516.126 660.586 519.287 656.197L519.925 655.323C522.028 652.489 524.851 647.485 528.563 646.648C533.096 645.627 537.622 650.172 540.92 652.695L541.128 652.853C542.697 654.03 544.248 655.228 545.796 656.434C545.634 647.883 546.714 639.243 551.129 631.874C554.242 626.677 558.906 622.828 562.897 618.362C567.34 613.389 569.66 607.277 573.682 602.098C574.2 601.432 574.914 601.073 575.687 600.959C575.842 596.796 576.455 592.591 576.929 588.472L577.066 587.239C577.545 582.764 578.677 577.298 576.486 573.107C574.417 569.149 569.668 566.355 566.152 563.669L563.28 561.442M357.074 506.2C355.238 507.262 353.522 508.583 351.965 510.234C347.064 515.433 343.56 521.903 340.15 528.127C338.314 531.479 336.544 534.868 334.693 538.212C333.888 539.667 333.06 541.106 332.223 542.543C331.836 543.205 330.686 544.521 330.116 545.332C330.749 546.22 331.404 547.093 332.072 547.958C332.327 548.288 349.908 567.439 356.036 574.934C365.42 586.415 373.808 598.542 380.979 611.522C388.001 624.233 393.347 637.691 399.852 650.648C403.108 657.135 406.744 663.576 411.379 669.19C411.558 669.409 411.747 669.616 411.93 669.832C413.699 665.053 418.232 659.937 420.458 656.999L420.666 656.721C425.715 649.915 431.047 643.314 436.495 636.825C441.471 630.9 446.573 625.103 451.799 619.401L453.765 617.267C457.406 613.334 462.031 607.449 467.361 604.639C466.79 603.621 466.129 602.614 465.369 601.62C460.375 595.094 453.315 590.358 446.35 586.085L441.832 583.337C424.804 572.96 408.042 562.103 393.259 548.62C385.438 541.486 377.725 534.013 371.151 525.692L368.826 522.75M385.486 501.063C377.512 501.732 368.901 501.573 361.532 504.171C368.083 510.364 374.31 517.051 380.707 523.348C381.276 519.089 382.44 514.882 383.426 510.729" fill="black"/>
<path fill-rule="evenodd" clip-rule="evenodd" d="M475.041 89.2189C531.822 89.2189 590.552 133.231 611.365 161.316C635.432 193.791 654.417 349.688 645.511 402.587C636.604 455.486 592.365 513.143 515.567 513.143C438.768 513.143 392.031 503.684 390.157 489.944C388.283 476.204 339.503 399.724 339.503 399.724C339.503 399.724 289.613 385.692 289.418 352.173C289.223 318.654 316.152 306.459 316.152 306.459C316.152 306.459 306.551 174.18 330.733 139.741C354.914 105.302 418.261 89.2189 475.041 89.2189Z" fill="#EDB98A"/>
<path fill-rule="evenodd" clip-rule="evenodd" d="M436.758 3.80444C444.394 -5.18226 457.863 3.31223 457.558 13.1325C460.607 13.9577 464.203 16.8048 465.59 20.5166C468.591 20.322 471.617 20.9183 474.342 22.4771L474.917 21.7692C484.362 10.238 496.861 0.342898 509.758 8.83475C513.269 11.1458 514.84 14.9651 514.066 19.1049L514.007 19.398L514.292 18.1198C514.583 16.9054 514.149 19.3353 513.986 19.8495L513.966 19.9079C513.625 20.7737 513.285 21.2097 512.977 21.8642C526.181 12.4831 546.287 17.9744 535.693 36.1341L540.001 34.4538C554.907 28.6934 573.441 22.5077 587.029 32.8645C593.103 38.7075 586.361 46.4986 580.172 48.3873L581.236 48.2093C593.113 46.1925 617.89 41.2076 621.43 56.6684C622.703 62.2315 618.991 66.2972 614.307 68.5355C624.218 68.4991 633.993 70.1329 642.569 74.9696C650.726 80.7669 644.133 90.3602 635.602 89.9419C638.247 93.2125 639.125 98.7475 636.571 102.28C641.419 103.553 645.892 105.19 650.014 107.742L651.147 107.887C659.388 108.915 668.789 109.527 673.322 117.62C679.994 135.18 656.237 134.481 646.04 128.313C646.645 129.297 647.094 130.371 647.345 131.517L650.649 132.445C663.116 135.912 677.224 139.742 685.25 150.234C688.929 156.271 683.809 166.532 676.117 164.698C696.961 174.625 688.972 200.774 668.587 187.171C667.634 188.054 666.474 188.709 665.26 188.999L669.561 191.33C680.486 197.312 693.625 205.5 691.344 219.079C689.174 226.266 679.205 224.953 674.138 222.202C682.991 229.815 691.345 238.058 698.933 246.969L701.033 249.467C706.935 256.54 717.201 269.561 706.08 276.365C692.369 283.343 685.536 262.737 677.562 255.382C683.938 270.385 663.21 280.847 655.975 265.736C654.76 265.95 653.538 265.971 652.34 265.81C658.578 272.422 675.448 317.663 654.464 307.742C651.122 304.206 648.189 300.342 645.493 296.286C648.862 322.207 651.326 348.249 652.92 374.31L653.487 383.758C654.066 393.557 654.505 403.398 653.404 413.164C652.133 424.534 648.864 435.204 643.914 445.504C639.353 455.004 633.473 463.804 626.744 471.894C623.144 476.224 619.324 480.434 614.624 483.603C610.883 486.124 606.513 487.784 602.303 489.384C595.454 496.224 586.664 501.394 578.074 505.524C563.914 512.314 548.564 516.064 533.034 517.944C517.154 519.853 501.114 519.394 485.364 516.664C470.314 514.064 454.183 507.414 444.914 494.744C444.114 493.654 445.603 492.624 446.583 493.074C473.484 505.524 503.713 508.774 533.034 504.844C546.713 503.014 560.173 499.234 572.664 493.364C583.204 488.414 592.093 481.214 601.553 474.694C603.394 472.244 605.253 469.834 607.374 467.594L610.683 464.124C613.156 461.518 615.585 458.877 617.793 456.024C624.614 447.234 630.263 437.264 633.994 426.774C641.25 406.355 639.287 384.19 638.005 362.91L637.894 361.034C636.574 338.274 634.423 315.594 631.444 292.994C630.205 283.589 628.827 274.2 627.317 264.831C624.897 260.895 622.313 257.086 619.42 253.517C621.774 262.665 613.623 275.382 603.628 269.344C592.183 259.56 592.736 243.768 583.144 231.787C573.2 216.428 504.593 186.556 484.195 182.362C487.481 187.142 493.484 190.472 494.884 196.114C519.969 218.278 479.078 230.077 466.309 198.49C466.592 209.006 467.658 219.431 469.997 229.696C473.404 239.122 476.079 266.439 458.994 258.195C450.815 260.557 444.579 253.591 443.553 245.731C437.645 263.493 443.232 291.868 432.399 304.958C429.077 308.401 423.944 306.109 422.217 302.177C412.198 299.553 413.053 287.874 411.838 279.514C402.701 312.835 391.265 335.964 389.69 370.724C396.76 380.789 381.252 388.191 374.596 380.125C365.254 366.628 373.868 348.177 376.066 333.403C373.438 333.268 370.837 332.101 368.668 329.553C367.485 334.19 368.164 340.298 368.563 345.327C362.639 368.487 340.118 353.652 341.05 334.866C340.077 340.166 339.341 345.52 338.873 350.913C343.223 355.917 346.447 361.907 348.353 368.264C349.725 372.858 345.055 375.612 341.491 374.946C339.594 381.416 331.369 386.085 325.959 379.9C320.612 374.492 319.683 366.677 319.256 358.897C318.512 358.106 318.058 357.069 318.133 355.814C318.201 354.636 318.491 353.635 318.951 352.794C318.861 351.203 318.747 349.642 318.573 348.134C314.434 361.01 317.127 374.501 317.489 387.688C324.8 391.805 333.146 393.565 341.529 395.302L342.744 395.554C345.333 396.094 346.154 399.954 344.204 401.574C349.394 406.654 353.874 412.714 358.244 418.304C364.047 425.72 369.596 433.43 374.994 441.157L378.163 445.696C387.418 458.878 400.214 476.736 394.484 492.974C393.704 495.204 390.444 496.004 389.173 493.664C385.003 485.964 382.673 477.484 378.713 469.694C374.824 462.054 369.984 454.974 365.183 447.894L362.414 443.791C357.804 436.939 353.236 430.013 349.003 422.954L346.055 418.067C343.286 413.452 340.544 408.683 338.503 403.724C331.233 405.477 323.626 404.219 316.654 401.188L316.565 401.673L316.388 402.544C315.393 406.736 309.61 409.601 305.916 406.859C297.074 400.193 293.474 390.271 292.536 379.662C290.754 376.665 289.243 373.501 288.011 370.226C287.43 376.76 284.909 383.094 277.142 382.897C263.663 381.791 262.341 369.061 265.985 356.4C250.028 361.273 248.158 338.708 253.194 326.816C251.324 326.257 249.593 325.144 248.602 323.643L247.775 325.093C244.708 330.403 241.232 335.558 236.387 338.313C229.618 342.163 219.776 337.395 220.226 328.917C221.675 315.102 233.785 304.579 241.157 293.507C239.845 293.692 238.48 293.645 237.142 293.396C222.407 301.615 215.374 282.269 220.563 271.061C224.367 260.991 231.251 252.331 238.629 244.697L236.466 245.989C232.564 248.287 228.21 250.506 223.92 249.605C195.849 268.049 186.635 237.028 218.136 227.332L218.125 227.188V227.188C214.964 224.139 213.592 219.314 216.05 214.493C204.496 218.552 188 209.369 198.185 196.82C204.828 190.565 212.665 185.184 221.353 182.368C220.92 180.065 220.78 177.721 220.959 175.363L220.44 175.434C214.955 176.224 208.193 178.463 204.81 172.557C203.095 169.583 203.296 164.682 206.108 162.369C215.792 154.408 226.84 147.785 238.841 145.1C239.281 143.639 239.741 142.187 240.226 140.741C229.989 140.551 218.494 126.953 230.254 119.249C240.592 113.981 251.243 110.593 262.916 110.907C256.072 104.159 260.112 91.9263 269.213 90.046C263.253 77.3557 277.977 70.8082 288.96 72.8093C288.556 67.1713 291.575 60.8871 297.383 59.4718C294.336 41.6306 313.228 43.3185 325.065 47.5475C321.101 40.6691 325.175 32.5773 332.167 30.1652C343.619 27.573 354.574 38.4807 363.294 45.1697C360.321 38.1914 362.829 31.7573 369.91 28.9768C377.204 26.1224 385.063 31.6387 391.15 35.3869C394.46 31.2307 400.111 29.8759 405.18 30.1329C405.722 28.572 406.516 27.2702 407.535 26.241C407.507 16.6237 423.881 11.3364 429.596 20.295C430.568 14.0659 433.131 8.07198 436.758 3.80444ZM641.613 178.239L641.802 179.274V179.274C642.044 179.488 642.272 179.714 642.505 179.934C643.235 180.107 643.939 180.289 644.607 180.475C643.634 179.687 642.632 178.958 641.613 178.239ZM654.253 153L654.031 153.308C653.993 153.358 653.954 153.408 653.913 153.457C654.531 153.69 655.146 153.929 655.759 154.176L656.678 154.551L657.002 154.694C656.089 154.121 655.174 153.554 654.253 153ZM506.855 25.9424L506.303 26.0793C506.127 26.1221 505.96 26.1619 505.808 26.1984C505.751 26.2129 505.699 26.2192 505.648 26.24L505.792 26.2088V26.2088C505.531 26.4075 505.188 26.6416 504.903 26.829C505.183 26.8061 505.462 26.779 505.743 26.7634C506.11 26.4887 506.481 26.215 506.855 25.9424Z" fill="black"/>
<path fill-rule="evenodd" clip-rule="evenodd" d="M543.872 450.877C537.085 453.545 529.066 454.175 522.061 451.902C515.363 449.727 509.28 444.889 505.6 438.803C502.322 433.383 500.953 426.951 502.89 420.539C502.983 420.232 503.284 420.036 503.574 419.959C505.159 421.402 506.138 422.835 507.116 424.262C508.766 426.666 510.419 429.046 512.688 431.101C515.99 434.092 520.438 436.521 524.853 437.322C529.175 438.108 533.599 437.413 537.47 435.344C539.824 434.087 541.727 432.405 543.611 430.716C545.664 428.878 547.683 427.011 550.51 425.972C552.774 425.14 555.153 425.842 556.981 427.234C558.945 428.731 560.358 431.073 560.28 433.522C560.158 437.316 558.498 440.481 556.088 443.092C552.83 446.622 548.224 449.166 543.872 450.877ZM535.814 356.326C543.366 360.916 554.872 371.62 546.748 382.999C537.186 393.032 523.419 381.528 516.634 376.325C510.343 372.293 503.275 382.664 509.112 387.372C558.136 423.667 578.031 357.527 539.634 350.93C535.406 350.203 533.836 354.906 535.814 356.326ZM456.388 292.728C466.68 292.236 475.75 296.858 485.558 298.958C494.622 300.9 503.552 299.734 512.367 297.264C526.673 293.255 532.587 315.155 518.476 319.423C508.2 322.531 497.38 322.747 486.835 321.145C477.468 319.721 469.616 315.161 460.685 312.506C453.02 310.228 444.004 311.175 435.91 312.247L432.768 312.67C428.098 313.299 423.403 313.93 418.779 314.843C414.767 315.636 410.762 317.087 406.667 317.255C406.202 317.275 405.808 316.671 406.101 316.268C410.858 309.737 420.026 304.584 427.319 301.147L427.813 300.916C436.815 296.719 446.365 293.206 456.388 292.728ZM452.617 340.883L452.616 340.658C452.63 334.281 456.344 319.721 465.524 319.721C471.259 319.721 474.741 329.63 475.344 339.845L475.365 340.261C475.631 346.612 473.888 360.493 465.524 360.493C457.072 360.493 452.704 347.346 452.617 340.883V340.883ZM587.773 340.883L587.774 340.658C587.76 334.281 584.046 319.721 574.866 319.721C569.274 319.721 565.824 329.141 565.097 339.079L565.046 339.845C564.684 345.981 566.314 360.493 574.866 360.493C583.318 360.493 587.686 347.346 587.773 340.883V340.883ZM587.632 284.961L588.289 284.975C599.017 285.347 610.052 291.702 612.916 302.377C613.064 302.931 612.381 303.304 611.976 302.924C603.154 294.666 591.291 302.557 582.458 306.693L579.214 308.192C567.826 313.49 554.875 319.718 542.232 315.77C536.227 313.895 532.413 307.725 534.126 301.493C535.649 295.948 542.342 291.288 548.14 293.29L548.403 293.385C553.113 295.187 558.904 293.362 563.768 291.562L567.764 290.061C574.19 287.623 580.645 284.895 587.632 284.961V284.961Z" fill="black"/>
</svg>
