<svg width="818" height="1192" viewBox="0 0 818 1192" fill="none" xmlns="http://www.w3.org/2000/svg">
<path fill-rule="evenodd" clip-rule="evenodd" d="M47.9995 809.888L764.472 866.767L765.222 871.636C777.228 949.826 783.292 1002.87 783.414 1030.77L783.416 1031.63C783.416 1059.3 791.91 1103.3 808.896 1163.63L809.947 1167.35L46.9995 1168.68L37.9995 987.066L47.9995 809.888ZM472.169 420.183C501.302 421.621 530.661 434.11 532.929 442.092C537.98 459.869 546.102 535.966 572.811 547.657C599.521 559.348 656.542 548.689 672.846 576.609C689.149 604.529 742.689 718.341 742.689 744.861C742.689 762.54 568.207 768.677 219.243 763.271C223.698 620.87 242.271 546.014 274.961 538.704L277.879 538.059C325.155 527.732 353.409 527.399 369.537 510.751C385.993 493.764 388.979 464.606 395.806 442.092C399.568 429.687 436.42 418.419 472.169 420.183Z" fill="#694D3D"/>
<path fill-rule="evenodd" clip-rule="evenodd" d="M536.057 464.689C536.167 464.604 536.278 464.579 536.397 464.639C538.667 465.729 539.137 467.909 539.917 470.179C541.057 473.499 542.377 476.739 543.597 480.029C546.028 486.629 548.347 493.219 551.057 499.709C553.837 506.389 556.717 512.949 560.017 519.399C561.607 522.519 563.317 525.579 565.057 528.619C566.257 530.729 567.377 533.629 568.957 535.609C569.077 534.979 569.247 534.379 569.447 533.819C569.238 533.919 569.037 534.029 568.847 534.149C568.447 534.399 567.967 533.899 568.207 533.509C569.067 532.089 570.187 531.129 571.467 530.479C575.007 526.549 653.036 545.304 674.367 566.369C713 604.52 739.077 651.689 756.227 701.869C765.697 729.559 774.417 757.519 783.427 785.359C792.947 814.799 802.887 844.109 812.427 873.529C814.517 879.999 809.957 885.879 804.197 888.009C793.467 891.969 782.657 895.699 771.757 899.149C777.047 919.459 780.747 940.198 783.407 960.998C788.897 1003.89 789.587 1047.65 798.238 1090.09C800.224 1099.83 802.737 1109.43 805.392 1119.01L806.007 1121.22C807.587 1126.84 809.028 1132.51 810.967 1138.01C812.637 1142.74 814.797 1147.51 815.967 1152.39C817.337 1158.13 815.317 1164.4 809.947 1167.35C805.637 1169.72 799.467 1168.74 796.867 1164.29C796.337 1163.38 796.017 1162.39 795.887 1161.39C795.497 1160.56 795.137 1159.71 794.817 1158.84C794.692 1158.5 794.582 1158.16 794.477 1157.81L794.167 1156.77C793.407 1154.29 792.707 1151.79 792.007 1149.29C790.867 1145.28 789.719 1141.28 788.451 1137.3L787.807 1135.32C784.667 1125.76 781.857 1116.12 779.407 1106.36C770.639 1071.36 768.779 1035.13 766.372 999.263L766.247 997.409C764.067 965.269 762.767 933.198 765.437 901.128L765.072 901.247V901.247L764.707 901.359C761.238 902.419 757.757 903.458 754.267 904.468C754.157 904.508 754.057 904.549 753.947 904.579C751.713 905.27 749.417 905.927 747.082 906.538L745.677 906.899L744.687 907.169L743.644 907.465C740.337 908.424 736.966 909.527 733.537 909.419C727.857 910.329 722.077 910.879 716.397 910.899C718.147 939.509 720.167 968.099 722.577 996.659C724.997 1025.37 728.207 1053.97 731.537 1082.57C733.177 1096.7 734.937 1110.8 736.877 1124.88C737.857 1132.02 738.877 1139.12 740.177 1146.2C741.517 1153.44 743.887 1161.18 742.457 1168.5C742.427 1168.49 742.397 1168.48 742.367 1168.48C741.887 1170.6 740.607 1172.5 738.377 1173.81C734.287 1176.2 728.567 1174.8 726.217 1170.62C726.017 1170.27 725.827 1169.91 725.647 1169.54C723.238 1170.57 720.597 1170.97 717.357 1171L673.417 1171.44V1171.44C653.447 1171.64 633.477 1171.85 613.497 1172.14C550.768 1173.06 488.039 1174.13 425.31 1174.89L401.787 1175.16C366.507 1175.53 331.207 1176.26 295.927 1176.25C278.278 1176.25 260.647 1176.19 242.997 1175.76C234.447 1175.55 225.917 1175.22 217.377 1174.87L215.869 1174.8C209.051 1174.46 201.813 1173.83 195.147 1175.36C193.307 1178.94 188.607 1179.68 186.147 1176.02C180.525 1167.64 178.991 1155.96 177.952 1145.72L177.587 1142.04C176.437 1130.57 175.427 1119.1 174.677 1107.61C172.017 1066.9 171.047 1026.15 172.267 985.358C172.887 964.568 174.797 943.899 177.057 923.229C177.767 916.779 178.507 910.338 179.307 903.908L179.32 901.622C179.322 900.891 179.317 900.194 179.297 899.539L179.097 893.334C178.932 888.163 178.778 882.988 178.714 877.813L178.687 874.709L178.657 868.929C173.717 868.459 168.447 866.819 164.187 866.029C157.278 864.739 150.387 863.349 143.517 861.878C129.757 858.918 116.147 855.419 102.627 851.549L99.7512 850.723C87.2759 847.128 74.6288 843.295 62.8266 837.919C58.2066 835.809 53.5966 833.429 49.5466 830.309C49.3066 833.589 48.9366 836.859 48.7166 840.109C48.2776 846.539 47.7566 852.949 47.3266 859.378L46.9154 865.496C46.24 875.69 45.6316 885.874 45.3566 896.099C44.1366 940.698 43.9266 985.488 46.2866 1030.06C47.4566 1052.37 49.1266 1074.68 51.5366 1096.9C52.7166 1107.83 53.9666 1118.79 55.5066 1129.68C57.0966 1140.87 59.9666 1151.99 60.8466 1163.26C61.6866 1174.13 45.0666 1175.71 42.3366 1165.77C39.0677 1153.85 38.235 1140.99 36.5119 1128.74L36.3166 1127.38C34.4066 1114.36 32.8766 1101.29 31.5566 1088.2C26.9994 1043.05 25.8166 997.669 28.2066 952.349C29.3429 930.643 32.0371 909.022 35.2979 887.546L35.6766 885.069C37.1611 875.451 38.5507 865.833 40.2318 856.257L40.8766 852.669C42.3866 844.439 43.5466 835.489 45.9966 827.259L45.2684 826.587C43.9068 825.319 42.4312 823.851 41.3566 822.269C37.6566 821.769 34.5066 819.109 34.8966 814.279C36.1666 798.409 41.9666 782.269 47.1366 767.289C52.3266 752.229 58.3466 737.449 65.1666 723.049C89.1566 672.439 123.707 626.489 165.957 589.679C188.367 570.149 212.927 552.829 240.067 540.499C253.447 534.409 267.287 529.699 281.787 527.159C288.967 525.899 296.217 524.919 303.517 524.709C309.439 521.212 316.471 522.683 322.205 526.517L322.517 526.729H322.528L323.997 527.019V527.019C324.357 527.089 324.347 527.659 323.997 527.739C323.977 527.739 323.947 527.749 323.927 527.759C324.867 528.499 325.757 529.289 326.587 530.139C329.327 532.939 329.317 536.319 327.907 539.049C336.297 546.829 341.597 556.819 347.147 566.889C353.097 577.669 360.887 586.989 370.367 594.849C405.117 623.669 456.227 636.419 499.767 622.809C531.787 612.809 559.137 585.739 566.697 553.149C564.907 553.789 562.967 553.889 561.127 553.229C552.486 550.148 549.192 540.705 545.887 532.809L545.727 532.429C542.497 524.779 539.787 517.009 537.647 508.989C535.488 500.889 534.217 492.339 533.687 483.979C533.482 480.673 533.572 477.368 533.743 474.062L533.895 471.329C534.012 468.852 533.975 466.322 536.057 464.689ZM395.467 442.399C395.587 442.099 396.057 441.939 396.237 442.299C403.886 458.079 398.867 479.699 391.636 494.749C384.067 510.489 372.667 522.429 359.157 532.759C357.297 534.179 355.386 535.579 353.447 536.949C342.176 544.909 332.136 523.449 345.147 519.349C358.707 512.459 369.727 500.179 377.386 487.279C381.527 480.309 385.197 473.049 388.007 465.429C390.807 457.829 392.487 449.919 395.467 442.399Z" fill="black"/>
<path fill-rule="evenodd" clip-rule="evenodd" d="M668.871 255.553C659.72 205.654 637.156 158.175 602.503 121.026C598.504 116.615 594.911 109.657 588.809 108.545C582.684 96.064 571.009 87.241 561.676 77.162C541.305 56.851 521.815 34.154 495.54 21.328C373.671 -28.794 256.394 114.122 231.507 221.603C206.788 308.04 233.786 427.278 340.908 430.776C356.063 450.82 376.975 464.694 398.456 477.085C427.791 495.867 459.791 503.491 493.729 493.039C527.528 501.871 562.565 473.529 582.877 448.673C598.932 429.42 609.936 405.923 624.621 385.994C641.958 385.561 656.94 370.881 659.261 353.674C675.454 323.917 674.718 288.259 668.871 255.553V255.553Z" fill="#694D3D"/>
<path fill-rule="evenodd" clip-rule="evenodd" d="M231.507 221.603C256.394 114.122 373.671 -28.794 495.54 21.328C521.815 34.154 541.305 56.851 561.676 77.162C571.009 87.241 582.684 96.064 588.809 108.545C594.911 109.657 598.504 116.615 602.503 121.026C637.156 158.175 659.72 205.654 668.871 255.553C674.718 288.259 675.454 323.917 659.261 353.674C656.94 370.881 641.958 385.561 624.621 385.994C621.444 390.306 618.438 394.786 615.517 399.353L614.827 399.587L614.742 394.529C613.28 312.569 608.56 263.094 600.582 246.104C592.523 228.941 557.84 197.516 496.532 151.828L494.666 150.44L480.275 138.555L469.107 151.164C427.09 198.56 394.2 235.133 370.437 260.883C344.866 288.593 323.232 330.748 305.534 387.35L304.999 389.069L336.268 430.549C233.009 423.803 207.149 306.778 231.507 221.603Z" fill="#AB393A"/>
<path fill-rule="evenodd" clip-rule="evenodd" d="M403.415 4.34579C425.59 -0.835214 448.845 0.238787 470.81 5.93279C514.345 17.2198 550.166 46.5708 579.867 79.2958C608.838 111.216 632.729 147.808 650.178 187.227L651.062 189.232C663.405 217.332 674.13 246.538 674.59 277.479C674.986 304.108 672.296 331.85 663.693 357.178C656.029 379.741 641.932 402.477 617.679 407.886C603.694 443.434 576.334 474.218 541.869 490.69C520.493 500.907 497.018 505.468 473.384 503.2C449.271 500.888 426.748 489.302 407.903 474.527C407.386 474.122 408.051 473.337 408.584 473.643C431.273 486.718 458.107 491.392 484.095 490.532C526.803 489.12 565.956 466.069 588.454 429.836C594.052 420.818 599.04 411.306 603.019 401.411C602.786 400.597 602.651 399.772 602.651 398.968C602.651 395.559 604.269 392.954 606.683 391.271C607.802 387.774 608.792 384.237 609.619 380.66C611.494 372.558 612.54 364.339 613.171 356.054C613.683 349.323 613.399 342.182 614.075 335.279C613.829 329.748 613.487 324.222 612.986 318.708C611.373 300.94 608.111 283.216 601.828 266.47C595.463 249.508 585.411 234.55 572.729 221.675C545.527 194.061 511.66 173.899 485.208 145.531L483.823 144.031L483.729 144.001C480.447 147.366 477.167 150.731 473.878 154.089L458.852 169.416C428.182 200.732 397.761 232.352 371.08 267.2C355.717 287.267 341.914 308.302 330.021 330.608C324.389 341.172 319.282 352 314.667 363.046L312.85 367.443C310.689 372.706 308.354 378.596 307.056 384.539C310.916 388.368 313.739 393.995 316.861 398.341C320.402 403.27 324.486 407.962 328.688 412.341C332.941 416.774 337.606 421.023 342.558 424.664L343.153 425.093C348.835 429.125 355.357 431.91 356.209 439.586C356.579 442.919 353.599 445.6 350.84 446.638C343.287 449.475 335.463 441.325 330.429 436.637C327.29 433.713 324.404 430.562 321.728 427.235C319.123 427.608 316.501 427.795 313.906 427.487C309.885 427.009 305.903 426.306 301.986 425.276C269.498 416.746 245.451 389.776 232.477 359.739C215.059 319.413 215.464 272.928 222.705 230.284C235.936 152.354 278.758 79.5758 343.419 33.5008C361.528 20.5968 381.609 9.43979 403.415 4.34579ZM438.418 14.7708C396.646 12.5698 358.562 34.1098 328.007 60.9228C272.373 109.743 238.105 181.223 231.211 254.626C227.548 293.626 230.289 335.663 250.625 370.12C258.515 383.489 268.677 395.138 280.672 404.96C291.975 414.217 304.859 419.552 318.633 423.182C318.006 422.318 317.387 421.448 316.785 420.565C313.581 415.874 311.036 410.888 308.904 405.664C308.716 405.852 308.362 405.89 308.153 405.603C299.459 393.674 302.18 379.44 306.324 366.322C310.669 352.563 316.176 339.175 322.461 326.188C345.37 278.86 379.444 237.629 414.814 199.154C432.878 179.505 451.541 160.425 470.135 141.28C479.421 131.72 488.682 122.132 497.826 112.434C502.377 107.606 506.9 102.753 511.382 97.8608C515.814 93.0238 519.802 87.9008 525.32 84.2778C529.719 81.3908 534.11 86.9088 532.054 91.0128C528.892 97.3251 523.454 102.329 518.642 107.462L518.146 107.994C513.455 113.058 508.72 118.081 503.957 123.077C498.479 128.823 492.958 134.53 487.42 140.222C492.143 139.675 496.922 139.36 501.617 138.647C507.993 137.679 514.283 136.253 520.541 134.702C527.136 133.069 533.646 130.984 539.929 128.392C545.832 125.958 551.411 122.058 557.906 121.676C563.404 121.352 565.121 128.159 562.075 131.741C557.877 136.677 550.33 138.62 544.192 140.452L543.325 140.714C536.536 142.786 529.589 144.341 522.567 145.38C513.328 146.748 502.65 147.374 492.765 145.974C512.505 157.548 530.67 171.892 548.783 185.88L551.979 188.345C569.676 201.961 586.948 216.639 599.566 235.268C611.344 252.659 618.456 272.906 622.447 293.421C624.416 303.542 625.715 313.77 626.587 324.041C629.836 333.147 629.314 343.974 628.496 353.989L628.204 357.446L628.226 358.46C628.348 364.724 630.865 378.671 624.937 383.401C624.836 383.905 624.742 384.412 624.636 384.916C625.374 384.46 626.103 383.991 626.826 383.509C627.123 383.31 627.411 383.091 627.702 382.876L628.521 382.203C628.552 382.177 628.58 382.154 628.601 382.135C630.441 380.52 632.196 378.834 633.832 377.011C636.855 373.642 639.729 369.361 642.451 364.429C648.432 353.589 652.253 341.805 655.208 329.621C660.61 307.346 662.839 283.421 660.375 260.577C660.031 257.388 659.325 253.39 658.23 249.288C655.63 239.548 652.639 229.911 649.29 220.404C642.591 201.385 634.379 182.934 624.804 165.19C605.358 129.15 580.338 95.8298 550.36 67.8688C520.001 39.5518 480.63 16.9948 438.418 14.7708ZM379.51 129.921C381.016 129.001 382.566 130.788 381.819 132.23C378.202 139.209 372.12 145.101 367.068 151.081C361.837 157.273 356.644 163.499 351.464 169.734C340.916 182.429 330.621 195.357 320.732 208.573L318.121 212.069C309.427 223.739 300.839 235.595 293.239 247.995C289.263 254.482 285.759 261.191 282.577 268.1C279.548 274.677 278.151 282.616 274.511 288.794C274.282 289.184 273.572 289.152 273.484 288.659C272.296 282.007 275.231 273.995 277.328 267.766C279.821 260.358 283.369 253.302 287.167 246.487C295.089 232.271 304.581 218.946 314.117 205.782C323.802 192.415 333.857 179.321 344.406 166.623C349.36 160.658 354.427 154.813 359.644 149.083L361.608 146.94C367.073 141.012 372.581 134.151 379.51 129.921ZM354.185 109.254C356.662 107.419 358.776 111.169 357.196 113.157C347.757 125.031 337.017 135.7 326.687 146.774C316.767 157.409 307.285 168.442 298.338 179.909C280.095 203.292 265.492 228.95 253.124 255.841C252.891 256.348 252.157 255.97 252.267 255.48C258.818 226.393 274.134 199.975 291.573 176.106L292.236 175.201C309.875 151.198 330.151 127.069 354.185 109.254Z" fill="black"/>
<path fill-rule="evenodd" clip-rule="evenodd" d="M470.587 455.927C463.864 453.184 457.866 448.61 453.481 442.766C451.957 440.735 451.561 438.59 451.881 436.628C452.241 434.421 453.546 432.422 455.326 431.081C457.112 429.735 459.345 429.072 461.504 429.41C463.381 429.704 465.248 430.731 466.727 432.862L467.035 433.288C469.642 436.815 473.04 439.709 476.91 441.574C480.641 443.372 484.814 444.211 489.132 443.723C497.356 442.794 503.024 438.346 509.049 432.307C509.796 431.544 510.543 430.758 511.294 429.959C511.768 429.234 512.426 428.769 513.157 428.524C513.968 428.253 514.886 428.269 515.726 428.562C516.537 428.845 517.262 429.381 517.747 430.095C518.209 430.773 518.471 431.61 518.386 432.574C517.835 438.833 514.562 444.419 509.914 448.806C504.752 453.677 497.909 457.047 491.466 458.229C484.368 459.531 477.136 458.598 470.587 455.927V455.927ZM494.814 359.367C502.366 363.957 513.872 374.66 505.748 386.04C496.186 396.073 482.418 384.569 475.634 379.366C469.343 375.334 462.275 385.705 468.112 390.413C517.136 426.708 537.031 360.567 498.634 353.97C494.406 353.243 492.836 357.947 494.814 359.367ZM406.963 317.146C407.798 306.79 423.57 304.438 425.139 314.686C426.544 323.866 424.89 332.299 420.755 340.564C416.804 348.46 406.874 344.777 406.123 337.587C405.116 327.949 406.444 323.589 406.963 317.146ZM527.027 312.561C529.226 309.681 532.401 307.715 536.205 308.826C548.09 312.299 544.587 329.172 540.413 337.385C538.145 341.845 530.814 342.976 527.501 339.049C522.101 332.645 519.515 319.856 526.38 313.548C526.566 313.222 526.773 312.893 527.027 312.561ZM420.588 271.83L422.465 271.502C428.273 270.497 435.494 269.532 439.603 274.201C441.782 276.677 442.532 281.279 439.603 283.649C434.451 287.819 428.755 286.203 422.581 286.556C417.493 286.848 412.603 287.69 407.702 289.091C396.95 292.164 388.189 297.774 379.006 303.934C377.801 304.742 376.571 303.201 377.146 302.074C382.447 291.691 392.72 283.162 403.01 277.963C408.502 275.188 414.512 272.886 420.588 271.83ZM516.193 267.179L517.63 267.473C533.267 270.742 553.583 277.271 560.988 292.631C561.271 294.803 560.972 295.268 560.73 295.572L560.649 295.674C560.45 295.933 560.29 296.291 559.349 296.587C559.087 296.525 558.824 296.459 558.557 296.389C555.163 295.499 552.477 294.274 549.877 293.002L547.058 291.613C543.788 290.01 540.488 288.465 536.992 287.324C529.53 284.89 521.854 283.175 514.06 282.26C512.37 282.061 510.744 281.491 509.46 280.514C508.242 279.587 507.311 278.302 506.887 276.596C506.337 274.386 506.495 272.714 507.68 270.721C508.572 269.224 509.847 268.187 511.311 267.591C512.804 266.984 514.503 266.841 516.193 267.179Z" fill="black"/>
</svg>
