<?xml version="1.0" encoding="UTF-8" standalone="no"?>
<!-- Created with Inkscape (http://www.inkscape.org/) -->

<svg
   width="210mm"
   height="297mm"
   viewBox="0 0 793.70081 1122.5197"
   version="1.1"
   id="svg1"
   xmlns="http://www.w3.org/2000/svg"
   xmlns:svg="http://www.w3.org/2000/svg">
  <defs
     id="defs1" />
  <g
     id="layer2">
    <path
       style="fill:none;stroke:#000000;stroke-width:3;stroke-linecap:round;stroke-linejoin:round;stroke-dasharray:none;stroke-opacity:1"
       d="m 73.283963,39.346065 c 0,0 -21.65334,-18.044444 -26.29334,11.342222 -4.64,29.386667 25.52,8.506668 27.58223,-6.96 2.06222,-15.466666 -12.37334,38.40889 -12.37334,38.40889"
       id="path2" />
    <path
       style="fill:none;stroke:#000000;stroke-width:3;stroke-linecap:round;stroke-linejoin:round;stroke-dasharray:none;stroke-opacity:1"
       d="m 106.02173,39.86162 c 0,0 -25.519987,-18.817777 -26.293317,13.920001 C 78.877333,89.810711 121.8861,30.699482 107.56841,45.017176 92.617293,59.968288 89.523963,84.457177 89.523963,84.457177"
       id="path3" />
    <path
       style="fill:none;stroke:#000000;stroke-width:3;stroke-linecap:round;stroke-linejoin:miter;stroke-dasharray:none;stroke-opacity:1"
       d="m 33.843963,98.119401 99.760007,-7.99112"
       id="path4" />
    <path
       style="fill:none;stroke:#000000;stroke-width:3;stroke-linecap:round;stroke-linejoin:round;stroke-dasharray:none;stroke-opacity:1"
       d="m 55.239516,128.02162 13.404451,-12.11556 0.77333,47.43112"
       id="path5" />
    <path
       style="fill:none;stroke:#000000;stroke-width:3;stroke-linecap:round;stroke-linejoin:round;stroke-dasharray:none;stroke-opacity:1"
       d="m 87.719513,115.39051 c 0,0 -22.16889,48.97777 0.77334,46.65777 22.942227,-2.32 15.208877,-50.78222 -0.77334,-46.65777 z"
       id="path6" />
    <path
       style="fill:none;stroke:#000000;stroke-width:3;stroke-linecap:round;stroke-linejoin:round;stroke-dasharray:none;stroke-opacity:1"
       d="m 118.39508,113.58606 c 0,0 -21.653347,46.14222 1.03111,47.43111 22.68444,1.28889 14.69333,-52.84444 -1.03111,-47.43111 z"
       id="path7" />
    <path
       style="fill:none;stroke:#000000;stroke-width:3;stroke-linecap:round;stroke-linejoin:round;stroke-dasharray:none;stroke-opacity:1"
       d="M 4.4572925,101.21273 C -9.5020935,164.17832 152.69848,292.7574 162.99063,90.386061 170.51367,-57.537226 -19.758338,6.2691861 11.932853,111.78161 c 8.45271,28.14241 -1.80445,41.50223 -1.80445,41.50223"
       id="path8" />
  </g>
</svg>
