<svg width="830" height="1210" viewBox="0 0 830 1210" fill="none" xmlns="http://www.w3.org/2000/svg">
<path fill-rule="evenodd" clip-rule="evenodd" d="M735.555 704.831C721.674 639.069 672.445 588.039 606.237 562.618C593.511 555.42 581.174 524.534 564.071 518.878C561.329 517.971 565.657 525.187 564.071 525.618C558.414 527.155 552.076 527.316 545.831 521.765C534.669 511.844 531.168 482.861 524.381 469.762C488.59 400.676 399.228 427.707 387.256 504.08C378.908 509.521 367.108 514.314 358.021 518.698C348.664 523.213 340.434 534.148 330.791 538.058C322.188 541.546 308.012 539.075 299.342 542.116C259.468 556.103 225.696 573.752 199.219 609.512C193.64 617.054 187.351 626.326 182.274 633.945C156.1 664.076 137.92 697.848 121.176 734.081C74.3298 840.432 61.5878 958.186 50.1558 1072.77C50.4158 1092.82 37.1118 1148.41 56.7888 1158.03C55.6128 1159.25 56.0388 1161.69 58.2208 1161.67C108.114 1161.17 157.891 1165.63 207.01 1174.32C230.709 1178.5 254.281 1184.25 278.421 1185.19C328.532 1184.85 378.463 1176.45 428.508 1184.4C488.67 1184.4 561.786 1182.64 628.715 1180.07C691.268 1177.67 754.155 1183.1 815.933 1172.46C820.823 1171.68 823.211 1165.72 822.186 1161.45C814.938 1135.04 811.38 1107.85 807.313 1080.82C808.123 1063.49 806.674 1045.39 800.26 1029.24C783.502 920.219 762.013 811.912 735.555 704.831Z" fill="#FFDBB4"/>
<path fill-rule="evenodd" clip-rule="evenodd" d="M564.071 526.018C565.657 525.587 561.329 518.371 564.071 519.278C581.174 524.934 593.511 555.82 606.237 563.018C672.445 588.439 721.674 639.469 735.555 705.231C762.013 812.312 783.502 920.619 800.26 1029.64C806.674 1045.79 808.123 1063.89 807.313 1081.22L807.951 1085.49C811.765 1111.11 815.319 1136.83 822.186 1161.85C823.211 1166.12 820.823 1172.08 815.933 1172.86C754.857 1183.37 692.697 1178.19 630.848 1180.39L617.957 1180.87C554.024 1183.22 485.461 1184.8 428.508 1184.8C378.463 1176.85 328.532 1185.25 278.421 1185.59C254.281 1184.65 230.709 1178.9 207.01 1174.72C157.891 1166.03 108.114 1161.57 58.2209 1162.07C56.0389 1162.09 55.6129 1159.65 56.7889 1158.43C37.1119 1148.81 50.4159 1093.22 50.1559 1073.17L51.1892 1062.85C62.3831 951.531 75.7353 837.641 121.176 734.481L122.537 731.548C138.908 696.425 156.807 663.661 182.274 634.345L183.831 632.013C188.602 624.888 194.198 616.699 199.219 609.912C225.696 574.152 259.468 556.503 299.342 542.516C308.012 539.475 322.188 541.946 330.791 538.458C339.81 534.801 347.593 524.998 356.218 520.051L356.218 556.952L481.02 679.89L551.803 571.354L559.002 526.902C560.736 526.793 562.432 526.463 564.071 526.018Z" fill="#DF8F90"/>
<path fill-rule="evenodd" clip-rule="evenodd" d="M715.368 848.128C714.048 854.538 712.198 860.948 709.738 867.019C707.368 872.878 703.798 878.128 701.339 883.918C701.009 884.698 700.469 885.288 699.818 885.738L700.02 887.313V887.313L700.208 888.888C701.434 899.516 702.814 910.115 704.008 920.742L704.589 926.059C706.938 948.248 710.648 970.328 713.528 992.458C716.348 1014.13 719.219 1035.8 722.288 1057.44C725.458 1079.75 728.688 1102.03 732.458 1124.25C734.049 1133.63 735.71 1143.01 737.441 1152.38L738.778 1159.55C752.538 1162.86 756.298 1182.04 742.288 1189.12C735.929 1192.32 727.759 1191.55 722.518 1186.52C717.071 1181.28 716.845 1171.83 715.581 1164.73L714.364 1158.13C705.252 1108.53 697.345 1058.35 693.648 1008.05C692.698 995.059 691.898 982.059 691.378 969.048C690.883 956.81 691.12 944.573 690.931 932.335L690.868 928.998C690.579 915.948 690.818 902.918 691.158 889.868C691.198 888.278 691.268 886.688 691.348 885.088C690.889 884.548 690.558 883.908 690.419 883.288L690.238 882.468C689.788 880.358 690.298 877.888 691.919 876.378C692.618 867.488 693.538 858.608 693.788 849.728C693.808 848.998 694.858 849.019 694.919 849.728C695.509 857.288 696.688 864.868 697.868 872.438C705.458 866.338 711.068 856.278 714.378 847.858C714.618 847.248 715.509 847.468 715.368 848.128ZM535.787 494.707C537.047 500.467 539.537 505.638 542.877 510.448C544.468 512.748 546.277 514.888 548.447 516.678C550.308 518.207 552.428 519.207 554.407 520.538C557.287 520.087 560.297 521.178 562.317 523.297L561.998 520.198C561.897 519.198 563.558 518.998 563.748 519.967C572.497 564.089 580.476 608.239 587.383 652.68L590.41 672.306L593.259 690.73C597.988 721.432 602.563 752.121 606.008 783.047C610.598 824.318 614.457 865.698 617.277 907.137C620.107 948.868 621.848 990.627 623.088 1032.44C623.397 1042.98 623.728 1053.51 624.047 1064.05L626.183 1051.45C628.315 1038.84 630.406 1026.23 632.197 1013.57C638.627 968.258 643.768 922.627 646.277 876.928C648.578 835.108 647.808 792.458 637.168 751.717C634.487 741.467 631.207 731.377 627.248 721.547C623.407 711.988 618.168 703.127 614.037 693.708C609.237 682.748 607.797 672.408 610.268 660.608C612.428 650.328 616.218 640.658 616.897 630.078C618.168 610.438 611.777 591.417 602.748 574.228C600.367 569.698 597.857 565.228 595.237 560.797C587.308 547.408 578.367 534.507 569.088 522.138C568.588 521.478 569.647 520.748 570.188 521.288C578.647 529.648 587.897 537.868 595.508 546.998C599.207 551.438 602.817 555.967 606.237 560.618C643.758 566.888 675.998 590.257 698.037 621.118C723.047 656.138 735.697 698.288 745.058 739.797C755.468 785.928 764.248 832.478 773.598 878.837C783.277 926.808 792.907 974.778 802.647 1022.74C807.487 1046.55 812.328 1070.36 817.157 1094.18C819.607 1106.24 822.178 1118.27 824.867 1130.29C826.248 1136.45 827.728 1142.6 829.008 1148.78C830.447 1155.75 829.107 1160.21 824.388 1165.33C822.647 1167.23 819.897 1167.2 817.737 1166.19L817.062 1165.87L816.409 1165.56C813.737 1164.24 811.641 1162.88 809.978 1159.96C808.147 1156.75 807.857 1153.19 807.228 1149.62C806.067 1143.05 804.918 1136.48 803.758 1129.9C802.025 1120.06 800.141 1110.25 798.222 1100.44L788.599 1051.41C786.032 1038.34 783.462 1025.27 780.877 1012.21C771.647 965.488 762.407 918.778 753.168 872.068C744.297 827.217 736.447 782.058 726.348 737.467L725.774 734.955L725.19 732.446C716.16 694.006 703.542 656.822 680.647 624.248C663.027 599.198 638.558 576.828 609.737 565.507C611.768 568.428 613.718 571.408 615.578 574.448C627.258 593.528 635.787 616.178 633.787 638.898C632.808 649.998 628.588 660.908 628.987 672.098C629.357 682.038 635.508 690.768 639.758 699.417C649.407 719.018 656.388 739.848 660.888 761.217C669.918 804.127 669.888 848.278 666.777 891.837C663.397 939.188 656.978 986.528 649.668 1033.42C645.918 1057.47 640.928 1081.32 637.107 1105.33C635.218 1117.17 632.647 1128.98 630.397 1140.76L629.325 1146.39C628.725 1149.51 628.102 1152.62 627.382 1155.7L626.938 1157.55V1157.88C626.918 1160.15 626.297 1162.03 625.297 1163.53C623.928 1167.92 622.228 1172.2 619.968 1176.31C618.808 1178.41 617.127 1179.59 615.297 1180.02C613.457 1184.23 609.287 1187.47 604.308 1187.45L538.817 1187.2C500.777 1187.05 462.737 1186.8 424.697 1186.59C415.098 1186.54 405.508 1186.36 395.918 1186.11C386.928 1185.86 378.308 1184.78 369.418 1183.66C359.377 1182.4 353.938 1175.29 355.438 1165.26C355.768 1163.05 356.127 1160.85 356.468 1158.65C354.468 1159.31 352.088 1159 350.478 1157.43L348.969 1155.95C346.877 1153.88 345.005 1151.85 343.678 1149.09C342.308 1146.25 341.197 1143.25 339.987 1140.35C337.377 1134.11 334.838 1127.85 332.367 1121.56C327.418 1108.98 322.468 1096.35 317.867 1083.64C308.758 1058.47 300.697 1032.92 293.688 1007.08C281.188 960.978 272.147 913.988 266.447 866.578L265.085 855.279L264.688 851.941C262.527 833.565 260.708 814.904 261.567 796.568C262.098 785.087 263.877 773.518 268.168 762.797C272.127 752.908 278.237 744.448 284.047 735.608L284.712 734.588L285.381 733.542C290.462 725.513 294.505 717.119 294.707 707.368C294.913 697.473 292.03 687.843 288.807 678.579L288.003 676.295L287.464 674.782C280.607 655.637 272.804 636.762 275.377 615.928C279.178 585.248 297.777 560.518 321.178 541.448C300.367 545.568 279.768 553.707 261.588 564.028C240.117 576.228 220.787 592.328 204.117 610.498C172.617 644.837 150.127 686.038 131.718 728.578C112.447 773.098 98.1573 819.748 87.3883 867.008C76.5583 914.538 69.3083 962.828 64.3573 1011.31C61.8883 1035.44 59.9473 1059.63 58.3383 1083.83C57.5183 1096.23 56.8983 1108.65 55.9383 1121.03C54.9783 1133.4 54.5473 1145.96 51.5273 1158C50.1173 1163.61 40.6073 1164.18 39.5883 1158C37.3269 1144.2 37.9589 1129.92 38.59 1115.95L38.6473 1114.68C39.2683 1100.76 40.0783 1086.85 41.0373 1072.94C42.9983 1044.51 45.6173 1016.12 49.0373 987.818C61.0273 888.478 83.1383 789.658 126.508 698.978C146.928 656.268 173.138 614.768 209.598 583.928C226.957 569.257 246.527 557.547 267.617 549.068C286.478 541.478 305.638 537.888 325.678 537.898C335.728 530.198 346.518 523.488 357.297 517.757C357.947 517.408 358.627 518.248 358.088 518.788C357.808 519.058 357.537 519.337 357.258 519.598C358.478 519.678 359.737 520.248 360.867 521.438C364.828 525.587 368.168 530.778 371.157 536.167C375.707 541.848 380.047 547.717 384.588 553.337C391.857 562.337 399.297 571.207 406.828 580.007C419.476 594.796 432.535 609.306 446.153 623.232L448.428 625.547C455.487 632.698 462.638 641.257 470.987 646.917L471.433 647.214C474.956 649.508 477.453 649.925 480.457 646.498C483.188 643.378 485.461 639.758 487.798 636.318L488.338 635.528C500.268 618.198 511.328 600.228 521.338 581.728C525.901 573.309 530.241 564.768 534.36 556.132L535.588 553.538C537.828 548.778 540.258 544.108 542.107 539.207C542.537 538.058 542.957 536.908 543.367 535.768C537.067 531.638 532.188 522.698 530.418 515.698C528.578 508.428 529.508 500.967 532.787 494.318C533.407 493.068 535.487 493.377 535.787 494.707ZM224.999 790.137C224.127 817.778 223.598 845.448 222.297 873.068L221.848 882.497C223.877 884.758 225.067 887.367 224.117 890.948C223.748 892.318 222.657 893.558 221.297 894.018L220.873 902.785C218.944 942.23 216.681 981.593 212.547 1020.94C207.377 1070.18 201.397 1119.34 195.428 1168.49C194.578 1175.45 189.737 1180.97 182.207 1179.95C174.588 1178.92 171.498 1172.29 172.498 1165.38C176.428 1138.27 180.207 1111.14 183.518 1083.94L187.288 1052.95C192.016 1014.21 196.854 975.481 202.428 936.867C204.758 920.728 207.178 904.598 209.607 888.467L208.758 887.367C205.287 882.858 201.697 878.448 198.147 874.008C191.328 865.448 184.598 856.957 178.348 847.997C178.037 847.547 178.668 846.887 179.117 847.228C187.877 853.698 196.168 860.617 204.508 867.648L211.808 873.827C216.008 845.957 220.168 818.077 223.877 790.137C223.968 789.438 225.018 789.387 224.999 790.137ZM351.008 525.618C345.737 530.587 340.348 535.448 335.037 540.388L333.092 542.206L331.156 544.033C321.822 552.884 312.88 562.097 305.428 572.678C291.748 592.108 283.598 615.797 289.287 639.518C294.008 659.167 304.838 676.978 307.748 697.118C309.207 707.208 308.498 717.348 304.697 726.877C300.817 736.598 294.617 744.928 289.047 753.698C276.947 772.758 275.297 793.678 276.498 815.758C277.758 838.818 280.407 861.887 283.678 884.738C290.297 931.038 300.277 976.858 313.487 1021.73C320.098 1044.2 327.907 1066.19 335.678 1088.27C339.547 1099.26 344.058 1109.99 348.707 1120.67C351.157 1126.29 353.668 1131.88 356.218 1137.46C355.277 1129.58 355.277 1121.49 354.817 1113.66C354.157 1102.44 353.317 1091.24 352.547 1080.03C350.978 1057.28 349.578 1034.51 348.328 1011.74C343.898 930.538 340.638 849.268 340.877 767.938C340.998 727.268 341.828 686.598 343.578 645.967C344.399 626.834 345.987 607.719 347.423 588.612L347.728 584.518C348.998 567.368 350.518 550.178 353.127 533.178C352.355 531.435 351.684 529.67 351.187 527.859L351.008 527.178L351.138 527.198C351.018 526.667 350.978 526.138 351.008 525.618ZM396.589 455.738C396.698 455.268 397.368 455.308 397.488 455.738C400.458 465.738 399.408 476.738 396.849 486.798C395.469 492.248 393.509 497.538 391.139 502.638L390.309 504.423C388.279 508.766 385.992 513.241 382.038 515.948C380.389 517.078 377.438 517.148 375.788 515.948L374.946 515.309C374.808 515.201 374.671 515.091 374.538 514.978C372.999 513.688 372.238 510.838 372.948 508.958C374.778 504.108 378.929 500.548 381.798 496.228C384.339 492.388 386.589 488.338 388.458 484.128C392.488 475.018 394.298 465.348 396.589 455.738Z" fill="black"/>
<path fill-rule="evenodd" clip-rule="evenodd" d="M635.277 307.815C633.593 229.234 614.014 142.24 546.899 93.6798C542.624 90.5828 536.208 92.0828 532.665 95.6198C529.756 96.1878 527.084 97.9498 525.307 101.19C485.62 173.625 443.841 244.915 399.989 314.907C371.833 360.163 337.631 405.476 333.119 460.331C332.338 461.368 325.089 469.552 329.313 468.956C331.188 467.975 333.097 467.169 335.105 466.573C340.467 474.39 352.918 473.161 355.878 464.338C366.14 464.633 376.296 467.255 386.073 470.297C410.054 477.803 434.427 485.223 458.901 490.96C539.527 512.358 626.161 485.133 632.603 391.135C641.257 378.942 636.575 324.599 635.277 307.815V307.815Z" fill="#FFDBB4"/>
<path fill-rule="evenodd" clip-rule="evenodd" d="M693.939 500.959C682.529 447.399 675.21 393.149 668.66 338.829C665.49 312.519 662.96 286.14 660.029 259.81C657.29 235.279 654.099 210.669 647.699 186.789C641.75 164.599 633.049 142.629 620.229 123.47C608.21 105.509 593.099 90.1189 575.75 77.2689C541.469 51.8789 497.629 38.3689 454.99 42.8489C448.549 43.5289 442.169 44.6189 435.859 46.0789C437.869 45.4889 439.9 44.9379 441.949 44.4589C442.609 44.2999 442.316 43.4109 441.669 43.4699C268.195 59.2309 227.389 360.919 223.679 421.749C223.389 426.48 223.16 431.199 222.99 435.929C221.689 446.48 220.719 457.06 220.259 467.669C219.74 479.909 219.99 492.23 221.119 504.429C222.279 516.938 223.599 529.759 228.82 541.259C232.019 548.339 381.219 538.64 382.759 530.279C385.879 513.399 387.479 495.98 386.5 478.81C386.04 470.579 385.189 462.409 383.429 454.349C382.949 452.149 382.439 448.019 381.15 444.749C394.759 418.89 409.729 393.769 425.139 368.939C457.21 317.239 491.309 266.499 517.519 211.438C530.66 183.849 543.609 154.55 549.809 124.319L550.809 124.519C550.689 124.879 550.769 125.329 551.129 125.579C579.619 145.269 598.66 175.109 611 207.06C625.369 244.259 632.339 284.429 631.339 324.289C629.75 387.629 605.74 465.909 537.809 485.929C522.309 490.499 505.57 491.789 489.689 488.449C482.199 486.869 474.859 484.438 468.099 480.839C460.599 476.849 454.439 471.199 447.41 466.55C440.979 462.3 433.389 470.589 437.089 476.879C445.259 490.779 462.839 499.279 477.939 503.459C494.049 507.929 511.04 508.14 527.449 505.3C528.699 505.089 529.939 504.849 531.169 504.589C531.449 508.709 533.219 512.81 536.099 516.14C537.389 517.64 538.979 518.938 540.759 520.029C540.99 524.05 543.58 528.089 547.79 528.97C570.279 533.649 663.679 521.379 686.139 514.688C692.169 512.89 695.219 506.98 693.939 500.959" fill="black"/>
<path fill-rule="evenodd" clip-rule="evenodd" d="M441.2 367.799C452.121 361.222 492.945 366.043 525.013 367.799C550.479 369.193 568.667 366.43 574.489 370.348C587.641 379.201 581.253 422.006 558.589 427.86C535.926 433.714 451.913 441.891 437.428 427.86C422.942 413.83 421.605 379.598 441.2 367.799Z" fill="white"/>
<path fill-rule="evenodd" clip-rule="evenodd" d="M455.347 356.476C472.489 354.396 489.105 359.644 505.863 362.289C514.711 363.685 523.57 364.728 532.523 365.115C534.325 365.194 536.127 365.24 537.929 365.277C538.096 363.69 538.985 362.234 540.908 361.361C544.852 359.573 548.008 358.767 552.338 358.94C556.301 359.096 560.279 359.504 564.181 360.218C571.268 361.517 578.387 364.466 583.571 369.588C595.568 381.441 593.742 400.48 584.472 413.391C565.319 440.068 530.364 441.306 500.426 440.958L497.664 440.922C470.404 440.533 431.404 444.597 419.02 413.583C414.466 402.178 415.098 388.959 420.674 378.021C427.325 364.974 441.325 358.178 455.347 356.476ZM540.495 400.895L540.251 400.905C527.683 401.389 515.117 401.73 502.542 401.952C502.918 405.181 503.302 408.412 503.741 411.634C504.086 414.17 504.455 416.703 504.839 419.233C505.002 420.304 505.598 421.967 505.43 423.028L505.369 423.447C506.015 423.739 506.6 424.21 507.036 424.892C507.188 425.128 507.298 425.366 507.408 425.604C517.171 425.68 527.677 425.491 537.629 423.716L537.649 423.5C537.83 422.229 538.359 421.373 539.061 420.786C539.761 416.732 539.697 412.411 539.967 408.389C540.136 405.89 540.319 403.393 540.495 400.895ZM492.938 402.123C483.879 402.278 474.816 402.396 465.76 402.286L461.648 402.222C462.516 406.88 463.461 411.523 464.247 416.212C465.066 421.099 460.764 424.206 457.041 424.08C457.459 424.149 457.876 424.22 458.294 424.278C469.926 425.923 482.004 425.487 493.809 425.474C493.174 421.767 493.431 417.585 493.336 414.491L493.318 414.012C493.137 410.047 493.011 406.085 492.938 402.123ZM431.406 401.269C431.721 403.691 432.332 406.061 433.247 408.268C437.114 417.593 445.979 421.944 455.359 423.776C453.731 423.214 452.439 421.864 452.113 419.551C451.299 413.801 451.007 407.955 450.985 402.117C444.448 402.056 437.867 401.916 431.406 401.269ZM574.585 399.278C569.931 400.376 564.523 399.873 559.956 400.08C555.679 400.274 551.399 400.444 547.121 400.617C547.323 403.537 547.519 406.457 547.733 409.375C548.008 413.148 548.034 417.134 548.757 420.891C557.366 417.952 565.08 413.24 570.868 405.706C572.31 403.828 573.601 401.625 574.585 399.278ZM453.38 371.775C445.633 373.61 438.3 377.485 434.36 384.574C432.021 388.781 430.992 393.767 431.19 398.68C437.738 397.918 444.398 397.629 451.027 397.39C451.049 396.196 451.077 395.004 451.113 393.814L451.215 390.764C451.396 384.948 451.487 377.644 453.38 371.775ZM493.48 372.485L490.069 372.102C480.596 371.022 471.128 369.889 461.655 370.539C460.284 370.633 458.892 370.783 457.497 370.987C459.171 377.029 459.031 384.126 459.73 390.107C460.001 392.42 460.342 394.713 460.72 396.998L462.364 396.921C472.529 396.37 482.704 396.032 492.877 395.628C492.876 393.718 492.887 391.807 492.917 389.895L492.955 387.983C493.07 383.099 492.755 377.598 493.48 372.485ZM541.049 371.709C531.127 373.311 520.874 373.651 511.128 373.663C507.235 373.668 503.344 373.429 499.456 373.084C499.709 375.155 499.841 377.249 500.031 379.291C500.415 383.417 500.854 387.536 501.331 391.652L501.757 395.253C514.261 394.686 526.764 394.074 539.265 393.439L541.029 393.344L541.524 386.423C541.86 381.808 542.231 377.194 542.753 372.6L542.361 372.459C541.9 372.269 541.463 372.008 541.049 371.709ZM545.358 373.427C545.905 379.953 546.207 386.505 546.609 393.041L554.85 392.601C556.224 392.526 557.597 392.45 558.971 392.371C564.311 392.063 571.173 390.446 576.453 391.954C576.856 387.155 575.484 382.479 571.152 379.254C563.548 373.591 553.865 375.607 545.358 373.427ZM517.201 315.094C529.473 308.066 560.264 300.883 562.214 322.968C563.111 333.131 555.555 341.551 546.732 345.309L546.401 345.448C538.126 348.85 523.459 352.692 516.298 345.315C510.338 339.175 518.243 328.166 525.649 333.196C529.455 335.78 537.466 333.876 541.713 332.646L541.979 332.569C546.562 331.222 552.672 326.911 550.777 321.268C549.1 316.276 541.964 315.364 537.495 315.202C530.824 314.963 524.332 316.512 517.722 317.016C516.675 317.096 516.352 315.58 517.201 315.094ZM568.036 279.581C584.692 278.801 595.053 296.987 591.223 311.888C590.561 314.459 587.685 316.983 584.909 316.694L584.209 316.63C583.854 316.595 583.497 316.551 583.169 316.46C580.533 315.73 578.17 312.988 578.362 310.146L578.413 309.318C578.802 302.279 578.039 294.169 569.673 292.464C562.578 291.018 558.617 297.847 558.533 304.133C558.517 305.249 557.263 306.028 556.276 305.428C551.147 302.307 550.259 296.098 552.218 290.751C554.701 283.976 560.915 279.914 568.036 279.581ZM444.433 283.481C456.554 279.437 469.631 285.898 475.5 296.614C477.559 297.21 479.615 298.797 479.329 301.227C478.916 304.723 478.294 306.927 475.87 309.578C472.078 313.726 464.978 311.605 463.402 306.5L463.335 306.269C461.545 299.67 454.281 295.316 447.664 297.626C439.934 300.324 440.158 308.488 434.736 313.244C434.099 313.803 433.335 313.892 432.571 313.523C426.812 310.74 427.847 302.364 429.9 297.57C432.593 291.279 437.827 285.684 444.433 283.481ZM427.925 246.674C437.747 236.652 463.359 226.954 470.078 245.461C471.358 248.986 468.633 253.739 464.963 254.47C458.953 255.666 453.621 253.057 447.651 253.525C442.818 253.906 437.777 255.521 433.913 258.515C423.211 266.807 420.857 280.832 413.4 291.386C413.037 291.9 412.332 291.684 412.265 291.078C410.567 275.713 417.167 257.65 427.925 246.674ZM556.021 236.808C562.539 234.506 569.92 234.703 576.472 236.745C583.072 238.803 589.131 242.711 593.799 247.817C595.917 250.135 597.877 252.693 599.449 255.416C600.284 256.859 601.162 259.84 602.111 261.615C607.245 264.58 609.44 271.335 604.843 276.14L604.636 276.351L604.021 276.961C601.55 279.407 597.824 280.467 594.451 279.49C586.903 277.306 585.986 271.361 583.373 265.051C581.647 260.883 578.69 257.195 575.105 254.486C566.632 248.086 552.739 246.047 542.538 249.063C541.995 249.224 541.357 248.532 541.744 248.03C543.677 245.526 544.791 243.471 547.379 241.451C550.006 239.401 552.873 237.92 556.021 236.808Z" fill="black"/>
</svg>
