<svg version="1.1" xmlns="http://www.w3.org/2000/svg" x="0" y="0" viewBox="0 0 1000 605" xml:space="preserve" enable-background="new 0 0 1000 605" width="2500" height="1513"><path d="m432.697 365.378.7 110.3c-11.7-11.6-27.6-19-44.6-19-36.5 0-66.3 32.9-66.3 72.9s29.8 72.2 66.3 72.2c17.3 0 32.9-7.2 44.6-19v15.1h44v-232.5zm448.5 0v233.1h44v-233.1zm74.8 0v233.1h44v-233.1zm-956 11.2v221.3h47.3v-183.9l24.3.7c17.4 0 30.2 12.9 30.2 28.9s-14.1 28.9-31.5 28.9h-10.5v53.2l46.6 72.2h55.8l-65-92.6c29.2-7 50.6-32.9 50.6-63.7 0-36.2-29.5-65-66.3-65-1.1 0-2.2-.1-3.3 0zm537.8 1.3v220.6l97.8-.7c37.5-.6 67.6-29 67.6-63.7 0-25.2-8.9-42.6-38.7-56.5 12.1-11.3 19.7-26.7 19.7-43.3 0-15.1-6.3-29.2-16.4-40.1-10.6-11.6-29.3-16.4-54.5-16.4h-75.5zm47.2 38.1h29.5c13 0 23.6 10.7 23.6 23.6s-10.7 23-23.6 23h-15.1v40.1h27.6c15.7 0 28.2 12.5 28.2 28.2-.4 12.2-6.4 21.9-16.4 26.3-3.3 1.5-7.6 2.4-11.8 2.6h-42zm-354.5 38.7c-40.4 0-73.5 33.3-73.5 74.2s33.1 74.2 73.5 74.2c30.8 0 54.6-14.2 67-36.1l-36.1-16.4c-4.6 9.9-15.1 17.1-27.6 17.1-16.6 0-30.2-12.3-30.2-27.6 0-1-.1-1 0-2h97.8c.3-3 0-6 0-9.2.7-47.9-30.5-74.2-70.9-74.2m487.8 7.9v88c0 18.7 12.5 35.6 30.9 45.3 3.7 1.9 7.7 3.2 11.8 4.6 8.3 2.7 17.4 4.6 26.9 4.6 38.1 0 68.9-24.6 68.9-54.5v-88h-43.3l-.7 80.1c0 13.3-11 23.6-25 23.6s-25.6-10.4-25.6-23.6l.7-80.1zm-487.8 23c14.9 0 26.9 12.6 26.9 27.6h-53.8c-.1-15 11.9-27.6 26.9-27.6m170.7 7.2c17.9 0 32.8 15.8 32.8 35.5 0 19.6-14.9 36.1-32.8 36.1-6.7 0-13.2-2.7-18.4-6.6-1.7-1.3-3.1-2.3-4.6-3.9-5.9-6.4-9.2-15.8-9.2-25.6 0-19.7 14.2-35.5 32.2-35.5" fill="#e30f4d"/><path d="M626.997 63.878c.6.7 1.3 1.7 1.3 1.7 4.2-3.1 8-6.4 13-7.6 7.9-2.1 19 2.1 26.9 7.4 3.9 2.8 7.2 6.3 10.4 10 2.5 2.7 6.3 2.7 9.4 3.6 9.2 1.8 17.5 5.1 25.2 10.1 5.4 3.2 9.7 9 16 9.8 7.6 1.3 14.7 3.8 21.4 7.6 7.9 5.3 15.5 11.7 24.8 13.5 19.4 2.1 35.4 13 50.8 23.7 9 5.1 19.3 11.4 30.3 7.5 3-1.4 5.5-4 6.6-7.1 1-7.2-3.5-12.8-8-18-9.4-10.8-25.4-20-23.6-36.1 1.3-11.6 15.7-18.6 26-21.9 5.7-2.1 11.9-1.5 16.8-5.9 2.2-2 5.2-6.8 8-5.4 2.3 1.2 3.6 6.1 4.2 9.7 1.5 11.4-1 22.7-11.2 29.3-4.9 3-10.3 4.4-15.8 5.5 8.6 7.1 16.8 15.4 21.6 25 2.8 5.5 4.4 10.5 4.9 17-.3 12.1-7.8 22.6-18.2 28.9-6.1 3.3-13 4.6-20.4 4.4-2.8-.2-5.3-.7-7.9-.7 1.1 5.7 1.3 13.5-.1 19.7-.4 3.3-2.7 6.9-2.4 10.8 1.5 1.9 3.9 2.1 6.2 2.1 5.4.2 11.6-.3 14.4 5.3 2.5 5.1 3.3 9.5 5.2 14.7.4 1 2.4 4.4 3.5 3.4 3.6-3.3 7-8 11.9-5.8.5.2 3.6 2.9 14.5 10.7 1.6 1.1 1.9 2.9 2 4.9 4.2 1.7 9.2 4.6 10.5 9.1 1 3.1.4 6.4 1.3 9.3 1.4 3.3 5.9 9.9 2.2 11.8l-1.7.8-15.4 4.7c-1.4-.1-2.7-.7-3.5-1.9-8.2-.4-17.8 2.1-24.1-3.7-2.9-2.4-5-5.4-7.1-8.3-4.7 2.6-11.8 4.1-16.7 1-10.1-7.9-20.4-15.4-33.8-15.2-6 1.4-13.4 3-19.3.3-5.5-4-12.2-6.1-16.8-11.9-6.4-6.8-6.7-15-8.7-23.5l-.2-.3c-8.6 2.4-18.3 1.3-27.2.8-7.4-.3-14.3.7-21 2.2-8.5 1.8-17.8 2.4-26.8 2.1l-4.3 3.3c1.9.6 4.2.4 5.7 1.8l1.7 1.8c7.4.7 15.6-.6 22.5 1.4 1.7.6 3.2 1.6 4 3.2 1.3 2.6.6 5.2-.3 6.8-3 5.2-5.5 10.7-10.4 14.6-1.4 1.5-5-.3-5.3 2.4-1.7 7.2-8.3 13.3-15.4 14.9-2.9.6-6-.1-8.6-1-8.3-2.9-17.1-5.3-25.7-7.5-2.9-.8-5.1-3.6-7.6-5.4-3.8-.1-8.7 1.3-11.5-2.1-1.9-1.8-4-6-4.1-6.1-7.8 9.7-16.5 19.5-26.4 27.8-41.1 34.8-102.5 46.2-154.2 27.4-28.6-9.8-54.8-28.5-75.5-56.8 0 0-3.3 8.6-8.3 9.6l-12.8 1.8c-10.1 4.3-20.4 7.8-30.7 11.5-6.1 1.4-12.9.1-17.3-3.8-3.5-3-5.4-6.7-7.8-10.3-1.1-1.6-5.5-.5-7.7-.7-1.1-.1-2.8-1.5-3.8-3.3l-8.9-14.7c-1.4-3-.8-4.9.1-6.8 1.8-3.3 5.4-4.6 8.9-5 6.3-.7 13.9-2.6 20 .2 2.9-3.3 7.4-2.8 11.4-3.6l.4-.1c-1.9-2.1-4.6-3.5-6.6-5.5-11.7 2.8-24.8 1-36.1-1.3-10.4-2.5-19.4 3.6-29.7 2.1 0 0-2.3 6.1-3.8 9.3-2.3 5-4.8 11.5-11.9 15.3-4.5 2.4-9.3 4.9-13.9 7.2-8.2 4.3-19.1 2.6-27.7.8-3.5-.3-6.2-.2-9.3 1.1-3 2.1-6.7 6.3-9.8 8.6-3.4 2.5-8.9 6.2-14.7 5.7-3.5-.3-7.9-2.4-9.1-1.8-.9.5-6.5 12.3-13.2 14.1s-14.6.4-21-1.1c-1.9.8-3.3 2.6-5.7 2.1-4.4-1.1-8.9-2.4-12.9-4.7-1.7-1.5-1.9-3.5-2.4-5.4.1-2.9 2.2-5.3 3.5-7.8.6-3 .3-6.8 1.7-9.6 2.1-4.6 6.7-7.2 10.8-9.3.6-3.2 2.7-6 5.3-7.6 5.2-3.3 11-9.4 17.8-5.5l7.2 6.2c4.5-2.3 4.6-6.5 8.1-14.4 1.5-3.5 3.6-7.2 7.9-7.8 3.1-.4 6.9.1 9-.3 2-.4 9.2-3.3 10.1-4.2 1.1-1 1.4-2.5 1-3.5-4.8-12.3-5.1-17.6-5.6-26.9-7.1.7-15.1 1.9-22.5.6-11.5-1.8-22.3-10.7-26.6-21.6-5-11-2.9-26.1 5-35.4 6-7.2 12.9-13.7 20.1-19.3-2.4-.7-5.3-.6-7.6-1.1-10.7-1.7-20.9-11.1-23.3-21.5-1.7-6.9-.1-13.3 3.2-19.1 1.1-1.2 2.4-2.4 4.3-1.7 5.1 2.1 8 5.4 14.6 8.4 6.5 3.1 31.4 5.1 36.4 21.4 3.3 12.8-3.3 21-12.8 28.2-7.2 5.1-14.8 11.4-18.6 18.9-2.7 5.3-1.3 13.3 3.3 17.5 5.4 4.9 13.5 4.7 19.6 2.4 11.5-4.7 21.8-12.2 31.9-20 9.7-7.2 19-10 31.2-10.4 4.9-.2 13.2-3.8 17.7-7.4 8.2-6.5 15.6-13.2 25.6-15.5 4.3-1 9-1.1 13.4-1.8 3.5-1.7 6-5.8 9-8 13.2-11.5 31.2-11.4 45.2-20.5 8-6.3 16.9-10.3 27.6-9.7 4.9.3 8.5.8 12.6 2.6 0 0 .6.1.7-.4 28.6-37 68.5-58 113.4-62 34.6-2.8 66.4 5.5 94.1 21.6 17.5 10.4 33.5 24.7 46 41.5z" fill="#fbbf15"/><path d="M626.997 63.878c.6.7 1.3 1.7 1.3 1.7 4.2-3.1 8-6.4 13-7.6 7.9-2.1 19 2.1 26.9 7.4 3.9 2.8 7.2 6.3 10.4 10 2.5 2.7 6.3 2.7 9.4 3.6 9.2 1.8 17.5 5.1 25.2 10.1 5.4 3.2 9.7 9 16 9.8 7.6 1.3 14.7 3.8 21.4 7.6 7.9 5.3 15.5 11.7 24.8 13.5 19.4 2.1 35.4 13 50.8 23.7 9 5.1 19.3 11.4 30.3 7.5 3-1.4 5.5-4 6.6-7.1 1-7.2-3.5-12.8-8-18-9.4-10.8-25.4-20-23.6-36.1 1.3-11.6 15.7-18.6 26-21.9 5.7-2.1 11.9-1.5 16.8-5.9 2.2-2 5.2-6.8 8-5.4 2.3 1.2 3.6 6.1 4.2 9.7 1.5 11.4-1 22.7-11.2 29.3-4.9 3-10.3 4.4-15.8 5.5 8.6 7.1 16.8 15.4 21.6 25 2.8 5.5 4.4 10.5 4.9 17-.3 12.1-7.8 22.6-18.2 28.9-6.1 3.3-13 4.6-20.4 4.4-2.8-.2-5.3-.7-7.9-.7 1.1 5.7 1.3 13.5-.1 19.7-.4 3.3-2.7 6.9-2.4 10.8 1.5 1.9 3.9 2.1 6.2 2.1 5.4.2 11.6-.3 14.4 5.3 2.5 5.1 3.3 9.5 5.2 14.7.4 1 2.4 4.4 3.5 3.4 3.6-3.3 7-8 11.9-5.8.5.2 3.6 2.9 14.5 10.7 1.6 1.1 1.9 2.9 2 4.9 4.2 1.7 9.2 4.6 10.5 9.1 1 3.1.4 6.4 1.3 9.3 1.4 3.3 5.9 9.9 2.2 11.8l-1.7.8-15.4 4.7c-1.4-.1-2.7-.7-3.5-1.9-8.2-.4-17.8 2.1-24.1-3.7-2.9-2.4-5-5.4-7.1-8.3-4.7 2.6-11.8 4.1-16.7 1-10.1-7.9-20.4-15.4-33.8-15.2-6 1.4-13.4 3-19.3.3-5.5-4-12.2-6.1-16.8-11.9-6.4-6.8-6.7-15-8.7-23.5l-.2-.3c-8.6 2.4-18.3 1.3-27.2.8-7.4-.3-14.3.7-21 2.2-8.5 1.8-17.8 2.4-26.8 2.1l-4.3 3.3c1.9.6 4.2.4 5.7 1.8l1.7 1.8c7.4.7 15.6-.6 22.5 1.4 1.7.6 3.2 1.6 4 3.2 1.3 2.6.6 5.2-.3 6.8-3 5.2-5.5 10.7-10.4 14.6-1.4 1.5-5-.3-5.3 2.4-1.7 7.2-8.3 13.3-15.4 14.9-2.9.6-6-.1-8.6-1-8.3-2.9-17.1-5.3-25.7-7.5-2.9-.8-5.1-3.6-7.6-5.4-3.8-.1-8.7 1.3-11.5-2.1-1.9-1.8-4-6-4.1-6.1-7.8 9.7-16.5 19.5-26.4 27.8-41.1 34.8-102.5 46.2-154.2 27.4-28.6-9.8-54.8-28.5-75.5-56.8 0 0-3.3 8.6-8.3 9.6l-12.8 1.8c-10.1 4.3-20.4 7.8-30.7 11.5-6.1 1.4-12.9.1-17.3-3.8-3.5-3-5.4-6.7-7.8-10.3-1.1-1.6-5.5-.5-7.7-.7-1.1-.1-2.8-1.5-3.8-3.3l-8.9-14.7c-1.4-3-.8-4.9.1-6.8 1.8-3.3 5.4-4.6 8.9-5 6.3-.7 13.9-2.6 20 .2 2.9-3.3 7.4-2.8 11.4-3.6l.4-.1c-1.9-2.1-4.6-3.5-6.6-5.5-11.7 2.8-24.8 1-36.1-1.3-10.4-2.5-19.4 3.6-29.7 2.1 0 0-2.3 6.1-3.8 9.3-2.3 5-4.8 11.5-11.9 15.3-4.5 2.4-9.3 4.9-13.9 7.2-8.2 4.3-19.1 2.6-27.7.8-3.5-.3-6.2-.2-9.3 1.1-3 2.1-6.7 6.3-9.8 8.6-3.4 2.5-8.9 6.2-14.7 5.7-3.5-.3-7.9-2.4-9.1-1.8-.9.5-6.5 12.3-13.2 14.1s-14.6.4-21-1.1c-1.9.8-3.3 2.6-5.7 2.1-4.4-1.1-8.9-2.4-12.9-4.7-1.7-1.5-1.9-3.5-2.4-5.4.1-2.9 2.2-5.3 3.5-7.8.6-3 .3-6.8 1.7-9.6 2.1-4.6 6.7-7.2 10.8-9.3.6-3.2 2.7-6 5.3-7.6 5.2-3.3 11-9.4 17.8-5.5l7.2 6.2c4.5-2.3 4.6-6.5 8.1-14.4 1.5-3.5 3.6-7.2 7.9-7.8 3.1-.4 6.9.1 9-.3 2-.4 9.2-3.3 10.1-4.2 1.1-1 1.4-2.5 1-3.5-4.8-12.3-5.1-17.6-5.6-26.9-7.1.7-15.1 1.9-22.5.6-11.5-1.8-22.3-10.7-26.6-21.6-5-11-2.9-26.1 5-35.4 6-7.2 12.9-13.7 20.1-19.3-2.4-.7-5.3-.6-7.6-1.1-10.7-1.7-20.9-11.1-23.3-21.5-1.7-6.9-.1-13.3 3.2-19.1 1.1-1.2 2.4-2.4 4.3-1.7 5.1 2.1 8 5.4 14.6 8.4 6.5 3.1 31.4 5.1 36.4 21.4 3.3 12.8-3.3 21-12.8 28.2-7.2 5.1-14.8 11.4-18.6 18.9-2.7 5.3-1.3 13.3 3.3 17.5 5.4 4.9 13.5 4.7 19.6 2.4 11.5-4.7 21.8-12.2 31.9-20 9.7-7.2 19-10 31.2-10.4 4.9-.2 13.2-3.8 17.7-7.4 8.2-6.5 15.6-13.2 25.6-15.5 4.3-1 9-1.1 13.4-1.8 3.5-1.7 6-5.8 9-8 13.2-11.5 31.2-11.4 45.2-20.5 8-6.3 16.9-10.3 27.6-9.7 4.9.3 8.5.8 12.6 2.6 0 0 .6.1.7-.4 28.6-37 68.5-58 113.4-62 34.6-2.8 66.4 5.5 94.1 21.6 17.5 10.4 33.5 24.7 46 41.5z" fill="none" stroke="#fbbf15" stroke-width=".175" stroke-miterlimit="3.864"/><path d="M140.097 72.878c3.3.8 14.4 3.3 19.2 8.5 4.4 4.9 5 13.8.9 19.4-5.8 7.7-16 14.6-23.8 22.4-6.2 6.2-9 14.5-6.6 23.1 2.5 7.5 10 12.9 17.8 13.5 11.9.3 21.1-5.7 30.6-11.2 9.6-6.8 18.5-15.7 29.7-18.5 7.1-2.6 15.7-1.8 22.5-4.1 7.3-2.5 13.7-8 19.8-13.6 6.8-5.5 14.1-9 25.9-9 5.8 0 5.6-1 15.6-10.2 9.2-8.4 21.9-9.4 32.7-14.3 7.5-2.5 13.9-7.9 20.9-11.7 6.8-2.9 16.2-3.4 23.2-.8 4.6 1.7 6.5 2.6 13.2 7.1l32.9 27.3c.7.7 1.6 1.5 2.4 2.4 1.3 1.4 19.4 22.6 26.9 34.8 2.5 4.3 4.4 10.6 4.6 13.4 1.4 18.6 6.7 35 12.7 51.3.5 1.4 4.9 4.3 6.6 6.9 5.1 7.2 8.5 16.4 16.8 21.2 0 0 2.7 1.4 5 2.5.7.4.9 2-.7 2.4-8.9 1.9-19.2-5.3-22.9-12.1-4.3-7.8-8.1-13.2-15.3-15.7l-.4.4c1 2.2 2.7 4.3 3.9 6.3 2.7 4.4 5.3 9.4 6.6 14 1.5 5.1 7.2 9 11.8 11.9l6.1 3.3c2.2 1.1 1.9 2.7.4 3l-1 .1c-11 .3-20.2-3.2-27.7-11.2-1.8-1.9-4.1-3.7-6.8-3.7-4.8 4.3-9.7 8.6-16.2 9-6.7-1.1-14.3-1.2-20.4 1.4-5.5 1.9-11.1 4.3-17.3 4.6-2.9 0-6.2-1.4-7.2-4.1 0-3.5-2.7-7.6-.4-11.2l4.1-6.1c0-.8-.6-1.5-1.4-1.7-1.8-.3-4.4 2.7-5.1-.4.4-6.2 6.4-10 10.5-14.3 1-5 2.9-9.3 6.4-13.2 0-.6-.6-1.1-1.1-1.4-5.1.8-10.4 2.2-16.1 2.1-4.4 2.4-10 4-15.3 2.4-1.1-.7-.8-2.3-.4-2.9 5.4-7.6 7.8-17.3 6.1-26.8-.1-.7-.4-1.3-1.3-1.3-.8 0-1.3.9-1.4 1.6-1.6 8.7-3.9 16-8.7 23.3-2 3-9.3 3.5-14 5-1.1.6-2.3 1.5-2.3 2.9-.2 3 1.5 5.6 3 8 0 0 9.6 15.9 10 18.9.3 2.6-.9 10.9-2.2 15.7.5 1 1.4.6 2.1.1 1.8-1.2 6.1-7.8 7.6-12.3.4-2.2-.4-4.6-1.1-6.3l-11-21.6c.7-1.4 2.6-1.6 3.7-1.7 2.7-.1 4.7 1.3 7.1 1.9 2.5 6.7 3.6 9.3 9.7 19 2 3.2 1.9 7.2-.1 11.2-2.3 4.7-4.9 9.1-8 13.6-2.8 2.9-7.1 2.6-11 3h-3.2c-9.6 5.1-19.6 8.5-29.9 11.7-4.5 1.4-10 .6-13.5-2.5-3.6-2.8-5.1-7.1-7.5-10.7-2.8-3.5-9-.1-10.4-2.4-2.7-4.6-5.1-8.6-7.7-13.2-.9-1.5-.3-3.3 1.4-3.7 4-.8 7.8-1.6 11.8-2 3.8-.3 6.7.4 9.2 3.2 4.9 5.7 6.8 13.4 14 17.3 2 1.1 10.8-1.6 15.5-4 2.8-1.7 6.1-4.1 6.1-7.7-.4-7.1-5.3-12.8-11.1-16.8-6.1-3.2-12.6-7.6-17.1-13.3-2.2-3-2.9-6.8-4-10.3-.3-1.1-1.8-1-2.5-.4-2.4 2.1-.5 6.6.2 9 .6 1.9 1 3.2 0 4.1-3.4 2.8-9.1 1.7-13 1.5-9-.4-17.2-4-26.6-3.2-9 .4-24.1 5.9-28.2-2.8-3.3-8.3-1.8-18-.3-26.6 0-1-1-1.6-1.8-1.7-.7-.3-1.7.1-1.9 1-2.2 8.3-2.4 17.7-5.2 26.2-2.3 7.1-8.3 16.1-16.2 20.1-7.1 3.6-15 5-23.3 5.5-15.3.3-30.9 3.2-40.2 16.4-.7 1.2-.8 1.6-1.1 2.7-.4 1.9 1.3 2.4 2.3 1.3 10.5-11.7 24.6-16 39.7-15.4 14.7 0 29.1-2.5 38.3-15 2.4-2.8 6-8.7 6-8.7l4.9 3.8s-2.4 6-3.8 8.7c-2 3.9-5.8 10.2-10 12.5-2.9 1.6-8 4.1-13.2 7.1-4.4 2.5-10.1 2.9-15.4 1.5-6.6-1.2-15.5-2.9-21.9.2-3.3 2.1-6.2 5.4-9.2 7.8-3.1 2.4-8.5 5.7-13.9 5.4-3.8-.2-8.2-3.2-11.2.1-3.9 3.8-5 10-10.1 12.4-6 3.3-12.7 0-18.8-.6l.1-.3c1.2-5.5 2.1-11.5 5.8-15.8 2.4-.3 4.6-.7 6.4-2.4 2.3-2.1 4.2-4.9 5.8-7.5 5.1-3.2 11.2-5.8 14.6-11.4 2.5-5.3 4.9-13.1 6.6-14.8.4-.3 1-.8 2.1-1 1.2-.1 5.4-.2 9.2-.7 1.6-.2 10-3.2 14.2-7.1 1.4-1.3 1.8-3.4 1.3-5.1-.5-1.8-4-9-5-14.4-.5-2.7-.7-11.5-1.1-17.9-.1-1.6-.8-1.8-1.8-1.5-7.1 1.8-14.3 3.6-22.2 2.4-10.8-1.4-22.1-8.5-26.1-19.3-3.6-9.4-2.8-22.6 4.1-30.1 6.5-8 14.7-14.3 22.5-20.8 1.2-1 2-1.9 1.9-3.3-.2-2.1-2-3.5-3.4-4-5-1.1-10.2.6-15.1-1.5-8.3-3-15-11-16.1-19.7-.3-3.9 1-10.1 2.5-10.6 1-.3 6.4 4.5 9.6 6.1 3.7 1.6 7.1 2.7 15.1 4.7" fill="#e30f4d"/><path d="M140.097 72.878c3.3.8 14.4 3.3 19.2 8.5 4.4 4.9 5 13.8.9 19.4-5.8 7.7-16 14.6-23.8 22.4-6.2 6.2-9 14.5-6.6 23.1 2.5 7.5 10 12.9 17.8 13.5 11.9.3 21.1-5.7 30.6-11.2 9.6-6.8 18.5-15.7 29.7-18.5 7.1-2.6 15.7-1.8 22.5-4.1 7.3-2.5 13.7-8 19.8-13.6 6.8-5.5 14.1-9 25.9-9 5.8 0 5.6-1 15.6-10.2 9.2-8.4 21.9-9.4 32.7-14.3 7.5-2.5 13.9-7.9 20.9-11.7 6.8-2.9 16.2-3.4 23.2-.8 4.6 1.7 6.5 2.6 13.2 7.1l32.9 27.3c.7.7 1.6 1.5 2.4 2.4 1.3 1.4 19.4 22.6 26.9 34.8 2.5 4.3 4.4 10.6 4.6 13.4 1.4 18.6 6.7 35 12.7 51.3.5 1.4 4.9 4.3 6.6 6.9 5.1 7.2 8.5 16.4 16.8 21.2 0 0 2.7 1.4 5 2.5.7.4.9 2-.7 2.4-8.9 1.9-19.2-5.3-22.9-12.1-4.3-7.8-8.1-13.2-15.3-15.7l-.4.4c1 2.2 2.7 4.3 3.9 6.3 2.7 4.4 5.3 9.4 6.6 14 1.5 5.1 7.2 9 11.8 11.9l6.1 3.3c2.2 1.1 1.9 2.7.4 3l-1 .1c-11 .3-20.2-3.2-27.7-11.2-1.8-1.9-4.1-3.7-6.8-3.7-4.8 4.3-9.7 8.6-16.2 9-6.7-1.1-14.3-1.2-20.4 1.4-5.5 1.9-11.1 4.3-17.3 4.6-2.9 0-6.2-1.4-7.2-4.1 0-3.5-2.7-7.6-.4-11.2l4.1-6.1c0-.8-.6-1.5-1.4-1.7-1.8-.3-4.4 2.7-5.1-.4.4-6.2 6.4-10 10.5-14.3 1-5 2.9-9.3 6.4-13.2 0-.6-.6-1.1-1.1-1.4-5.1.8-10.4 2.2-16.1 2.1-4.4 2.4-10 4-15.3 2.4-1.1-.7-.8-2.3-.4-2.9 5.4-7.6 7.8-17.3 6.1-26.8-.1-.7-.4-1.3-1.3-1.3-.8 0-1.3.9-1.4 1.6-1.6 8.7-3.9 16-8.7 23.3-2 3-9.3 3.5-14 5-1.1.6-2.3 1.5-2.3 2.9-.2 3 1.5 5.6 3 8 0 0 9.6 15.9 10 18.9.3 2.6-.9 10.9-2.2 15.7.5 1 1.4.6 2.1.1 1.8-1.2 6.1-7.8 7.6-12.3.4-2.2-.4-4.6-1.1-6.3l-11-21.6c.7-1.4 2.6-1.6 3.7-1.7 2.7-.1 4.7 1.3 7.1 1.9 2.5 6.7 3.6 9.3 9.7 19 2 3.2 1.9 7.2-.1 11.2-2.3 4.7-4.9 9.1-8 13.6-2.8 2.9-7.1 2.6-11 3h-3.2c-9.6 5.1-19.6 8.5-29.9 11.7-4.5 1.4-10 .6-13.5-2.5-3.6-2.8-5.1-7.1-7.5-10.7-2.8-3.5-9-.1-10.4-2.4-2.7-4.6-5.1-8.6-7.7-13.2-.9-1.5-.3-3.3 1.4-3.7 4-.8 7.8-1.6 11.8-2 3.8-.3 6.7.4 9.2 3.2 4.9 5.7 6.8 13.4 14 17.3 2 1.1 10.8-1.6 15.5-4 2.8-1.7 6.1-4.1 6.1-7.7-.4-7.1-5.3-12.8-11.1-16.8-6.1-3.2-12.6-7.6-17.1-13.3-2.2-3-2.9-6.8-4-10.3-.3-1.1-1.8-1-2.5-.4-2.4 2.1-.5 6.6.2 9 .6 1.9 1 3.2 0 4.1-3.4 2.8-9.1 1.7-13 1.5-9-.4-17.2-4-26.6-3.2-9 .4-24.1 5.9-28.2-2.8-3.3-8.3-1.8-18-.3-26.6 0-1-1-1.6-1.8-1.7-.7-.3-1.7.1-1.9 1-2.2 8.3-2.4 17.7-5.2 26.2-2.3 7.1-8.3 16.1-16.2 20.1-7.1 3.6-15 5-23.3 5.5-15.3.3-30.9 3.2-40.2 16.4-.7 1.2-.8 1.6-1.1 2.7-.4 1.9 1.3 2.4 2.3 1.3 10.5-11.7 24.6-16 39.7-15.4 14.7 0 29.1-2.5 38.3-15 2.4-2.8 6-8.7 6-8.7l4.9 3.8s-2.4 6-3.8 8.7c-2 3.9-5.8 10.2-10 12.5-2.9 1.6-8 4.1-13.2 7.1-4.4 2.5-10.1 2.9-15.4 1.5-6.6-1.2-15.5-2.9-21.9.2-3.3 2.1-6.2 5.4-9.2 7.8-3.1 2.4-8.5 5.7-13.9 5.4-3.8-.2-8.2-3.2-11.2.1-3.9 3.8-5 10-10.1 12.4-6 3.3-12.7 0-18.8-.6l.1-.3c1.2-5.5 2.1-11.5 5.8-15.8 2.4-.3 4.6-.7 6.4-2.4 2.3-2.1 4.2-4.9 5.8-7.5 5.1-3.2 11.2-5.8 14.6-11.4 2.5-5.3 4.9-13.1 6.6-14.8.4-.3 1-.8 2.1-1 1.2-.1 5.4-.2 9.2-.7 1.6-.2 10-3.2 14.2-7.1 1.4-1.3 1.8-3.4 1.3-5.1-.5-1.8-4-9-5-14.4-.5-2.7-.7-11.5-1.1-17.9-.1-1.6-.8-1.8-1.8-1.5-7.1 1.8-14.3 3.6-22.2 2.4-10.8-1.4-22.1-8.5-26.1-19.3-3.6-9.4-2.8-22.6 4.1-30.1 6.5-8 14.7-14.3 22.5-20.8 1.2-1 2-1.9 1.9-3.3-.2-2.1-2-3.5-3.4-4-5-1.1-10.2.6-15.1-1.5-8.3-3-15-11-16.1-19.7-.3-3.9 1-10.1 2.5-10.6 1-.3 6.4 4.5 9.6 6.1 3.7 1.6 7.1 2.7 15.1 4.7z" fill="none" stroke-width=".175" stroke-miterlimit="3.864" stroke="#e30f4d"/><path d="M668.397 71.578c4.3 2.9 6.2 8.7 11.5 10 8.9 1.9 17.8 4 25.8 8 5.8 2.9 11.6 7.5 17.3 11.6 4.5 3.2 9.6 2.3 14.9 4.1 7.6 1.9 13.9 7.8 20.7 12.2 9 7.1 21.5 6 31.6 10.5 16.1 5.1 29.1 17.6 44.1 25.1 7.8 4.2 19.4 5.8 27.2 1.1 5.1-3.7 8.5-8.6 7.4-15.3-2.9-16.4-21.1-25.2-29.7-38.8-1.8-3.3-3-7.8-1.7-11.8 2.8-8.1 11.4-12.7 18.6-15.2 6-2.1 12.9-2.2 18.3-5.4 1.9-1.1 3.5-2.8 5-4.1 1.1-1 1.3 1.2 1.5 2.1 1.7 9.7-.1 19.7-8.6 25.4-3.2 2.2-7.1 3.2-10.9 4.2-3 .8-9.7 1.8-9.3 4.3.5 2.7 3.3 4.6 5.4 6.4 11.2 9.4 21.6 21.4 23 35.9.4 11.2-7.3 21.1-17 25.8-7.1 3-16.2 4.1-24 1.9-2.1-.3-5.4-2.2-6.8.4-.5 3.1.9 5.8 1.7 8.6 1.3 5.2.7 12.1-1 17.2-.7 4-5 8.9-1.1 13 3.7 5.5 11 3.9 16.9 4.9 3.3.6 4.3 4.1 5.3 6.7 1.1 3 2.5 9.8 3.8 12.4 1.2 2.4 5.5 5 8.9 9.1 4.2 4.4 7.6 12.1 14.7 11.7 2.2 5 3.8 9.9 4.4 15.6l-1 .2c-5.7 0-13.1 1.9-17.4-2.3-5.6-5.1-6.6-12.3-13.7-9.9-3 2.5-7.6 3.3-11.4 1.8-3.5-1.2-6-4.6-9.1-6.4-9.7-7.1-22.5-10.7-35.1-7.9-7.2 1.9-12.9-3.1-18.7-6.5-7.5-3.2-9.7-11.4-11.4-18.3 0 0-1.5-7.9-1.4-8.6.2-.7.3-1.1 1.5-1.8 1.1-.7 1.5.3 1.5.3 3.1 8.4 12.3 20.9 23.3 24.6 10 4 19.4-1.1 30.1.8 10.1 1.3 18 7.8 25.9 13.9.7.2 1.2-.6 1.5-1.1v-.7c-9.2-11.7-22.1-17.8-37-16.7-12.3 2.6-24.8-1.5-31.9-12.1-3.9-6-6.9-12.3-8-19.4-1.1-8-2.9-16.9-5.5-24.3-.5-1.3-1.5-1.6-2.4-1.1-.9.4-.8 1.2-.8 1.7 0 .4 3.5 17.1.7 25.2-1.9 6.4-8.6 8.9-14.7 9.2-6.1.4-11.8-.8-18-.8-14.7-.6-27.3 5.4-42.4 3.9 1.3-3.5 3.3-7.3 2.5-11.3-.3-1.3-1.4-1.3-2.5-.8-2.8 1.8-2.5 5.3-4.1 7.6-3.2 5.4-9.2 10-15.3 11.2-4.3 3.3-8.5 7.9-11.9 11.9-1.4 1.2-1.4 3.5-1 5.3 3 7.2 11.2 8.2 17.9 10 3.2.3 6.3-.8 7.8-3.6 2.8-4.4 3.3-11.7 9.8-12.5h14.1c1.4.2 2.8.3 2.8 2.2 0 .8-.3 1.5-.8 2.2-2.2 3.3-4.4 8.7-8.6 11.5-2.2.7-5.3-.1-6.8 1.9-.8 4.9-2.1 10-6.9 12.7-3.5 3.2-9 1.7-12.9.4-7.5-2.9-15.5-4.3-23-6.8-3.3-1-4.6-5-7.9-5.8s-7 1.9-9.6-1.1c-1.7-2-2.6-6-3.7-9.8-.7-2.3-1.6-5.3-2.1-8.1-.5-2.4.2-4 .8-6.3l10.4-18.9c.8-1.1 1.6-2.5 2.9-2.9.9-.3 6.5 2.2 7 2.9.3.4.2 1.1-.6 2.3-2.1 3.3-10 15.6-10 15.6-2.3 5.4-.1 11.4 2.4 15.8.3.6.8 1.1 1.4.8-.3-3.3-.7-6.7 0-10.1.7-3 2.7-6.1 4.6-8.9l8.5-12.5c1-2.2.7-5.4-.7-7.4-3.7-3.8-9-4.7-12.1-9.6-7.1-9.3-7.6-20.1-8.5-31.9-.2-1-.8-2.2-1.9-2.5-.8-.3-1.5.7-1.9 1.2-2.2 7.5-.8 16.9 1.1 23.7 1.4 5.4 3.6 10.4 6 15.4.3 1-.4 1.9-1.3 2.2-5.5.4-11.2-.1-16.8-.7-7.4-1.1-13.1-7.4-19-11.7l-1.5 1.5c1.5 7.9 10.8 12.7 13.6 20.3 1.8 6 7.5 10.7 8.9 17.1 0 1-.7 1.9-1.5 2.5-1.9.6-4-.8-5.8.3-.3 3.5 1.9 7.1.4 10.7-1.9 3-4.7 6.7-8.5 6.8-7.4-2.5-14.4-5.5-21.8-7.8-5.3-.4-10.5.3-15.5 1-4.7-1-8.1-5.1-11.7-7.9-1.1-.3-2.2-.4-3 .4-8.2 8.2-16.9 16.9-29.1 16.4-.7-.1-1.5-1.1-1.5-1.8l.3-.6c5.4-4.7 11.8-9.8 14-16.5 1.7-5.5 6.6-9.6 8.3-15.1.1-.9.1-1.3-.7-1.7-1.1 0-2.1 1-2.1 1-5.8 6.2-10.4 12.7-14.7 19.5-4.4 4.6-11 7.2-17.6 5.5-.8-.6-.8-1.8-.4-2.5 25.1-15.4 28-42.8 35-67.8 4.9-16.5 8.3-33.6 21.4-47 19.4-21.2 43.7-34 64.9-52.6 3.2-2.8 7.3-5.8 11.5-6.1 9.9-.8 17.1 3.6 24.5 9.5" fill="#e30f4d"/><path d="M668.397 71.578c4.3 2.9 6.2 8.7 11.5 10 8.9 1.9 17.8 4 25.8 8 5.8 2.9 11.6 7.5 17.3 11.6 4.5 3.2 9.6 2.3 14.9 4.1 7.6 1.9 13.9 7.8 20.7 12.2 9 7.1 21.5 6 31.6 10.5 16.1 5.1 29.1 17.6 44.1 25.1 7.8 4.2 19.4 5.8 27.2 1.1 5.1-3.7 8.5-8.6 7.4-15.3-2.9-16.4-21.1-25.2-29.7-38.8-1.8-3.3-3-7.8-1.7-11.8 2.8-8.1 11.4-12.7 18.6-15.2 6-2.1 12.9-2.2 18.3-5.4 1.9-1.1 3.5-2.8 5-4.1 1.1-1 1.3 1.2 1.5 2.1 1.7 9.7-.1 19.7-8.6 25.4-3.2 2.2-7.1 3.2-10.9 4.2-3 .8-9.7 1.8-9.3 4.3.5 2.7 3.3 4.6 5.4 6.4 11.2 9.4 21.6 21.4 23 35.9.4 11.2-7.3 21.1-17 25.8-7.1 3-16.2 4.1-24 1.9-2.1-.3-5.4-2.2-6.8.4-.5 3.1.9 5.8 1.7 8.6 1.3 5.2.7 12.1-1 17.2-.7 4-5 8.9-1.1 13 3.7 5.5 11 3.9 16.9 4.9 3.3.6 4.3 4.1 5.3 6.7 1.1 3 2.5 9.8 3.8 12.4 1.2 2.4 5.5 5 8.9 9.1 4.2 4.4 7.6 12.1 14.7 11.7 2.2 5 3.8 9.9 4.4 15.6l-1 .2c-5.7 0-13.1 1.9-17.4-2.3-5.6-5.1-6.6-12.3-13.7-9.9-3 2.5-7.6 3.3-11.4 1.8-3.5-1.2-6-4.6-9.1-6.4-9.7-7.1-22.5-10.7-35.1-7.9-7.2 1.9-12.9-3.1-18.7-6.5-7.5-3.2-9.7-11.4-11.4-18.3 0 0-1.5-7.9-1.4-8.6.2-.7.3-1.1 1.5-1.8 1.1-.7 1.5.3 1.5.3 3.1 8.4 12.3 20.9 23.3 24.6 10 4 19.4-1.1 30.1.8 10.1 1.3 18 7.8 25.9 13.9.7.2 1.2-.6 1.5-1.1v-.7c-9.2-11.7-22.1-17.8-37-16.7-12.3 2.6-24.8-1.5-31.9-12.1-3.9-6-6.9-12.3-8-19.4-1.1-8-2.9-16.9-5.5-24.3-.5-1.3-1.5-1.6-2.4-1.1-.9.4-.8 1.2-.8 1.7 0 .4 3.5 17.1.7 25.2-1.9 6.4-8.6 8.9-14.7 9.2-6.1.4-11.8-.8-18-.8-14.7-.6-27.3 5.4-42.4 3.9 1.3-3.5 3.3-7.3 2.5-11.3-.3-1.3-1.4-1.3-2.5-.8-2.8 1.8-2.5 5.3-4.1 7.6-3.2 5.4-9.2 10-15.3 11.2-4.3 3.3-8.5 7.9-11.9 11.9-1.4 1.2-1.4 3.5-1 5.3 3 7.2 11.2 8.2 17.9 10 3.2.3 6.3-.8 7.8-3.6 2.8-4.4 3.3-11.7 9.8-12.5h14.1c1.4.2 2.8.3 2.8 2.2 0 .8-.3 1.5-.8 2.2-2.2 3.3-4.4 8.7-8.6 11.5-2.2.7-5.3-.1-6.8 1.9-.8 4.9-2.1 10-6.9 12.7-3.5 3.2-9 1.7-12.9.4-7.5-2.9-15.5-4.3-23-6.8-3.3-1-4.6-5-7.9-5.8s-7 1.9-9.6-1.1c-1.7-2-2.6-6-3.7-9.8-.7-2.3-1.6-5.3-2.1-8.1-.5-2.4.2-4 .8-6.3l10.4-18.9c.8-1.1 1.6-2.5 2.9-2.9.9-.3 6.5 2.2 7 2.9.3.4.2 1.1-.6 2.3-2.1 3.3-10 15.6-10 15.6-2.3 5.4-.1 11.4 2.4 15.8.3.6.8 1.1 1.4.8-.3-3.3-.7-6.7 0-10.1.7-3 2.7-6.1 4.6-8.9l8.5-12.5c1-2.2.7-5.4-.7-7.4-3.7-3.8-9-4.7-12.1-9.6-7.1-9.3-7.6-20.1-8.5-31.9-.2-1-.8-2.2-1.9-2.5-.8-.3-1.5.7-1.9 1.2-2.2 7.5-.8 16.9 1.1 23.7 1.4 5.4 3.6 10.4 6 15.4.3 1-.4 1.9-1.3 2.2-5.5.4-11.2-.1-16.8-.7-7.4-1.1-13.1-7.4-19-11.7l-1.5 1.5c1.5 7.9 10.8 12.7 13.6 20.3 1.8 6 7.5 10.7 8.9 17.1 0 1-.7 1.9-1.5 2.5-1.9.6-4-.8-5.8.3-.3 3.5 1.9 7.1.4 10.7-1.9 3-4.7 6.7-8.5 6.8-7.4-2.5-14.4-5.5-21.8-7.8-5.3-.4-10.5.3-15.5 1-4.7-1-8.1-5.1-11.7-7.9-1.1-.3-2.2-.4-3 .4-8.2 8.2-16.9 16.9-29.1 16.4-.7-.1-1.5-1.1-1.5-1.8l.3-.6c5.4-4.7 11.8-9.8 14-16.5 1.7-5.5 6.6-9.6 8.3-15.1.1-.9.1-1.3-.7-1.7-1.1 0-2.1 1-2.1 1-5.8 6.2-10.4 12.7-14.7 19.5-4.4 4.6-11 7.2-17.6 5.5-.8-.6-.8-1.8-.4-2.5 25.1-15.4 28-42.8 35-67.8 4.9-16.5 8.3-33.6 21.4-47 19.4-21.2 43.7-34 64.9-52.6 3.2-2.8 7.3-5.8 11.5-6.1 9.9-.8 17.1 3.6 24.5 9.5z" fill="none" stroke-width=".175" stroke-miterlimit="3.864" stroke="#e30f4d"/><path d="M328.397 234.078c1.1 2.3 2.3 2.9.5 4.4-3.2 2.5-8.3 4.4-11.1 3.5-1.8-.6-3.7-7-5.8-10.1-1.4-2-4.4-3.5-3.7-5 .3-.8 1.6-.8 1.6-.8 4.4 0 8.5-.3 13-.9 3.9-.6 3.2 4.3 5.5 8.9" fill="#e30f4d"/><path d="M328.397 234.078c1.1 2.3 2.3 2.9.5 4.4-3.2 2.5-8.3 4.4-11.1 3.5-1.8-.6-3.7-7-5.8-10.1-1.4-2-4.4-3.5-3.7-5 .3-.8 1.6-.8 1.6-.8 4.4 0 8.5-.3 13-.9 3.9-.6 3.2 4.3 5.5 8.9z" fill="none" stroke-width=".175" stroke-miterlimit="3.864" stroke="#e30f4d"/><path d="M683.597 228.878c-.6 3.9-1.8 7.8-3.2 11.4-1.3 2.5-5 1.8-7.1 1.4-2.8-.6-6.4-1.2-6.8-4.7-.4-3.3 2.8-8.9 2.8-8.9 3.2-.6 5.7.3 11.8-.4 1.1-.2 2.7 0 2.5 1.2" fill="#e30f4d"/><path d="M683.597 228.878c-.6 3.9-1.8 7.8-3.2 11.4-1.3 2.5-5 1.8-7.1 1.4-2.8-.6-6.4-1.2-6.8-4.7-.4-3.3 2.8-8.9 2.8-8.9 3.2-.6 5.7.3 11.8-.4 1.1-.2 2.7 0 2.5 1.2z" fill="none" stroke-width=".175" stroke-miterlimit="3.864" stroke="#e30f4d"/><path d="M125.397 235.078c-.2.5-4.8 8.8-9.3 11-2.5 1.3-4 .4-5.1-.5-.4-.3-2.4-2.6-2.4-2.6-.8-.9-.3-3.9 1-4.9 3.4-2.8 6.5-4.7 9.6-6.8.8-.6 2.2-.8 3-.1 2 1.5 3.6 2.7 3.2 3.9" fill="#e30f4d"/><path d="M125.397 235.078c-.2.5-4.8 8.8-9.3 11-2.5 1.3-4 .4-5.1-.5-.4-.3-2.4-2.6-2.4-2.6-.8-.9-.3-3.9 1-4.9 3.4-2.8 6.5-4.7 9.6-6.8.8-.6 2.2-.8 3-.1 2 1.5 3.6 2.7 3.2 3.9z" fill="none" stroke-width=".175" stroke-miterlimit="3.864" stroke="#e30f4d"/><path d="M878.697 232.178c2.2 1.9 7.6 4.6 10.1 8.2.9 1.3-1.3 3.7-2.5 4.8-1.3 1.2-2.6 1.9-4.6 1.9-1.9-.1-3.6-1.4-4.9-2.9-2.5-3-6.2-7.2-6.1-9 .1-1.2 4.5-5.9 7.3-3.5z" fill="#e30f4d"/><path d="M878.697 232.178c2.2 1.9 7.6 4.6 10.1 8.2.9 1.3-1.3 3.7-2.5 4.8-1.3 1.2-2.6 1.9-4.6 1.9-1.9-.1-3.6-1.4-4.9-2.9-2.5-3-6.2-7.2-6.1-9 .1-1.2 4.5-5.9 7.3-3.5z" fill="none" stroke-width=".175" stroke-miterlimit="3.864" stroke="#e30f4d"/><path d="M102.297 269.578c-.6.2-8.9-2.6-9.4-3.1s-.2-1.9.3-2.5c2.4-2.6 2.6-3.6 3.2-11.8.1-1.7 2.9-4.8 5.1-5.7 1.6-.7 6.6 5.3 6.4 6-2.6 7.4-4.6 16.8-5.6 17.1" fill="#e30f4d"/><path d="M102.297 269.578c-.6.2-8.9-2.6-9.4-3.1s-.2-1.9.3-2.5c2.4-2.6 2.6-3.6 3.2-11.8.1-1.7 2.9-4.8 5.1-5.7 1.6-.7 6.6 5.3 6.4 6-2.6 7.4-4.6 16.8-5.6 17.1z" fill="none" stroke-width=".175" stroke-miterlimit="3.864" stroke="#e30f4d"/><path d="M900.797 259.478c.6 2.4 4.1 7.4 1.7 8.1l-8.8 2.9c-1.1.3-1.6-2.9-1.6-2.9-1.1-5.1-2-8.7-3.7-13.8-.5-3.2 1.2-4.7 4.2-6.2 2.6-1.3 5.6.4 6.5 2.5 1.1 2.5 1.1 6.2 1.7 9.4" fill="#e30f4d"/><path d="M900.797 259.478c.6 2.4 4.1 7.4 1.7 8.1l-8.8 2.9c-1.1.3-1.6-2.9-1.6-2.9-1.1-5.1-2-8.7-3.7-13.8-.5-3.2 1.2-4.7 4.2-6.2 2.6-1.3 5.6.4 6.5 2.5 1.1 2.5 1.1 6.2 1.7 9.4z" fill="none" stroke-width=".175" stroke-miterlimit="3.864" stroke="#e30f4d"/><path d="M645.297 97.478c1.1 1.8.1 3.5-1 4.6-5.7 5.4-12.6 11-16.8 17.5-1.5 2.1-2.6 4.4-3.8 6.8-.1.3-.4.8-1 .3-.6-.6-.2-6.5 1.1-10 2.9-7.8 9.4-15 16.1-20 1.7-1 4.6-1.3 5.4.8" fill="#fbbf15"/><path d="M645.297 97.478c1.1 1.8.1 3.5-1 4.6-5.7 5.4-12.6 11-16.8 17.5-1.5 2.1-2.6 4.4-3.8 6.8-.1.3-.4.8-1 .3-.6-.6-.2-6.5 1.1-10 2.9-7.8 9.4-15 16.1-20 1.7-1 4.6-1.3 5.4.8z" fill="none" stroke="#fbbf15" stroke-width=".175" stroke-miterlimit="3.864"/><path d="M370.297 113.978c3.8 7.9 1.3 18.9.8 20.8-.2.8-.9 1.2-1.1.2-1.8-9.3-2.8-13.3-4.8-17.3-2-4.1-5.4-5.9-3.5-9.1.6-.9 2.4-1.3 3.7-.7 2.1 1 3.8 3.9 4.9 6.1" fill="#fbbf15"/><path d="M370.297 113.978c3.8 7.9 1.3 18.9.8 20.8-.2.8-.9 1.2-1.1.2-1.8-9.3-2.8-13.3-4.8-17.3-2-4.1-5.4-5.9-3.5-9.1.6-.9 2.4-1.3 3.7-.7 2.1 1 3.8 3.9 4.9 6.1z" fill="none" stroke="#fbbf15" stroke-width=".175" stroke-miterlimit="3.864"/><path d="M435.197 170.778c4.6 5.1 7.6 10.8 6.1 17.9-.7 1.4-.6 3.5-2.3 3.9-.8.3-1.5-.3-1.5-1.1-.3-3.7-.3-7.6-2.5-10.7-2.5-2.7-5.1-7.2-9.2-7.2-2.8.8-4.9 4-6.5 6.3-.1.3-.5.3-.8.1-1.5-3.9.2-7.3 1.6-10.5 1.4-3.1 2.9-9.3 8.2-7.1 3.6 1.8 4.3 5.7 6.9 8.4" fill="#fbbf15"/><path d="M435.197 170.778c4.6 5.1 7.6 10.8 6.1 17.9-.7 1.4-.6 3.5-2.3 3.9-.8.3-1.5-.3-1.5-1.1-.3-3.7-.3-7.6-2.5-10.7-2.5-2.7-5.1-7.2-9.2-7.2-2.8.8-4.9 4-6.5 6.3-.1.3-.5.3-.8.1-1.5-3.9.2-7.3 1.6-10.5 1.4-3.1 2.9-9.3 8.2-7.1 3.6 1.8 4.3 5.7 6.9 8.4z" fill="none" stroke="#fbbf15" stroke-width=".175" stroke-miterlimit="3.864"/><path d="M588.897 177.678c.3.8.2 1.7-.1 2.5-.5.7-1.5 1.7-2.5 1-2.8-1-2.4-5.3-5.8-5-2.6-.1-4.2 2.1-6.2 3.2-3.6 3.2-8.5 6.5-9.3 11.4-.7 1.8-.4 4.3-1.9 5.3-1 .3-2.1-.6-2.1-1.4-.6-6.4 1.5-12.5 6.2-16.8 4.6-3.8 7.8-8.9 11.5-13.2.9-.9 3 1.1 4.4 2.6 1 1.1 4.3 6.6 5.8 10.4" fill="#fbbf15"/><path d="M588.897 177.678c.3.8.2 1.7-.1 2.5-.5.7-1.5 1.7-2.5 1-2.8-1-2.4-5.3-5.8-5-2.6-.1-4.2 2.1-6.2 3.2-3.6 3.2-8.5 6.5-9.3 11.4-.7 1.8-.4 4.3-1.9 5.3-1 .3-2.1-.6-2.1-1.4-.6-6.4 1.5-12.5 6.2-16.8 4.6-3.8 7.8-8.9 11.5-13.2.9-.9 3 1.1 4.4 2.6 1 1.1 4.3 6.6 5.8 10.4z" fill="none" stroke="#fbbf15" stroke-width=".175" stroke-miterlimit="3.864"/><path d="M426.497 218.578c.3 2.7-.1 6.8-1.9 7.5-2.6.9-5.6 1.4-8.5 1-.9-.2-1.7-.7-1.4-1.5 1.3-3.8 4.9-7.5 8.9-8.3 1.1-.1 2.6-.2 2.9 1.3" fill="#fbbf15"/><path d="M426.497 218.578c.3 2.7-.1 6.8-1.9 7.5-2.6.9-5.6 1.4-8.5 1-.9-.2-1.7-.7-1.4-1.5 1.3-3.8 4.9-7.5 8.9-8.3 1.1-.1 2.6-.2 2.9 1.3z" fill="none" stroke="#fbbf15" stroke-width=".175" stroke-miterlimit="3.864"/><path d="M584.497 221.078s2.6 3.4 1.4 5.7c-1 1.8-4.9 1.5-6.6.3-2-1.5-3.2-4-3.4-7-.1-.7 0-1.3.9-2 1.5-.8 5.7.6 7.7 3" fill="#fbbf15"/><path d="M584.497 221.078s2.6 3.4 1.4 5.7c-1 1.8-4.9 1.5-6.6.3-2-1.5-3.2-4-3.4-7-.1-.7 0-1.3.9-2 1.5-.8 5.7.6 7.7 3z" fill="none" stroke="#fbbf15" stroke-width=".175" stroke-miterlimit="3.864"/></svg>